<?xml version="1.0" encoding="utf-8"?>
<!-- Generator: Adobe Illustrator 19.0.0, SVG Export Plug-In . SVG Version: 6.00 Build 0)  -->
<svg version="1.1" id="Layer_1" xmlns="http://www.w3.org/2000/svg" xmlns:xlink="http://www.w3.org/1999/xlink" x="0px" y="0px"
	 viewBox="-468 382.7 80 80" style="enable-background:new -468 382.7 80 80;" xml:space="preserve">
<style type="text/css">
	.st0{fill:none;stroke:#000000;stroke-width:2;}
</style>
<g>
	<path class="st0" d="M-453,408.5h50c1.1,0,1.9,0.9,1.9,2.1v11c0,3.4-2.7,6.1-6.1,6.1h-41.5c-3.4,0-6.3-2.8-6.3-6.3v-11
		C-454.9,409.4-454,408.5-453,408.5z"/>
	<path class="st0" d="M-447.5,424h39c0.8,0,1.3,0.6,1.3,1.3v2.3h-41.3v-2.5C-448.5,424.6-448.1,424-447.5,424z"/>
	<rect x="-429.5" y="421.1" class="st0" width="3.3" height="0.1"/>
	<rect x="-418.5" y="430.8" class="st0" width="0.2" height="6.1"/>
	<rect x="-437.5" y="430.8" class="st0" width="0.2" height="6.1"/>
	<rect x="-424.8" y="430.8" class="st0" width="0.2" height="6.1"/>
	<rect x="-431.2" y="430.8" class="st0" width="0.2" height="6.1"/>
</g>
</svg>
