<?xml version="1.0" encoding="utf-8"?>
<!-- Generator: Adobe Illustrator 19.0.0, SVG Export Plug-In . SVG Version: 6.00 Build 0)  -->
<svg version="1.1" id="Layer_1" xmlns="http://www.w3.org/2000/svg" xmlns:xlink="http://www.w3.org/1999/xlink" x="0px" y="0px"
	 viewBox="-252.7 380.9 80 80" style="enable-background:new -252.7 380.9 80 80;" xml:space="preserve">
<g>
	<path d="M-188.1,419.4h-3v-5.7h-32c0.4-0.5,0.7-1.1,0.9-1.8c0.1-0.9-0.1-1.9-0.7-2.7c-0.6-0.8-1.4-1.3-2.4-1.4
		c-0.7-0.1-1.4,0-2.1,0.3c-0.5-0.5-1.2-0.8-1.9-0.9c-0.7-0.1-1.4,0-2.1,0.3c-0.5-0.5-1.2-0.8-1.9-0.9c-0.7-0.1-1.4,0-2.1,0.3
		c-0.5-0.5-1.2-0.8-1.9-0.9c-2-0.3-3.9,1.1-4.2,3.1c-0.1,0.9,0.1,1.8,0.6,2.5c-0.6,0.6-1.1,1.4-1.2,2.2c-0.2,1.1,0.1,2,0.6,2.8
		c-0.7,0.6-1.2,1.4-1.3,2.3c-0.4,2,1.1,3.9,3.1,4.2c0.7,0.1,1.4,0,2.1-0.3c0.5,0.5,1.2,0.8,1.9,0.9c0.1,0,0.2,0,0.3,0
		c-0.2,0.1-0.5,0.3-0.7,0.4c-1.6,1.3-1.8,3.6-0.5,5.2c0.6,0.7,1.4,1.1,2.2,1.3c0,0.9,0.3,1.7,0.9,2.4s1.4,1.1,2.3,1.3
		c-0.1,0.9,0.2,1.8,0.9,2.5c0.7,0.9,1.7,1.3,2.8,1.3c0.9,0,1.7-0.3,2.4-0.9c0.4-0.4,0.8-0.9,1-1.4c0.8,2.4,3,4.2,5.7,4.2h21.7
		c3.3,0,6-2.7,6-6v-3h3c3.2,0,5.7-2.6,5.7-5.7C-182.3,422-184.9,419.4-188.1,419.4z M-224.8,433.8c-0.4,0-0.7,0.3-0.8,0.6
		c-0.1,0.6-0.4,1.1-0.8,1.4c-0.4,0.4-0.9,0.5-1.4,0.5c-0.6,0-1.3-0.3-1.7-0.8c-0.5-0.6-0.6-1.4-0.4-2.1c0.1-0.2,0-0.5-0.1-0.6
		c-0.1-0.1-0.4-0.3-0.6-0.3h-0.1c-0.8,0.1-1.5-0.2-2-0.8c-0.4-0.6-0.6-1.3-0.4-2c0.1-0.2,0-0.4-0.1-0.6c-0.1-0.1-0.4-0.3-0.6-0.3
		c-0.7,0.1-1.4-0.2-1.9-0.8c-0.8-0.9-0.6-2.4,0.3-3.2c0.4-0.4,1-0.6,1.6-0.5c0.4,0,0.7-0.3,0.8-0.6c0-0.1,0-0.1,0.1-0.2
		c0.4,0.2,0.7,0.4,1.1,0.4c0.7,0.1,1.4,0,2.1-0.3c0.5,0.5,1.2,0.8,1.9,0.9c0.1,0,0.4,0.1,0.5,0.1c0.5,0,1-0.1,1.4-0.3
		c0.4,0.1,0.8,0.1,1.1-0.2l0,0c0.3-0.3,0.4-0.6,0.4-1.1c0.3-0.4,0.6-1,0.6-1.6c0.1-0.9-0.1-1.9-0.6-2.6c0.4-0.4,0.8-0.9,1-1.4
		c0.1-0.1,0.1-0.2,0.1-0.3c0.1,0.1,0.1,0.1,0.2,0.2c0.4,0.6,0.6,1.3,0.4,2c-0.1,0.2,0,0.4,0.1,0.6c0.1,0.1,0.4,0.3,0.6,0.3
		c0.7-0.1,1.4,0.2,1.9,0.8c0.5,0.6,0.6,1.4,0.4,2.1c-0.1,0.2,0,0.5,0.1,0.6c0.1,0.2,0.4,0.3,0.6,0.3c0.8-0.1,1.5,0.2,2,0.8
		c0.4,0.4,0.6,1,0.5,1.7c-0.1,0.6-0.4,1.1-0.8,1.5c-0.4,0.4-1,0.6-1.6,0.5c-0.4,0-0.7,0.3-0.8,0.6c-0.1,0.6-0.4,1.1-0.8,1.4
		c-0.4,0.4-1,0.6-1.6,0.5c-0.4,0-0.7,0.3-0.8,0.6c-0.1,0.6-0.4,1.1-0.8,1.4c0,0,0,0-0.1,0C-223.8,433.7-224.3,433.8-224.8,433.8
		C-224.7,433.8-224.8,433.8-224.8,433.8z M-237.1,421.2c-0.2-0.3-0.6-0.4-1-0.1c-0.5,0.4-1,0.5-1.7,0.4c-1.2-0.1-2.1-1.3-1.9-2.5
		c0.1-0.7,0.6-1.4,1.3-1.7c0.2-0.1,0.4-0.3,0.4-0.6c0-0.2-0.1-0.5-0.2-0.6c-0.6-0.5-0.9-1.2-0.7-2c0.1-0.7,0.6-1.3,1.2-1.7
		c0.2-0.1,0.4-0.3,0.4-0.5s-0.1-0.4-0.2-0.6c-0.6-0.6-0.9-1.3-0.7-2c0.1-1.2,1.3-2.1,2.5-1.9c0.6,0.1,1.1,0.4,1.4,0.9
		c0.2,0.3,0.6,0.4,1,0.1c0.5-0.4,1-0.5,1.7-0.4c0.6,0.1,1.1,0.4,1.4,0.9c0.2,0.3,0.6,0.4,1,0.1c0.5-0.4,1-0.5,1.7-0.4
		c0.6,0.1,1.1,0.4,1.4,0.9c0.2,0.3,0.6,0.4,1,0.1c0.5-0.4,1-0.5,1.7-0.4c0.6,0.1,1.1,0.4,1.4,0.9c0.4,0.5,0.5,1.1,0.4,1.7
		c-0.1,0.7-0.6,1.3-1.2,1.7c-0.2,0.1-0.4,0.3-0.4,0.5s0.1,0.4,0.2,0.6c0.1,0.1,0.3,0.3,0.4,0.5c0.1,0.1,0.1,0.2,0.1,0.3
		c0.1,0.2,0.1,0.5,0.1,0.7c0,0.1,0,0.3,0,0.4c0,0.1-0.1,0.2-0.1,0.3c-0.1,0.2-0.1,0.4-0.2,0.5c-0.2,0.4-0.6,0.7-1,0.9
		c-0.2,0.1-0.4,0.3-0.4,0.6c0,0.2,0.1,0.5,0.2,0.6c0.6,0.5,0.9,1.2,0.7,2c-0.1,0.3-0.1,0.6-0.3,0.8c-0.3,0.5-0.7,0.9-1.2,1
		c-0.3,0.1-0.6,0.1-1,0.1c-0.6-0.1-1.1-0.4-1.4-0.9c-0.1-0.2-0.4-0.3-0.6-0.3c-0.1,0-0.3,0.1-0.4,0.1c-0.5,0.4-1,0.5-1.7,0.4
		c-0.2,0-0.4-0.1-0.6-0.2c-0.2-0.1-0.4-0.2-0.6-0.4c-0.1-0.1-0.1-0.1-0.2-0.2c-0.1-0.1-0.2-0.2-0.4-0.2c-0.2-0.1-0.4-0.1-0.6,0.1
		c-0.5,0.4-1,0.5-1.7,0.4C-236.3,421.9-236.8,421.6-237.1,421.2z M-192.5,433.9c0,2.5-2,4.5-4.5,4.5h-21.7c-2.2,0-3.9-1.5-4.4-3.4
		c0.3-0.1,0.6-0.3,0.9-0.5c0.6-0.5,0.9-1.1,1.1-1.8c0.7-0.1,1.4-0.4,1.9-0.8c0.6-0.5,0.9-1.1,1.1-1.8c0.7-0.1,1.4-0.4,1.9-0.8
		c0.7-0.6,1.2-1.5,1.3-2.5c0.1-1-0.2-1.9-0.9-2.7c-0.6-0.7-1.4-1.1-2.3-1.3c0.1-0.9-0.2-1.8-0.9-2.5c-0.6-0.7-1.4-1.1-2.2-1.3
		c0-0.9-0.3-1.7-0.9-2.4c-0.4-0.4-0.7-0.7-1.2-0.9c0-0.1-0.1-0.4-0.1-0.5h30.6v18.7H-192.5z M-188.1,429.4h-3v-8.6h3
		c2.4,0,4.3,1.9,4.3,4.3C-183.8,427.5-185.7,429.4-188.1,429.4z"/>
	<path d="M-217.6,408.4c0.4,0,0.7-0.3,0.7-0.7v-8.3c0-0.4-0.3-0.7-0.7-0.7c-0.4,0-0.7,0.3-0.7,0.7v8.3
		C-218.3,408-218,408.4-217.6,408.4z"/>
	<path d="M-207.8,408.3c0.4,0,0.7-0.3,0.7-0.7v-8.2c0-0.4-0.3-0.7-0.7-0.7s-0.7,0.3-0.7,0.7v8.3C-208.5,408-208.2,408.3-207.8,408.3
		z"/>
	<path d="M-198.1,408.4c0.4,0,0.7-0.3,0.7-0.7v-8.3c0-0.4-0.3-0.7-0.7-0.7c-0.4,0-0.7,0.3-0.7,0.7v8.3
		C-198.9,408-198.5,408.4-198.1,408.4z"/>
	<path d="M-190.3,441.7h-35.3c-0.4,0-0.7,0.3-0.7,0.7c0,0.4,0.3,0.7,0.7,0.7h35.3c0.4,0,0.7-0.3,0.7-0.7
		C-189.6,442-190,441.7-190.3,441.7z"/>
	<circle cx="-226.8" cy="429.9" r="1.1"/>
	<circle cx="-229.5" cy="426.6" r="1.1"/>
	<path d="M-222,427.5c0.5-0.4,0.6-1.1,0.1-1.7c-0.4-0.4-1-0.6-1.4-0.3c-0.1,0.1-0.1,0.1-0.2,0.1c-0.5,0.4-0.6,1.1-0.1,1.7
		c0.1,0.1,0.2,0.2,0.4,0.3C-222.8,427.8-222.3,427.8-222,427.5z"/>
	<circle cx="-235.6" cy="417.1" r="1.1"/>
	<circle cx="-235" cy="412.8" r="1.1"/>
	<path d="M-230.5,419C-230.5,419-230.4,419-230.5,419c0.6,0.1,1.1-0.4,1.3-0.9c0-0.1,0-0.1,0-0.1c0.1-0.6-0.4-1.2-1-1.4
		c-0.6-0.1-1.2,0.4-1.4,1C-231.6,418.3-231.2,419-230.5,419z"/>
	<circle cx="-229.7" cy="413.6" r="1.1"/>
</g>
</svg>
