<?xml version="1.0" encoding="utf-8"?>
<!-- Generator: Adobe Illustrator 19.0.0, SVG Export Plug-In . SVG Version: 6.00 Build 0)  -->
<svg version="1.1" id="Layer_1" xmlns="http://www.w3.org/2000/svg" xmlns:xlink="http://www.w3.org/1999/xlink" x="0px" y="0px"
	 viewBox="266 381.4 80 80" style="enable-background:new 266 381.4 80 80;" xml:space="preserve">
<g>
	<path d="M276.9,401.9h58.3c0.7,0,1.5,0.3,2,0.8c0.4,0.5,0.7,1.3,0.7,2v33.3c0,0.7-0.3,1.5-0.7,2c-0.5,0.4-1.3,0.8-2,0.8h-58.3
		c-0.7,0-1.5-0.4-2-0.8c-0.5-0.5-0.8-1.3-0.8-2v-33.3c0-0.7,0.3-1.5,0.8-2S276.1,401.9,276.9,401.9z M335.2,404h-58.3
		c-0.2,0-0.4,0.1-0.5,0.2s-0.2,0.3-0.2,0.5v33.3c0,0.1,0.1,0.3,0.2,0.4c0.1,0.2,0.3,0.3,0.5,0.3h58.3c0.1,0,0.3-0.1,0.4-0.3
		c0.2-0.1,0.2-0.3,0.2-0.4v-33.3c0-0.2,0-0.4-0.2-0.5C335.5,404.1,335.3,404,335.2,404z"/>
	<rect x="275.1" y="409.2" width="61.9" height="8.8"/>
	<rect x="279.3" y="433.4" width="24.3" height="2.3"/>
	<path d="M275.2,409.6h61.7h1.1v1.1v5.8v1.1h-1.1h-61.7h-1.1v-1.1v-5.8v-1.1H275.2z M335.9,411.7h-59.6v3.7h59.6V411.7z"/>
</g>
</svg>
