<?xml version="1.0" encoding="utf-8"?>
<!-- Generator: Adobe Illustrator 19.0.0, SVG Export Plug-In . SVG Version: 6.00 Build 0)  -->
<svg version="1.1" id="Layer_1" xmlns="http://www.w3.org/2000/svg" xmlns:xlink="http://www.w3.org/1999/xlink" x="0px" y="0px"
	 viewBox="7198 380.4 80 80" style="enable-background:new 7198 380.4 80 80;" xml:space="preserve">
<g>
	<path d="M7206.7,399h63.4v4c0,2.7-2.2,5-5,5h-3.7v10.3c0,12.9-10.5,23.4-23.4,23.4s-23.4-10.5-23.4-23.4V408h-3.7c-2.7,0-5-2.2-5-5
		v-4H7206.7z M7260,408H7216v10.3c0,12.1,9.9,22,22,22s22-9.9,22-22V408z M7268.6,400.5h-61.2c0,2.6-0.2,6.1,3.5,6.1h54.2
		C7268.8,406.6,7268.6,403,7268.6,400.5z"/>
	<path d="M7238,422.6c4,0,7.3,3.3,7.3,7.3c0,4-3.3,7.3-7.3,7.3s-7.3-3.3-7.3-7.3C7230.7,425.9,7234,422.6,7238,422.6z M7242.2,425.8
		c-2.3-2.3-6-2.3-8.3,0c-2.3,2.3-2.3,6,0,8.3c2.3,2.3,6,2.3,8.3,0C7244.5,431.8,7244.5,428.1,7242.2,425.8z"/>
	<path d="M7238,425.1c2.7,0,4.9,2.2,4.9,4.9c0,2.7-2.2,4.9-4.9,4.9s-4.9-2.2-4.9-4.9C7233.1,427.2,7235.3,425.1,7238,425.1z
		 M7240.4,427.5c-2.2-2.2-5.9-0.6-5.9,2.4c0,3.1,3.7,4.6,5.9,2.4C7241.8,431,7241.8,428.8,7240.4,427.5z"/>
</g>
</svg>
