<?xml version="1.0" encoding="utf-8"?>
<!-- Generator: Adobe Illustrator 19.0.0, SVG Export Plug-In . SVG Version: 6.00 Build 0)  -->
<svg version="1.1" id="Layer_1" xmlns="http://www.w3.org/2000/svg" xmlns:xlink="http://www.w3.org/1999/xlink" x="0px" y="0px"
	 viewBox="-461 157.8 80 80" style="enable-background:new -461 157.8 80 80;" xml:space="preserve">
<style type="text/css">
	.st0{display:none;}
	.st1{display:inline;}
	.st2{stroke:#FF0F0F;stroke-linecap:round;stroke-linejoin:round;stroke-miterlimit:10;}
</style>
<g class="st0">
	<g class="st1">
		<rect x="-258" y="387.9" class="st2" width="50" height="50"/>
	</g>
</g>
<g>
	<g>
		<path d="M-396,221.8h-2v-49c0-0.6-0.4-1-1-1h-44c-0.6,0-1,0.4-1,1v49h-2c-0.6,0-1,0.4-1,1s0.4,1,1,1h3h8h28h8h3c0.6,0,1-0.4,1-1
			S-395.4,221.8-396,221.8z M-434,221.8v-36h12v36H-434z M-420,221.8v-36h12v36H-420z M-406,221.8v-37c0-0.6-0.4-1-1-1h-28
			c-0.6,0-1,0.4-1,1v37h-6v-48h42v48H-406z"/>
		<path d="M-419,175.8h-4c-0.6,0-1,0.4-1,1v4c0,0.6,0.4,1,1,1h4c0.6,0,1-0.4,1-1v-4C-418,176.2-418.4,175.8-419,175.8z M-420,179.8
			h-2v-2h2V179.8z"/>
		<circle cx="-403" cy="201.8" r="1"/>
		<circle cx="-403" cy="205.8" r="1"/>
	</g>
</g>
</svg>
