<?xml version="1.0" encoding="utf-8"?>
<!-- Generator: Adobe Illustrator 19.0.0, SVG Export Plug-In . SVG Version: 6.00 Build 0)  -->
<svg version="1.1" id="Layer_1" xmlns="http://www.w3.org/2000/svg" xmlns:xlink="http://www.w3.org/1999/xlink" x="0px" y="0px"
	 viewBox="667.8 380.4 80 80" style="enable-background:new 667.8 380.4 80 80;" xml:space="preserve">
<style type="text/css">
	.st0{display:none;fill:none;stroke:#000000;stroke-width:16;stroke-miterlimit:10;}
	.st1{fill:none;stroke:#000000;stroke-miterlimit:10;}
</style>
<path class="st0" d="M729.6-292.2v316h385v-316H729.6z M807.6-23.2c0,6.6-5.4,12-12,12h-4c-6.6,0-12-5.4-12-12v-166
	c0-6.6,5.4-12,12-12h4c6.6,0,12,5.4,12,12V-23.2z M729.6,48.8v622h12v15.4c0,3.9,2.8,6.6,6.7,6.6h16c3.9,0,7.3-2.8,7.3-6.6v-15.4
	h300v15.4c0,3.9,2.8,6.6,6.7,6.6h16c3.9,0,7.3-2.8,7.3-6.6v-15.4h13v-622L729.6,48.8L729.6,48.8z M807.6,393.8c0,6.6-5.4,12-12,12
	h-4c-6.6,0-12-5.4-12-12v-306c0-6.6,5.4-12,12-12h4c6.6,0,12,5.4,12,12V393.8z M875.1,86c0,5.3-4.3,9.6-9.6,9.6s-9.6-4.3-9.6-9.6
	s4.3-9.6,9.6-9.6S875.1,80.7,875.1,86z"/>
<path class="st0" d="M692.6-288.2v945h14V679c0,5.9,3.5,10.8,8.1,10.8h19.1c4.6,0,8.8-4.9,8.8-10.8v-22.2h358V679
	c0,5.9,3.1,10.8,7.7,10.8h19.1c4.6,0,8.2-4.9,8.2-10.8v-22.2h16v-945L692.6-288.2L692.6-288.2z M774.6,83.5
	c0,7.9-6.4,14.3-14.3,14.3h-4.4c-7.9,0-14.3-6.4-14.3-14.3v-305.4c0-7.9,6.4-14.3,14.3-14.3h4.4c7.9,0,14.3,6.4,14.3,14.3V83.5z
	 M769,158.4c0,6.4-5.2,11.5-11.5,11.5c-6.4,0-11.5-5.2-11.5-11.5s5.2-11.5,11.5-11.5S769,152.1,769,158.4z"/>
<path class="st0" d="M464.7,44.8h916c0,0,21.1,1,24.1,34c0,0,16.5,129.3-12,252.3c0,0-6.1,25.8-32,25.8H476.7c0,0-22.9,4-28.9-29
	c0,0-24-68.7-9-260.7C438.9,67.1,442.6,44.8,464.7,44.8z M450.6,227.8h944 M1314.2,356.4c17-23,16-50.6,16-50.6h-817
	c3,40,15,50.7,15,50.7 M1006.6,253.8c0-2.2-1.8-4-4-4h-160c-2.2,0-4,1.8-4,4v20c0,2.2,1.8,4,4,4h160c2.2,0,4-1.8,4-4V253.8z"/>
<path class="st0" d="M1415.6,500.8c0,12.2-9.8,22-22,22h-943c-12.1,0-22-9.8-22-22v-601c0-12.1,9.9-22,22-22h943
	c12.2,0,22,9.9,22,22V500.8z M1370.6,362.8c0-9.9-8.1-18-18-18h-201c-9.9,0-18,8.1-18,18v87c0,9.9,8.1,18,18,18h201
	c9.9,0,18-8.1,18-18V362.8z M1079.6-59.2c0-9.9-8.1-18-18-18h-566c-9.9,0-18,8.1-18,18v510c0,9.9,8.1,18,18,18h566
	c9.9,0,18-8.1,18-18V-59.2z M1370.6-59.7c0-9.7-8.1-17.5-18-17.5h-201c-9.9,0-18,7.8-18,17.5v323c0,9.7,8.1,17.5,18,17.5h201
	c9.9,0,18-7.8,18-17.5V-59.7z M1172.6,198.8h158 M1172.6,98.8h158 M1172.6-0.2h158 M1288.6,387.8h-116v36h116V387.8z M839.8,220.6
	c102,62,106,46,106,46c57-6,11-115,11-115c-34-71-133,17-133,17L839.8,220.6z M732.3,223.8c0,0-99,88-133,17c0,0-46-109,11-115
	c0,0,4-16,106,46L732.3,223.8z M802.5,134.5c62-102,46-106,46-106c-6-57-115-11-115-11c-71,34,17,133,17,133L802.5,134.5z
	 M805.7,241.9c0,0,88,99,17,133c0,0-109,46-115-11c0,0-16-4,46-106L805.7,241.9z M778.4,172.2c-13.3,0-24,10.7-24,24s10.7,24,24,24
	s24-10.7,24-24S791.7,172.2,778.4,172.2z"/>
<path class="st0" d="M1266.6,444.8h-690v-710.6c0-17.7,15-31.4,32.7-31.4h626c17.7,0,31.3,13.7,31.3,31.4L1266.6,444.8L1266.6,444.8
	z M1265.2,444.8h-62c0,0-6,52.5-110,55.7c-104,12-247.8,7.7-350,2.2c-94-8-104-57.8-104-57.8h-62l26,221c0,17.7,14.3,32,32,32h568
	c17.7,0,32-14.3,32-32L1265.2,444.8z M920.6-141.5c-149.7,0-271,121.3-271,271s121.3,271,271,271s271-121.3,271-271
	C1191.6-20.1,1070.3-141.5,920.6-141.5z M827.5-273.9c-17.7,0-32,6.7-32,15c0,8.3,14.3,15,32,15s32-6.7,32-15
	C859.5-267.1,845.2-273.9,827.5-273.9z M953.5-258.9c0,8.3-14.3,15-32,15s-32-6.7-32-15c0-8.3,14.3-15,32-15
	S953.5-267.1,953.5-258.9z M1047.5-258.9c0,8.3-14.3,15-32,15c-17.7,0-32-6.7-32-15c0-8.3,14.3-15,32-15
	C1033.2-273.9,1047.5-267.1,1047.5-258.9z M982,153.9c102,62,106,46,106,46c57-6,11-115,11-115c-34-71-133,17-133,17L982,153.9z
	 M874.5,157.1c0,0-99,88-133,17c0,0-46-109,11-115c0,0,4-16,106,46L874.5,157.1z M944.7,67.8c62-102,46-106,46-106
	c-6-57-115-11-115-11c-71,34,17,133,17,133L944.7,67.8z M947.8,175.3c0,0,88,99,17,133c0,0-109,46-115-11c0,0-16-4,46-106
	L947.8,175.3z M920.6,105.5c-13.3,0-24,10.7-24,24s10.7,24,24,24s24-10.7,24-24S933.8,105.5,920.6,105.5z M932.6,548.2
	c0-6.3-5.1-11.4-11.4-11.4H921c-6.3,0-11.4,5.1-11.4,11.4v94.2c0,6.3,5.1,11.4,11.4,11.4h0.2c6.3,0,11.4-5.1,11.4-11.4L932.6,548.2
	L932.6,548.2z"/>
<path class="st0" d="M1071.6,392.8h-300v-629.1c0-26.5,23-46.9,49.5-46.9h204c26.5,0,46.5,20.3,46.5,46.9V392.8L1071.6,392.8z
	 M1071,392.8H773l11,211c0,12.2,10.8,23,23,23h232c12.2,0,21-10.8,21-23L1071,392.8z M827.6,648.7c0-7.7-6.2-13.9-13.9-13.9h-0.2
	c-7.7,0-13.9,6.2-13.9,13.9v22.2c0,7.7,6.2,13.9,13.9,13.9h0.2c7.7,0,13.9-6.2,13.9-13.9V648.7z M1043.6,670.9
	c0,7.7-6.2,13.9-13.9,13.9h-0.2c-7.7,0-13.9-6.2-13.9-13.9v-22.2c0-7.7,6.2-13.9,13.9-13.9h0.2c7.7,0,13.9,6.2,13.9,13.9V670.9z
	 M1036.6-235.2h-230v374h230V-235.2z M922,175.6c-23.2,0-42,5.1-42,11.5s18.8,11.5,42,11.5s42-5.1,42-11.5S945.2,175.6,922,175.6z
	 M936.6,450.3c0-8-6.5-14.5-14.5-14.5l0,0c-8,0-14.5,6.5-14.5,14.5v140c0,8,6.5,14.5,14.5,14.5l0,0c8,0,14.5-6.5,14.5-14.5V450.3z
	 M847.6-210.2v322 M897.6-210.2v322 M996.6-210.2v322 M946.6-209.2v322"/>
<path class="st0" d="M1400.7,427.6h-958v-466h958V427.6z M544.1,427.6h-24.8v12h24.8V427.6z M1317.3,427.6h-24.2v12h24.2V427.6z
	 M515.5,15.6c0,0-37.1,212.5,12.5,346h634.4c0,0,50.6-196.3,0-346L515.5,15.6L515.5,15.6z M1359.2,13.6h-118v58h118V13.6z
	 M1300.2,186.6c-14.8,0-26.8,12-26.8,26.8s12,26.8,26.8,26.8s26.8-12,26.8-26.8S1314.9,186.6,1300.2,186.6z M1234.1,109.6h132
	 M1234.1,148.6h132 M1234.1,280.6h132 M1234.1,320.6h132 M1234.1,360.6h132"/>
<path class="st0" d="M1416.5,465.6H427v-601.8h989.5V465.6z M951.6,465.6H892v49.1h59.6V465.6z M891.9,497.1H733.1l-25,40.4h427.2
	l-25-40.4H951.6 M1376.5-96.2H467v521.8h909.5V-96.2z"/>
<path class="st0" d="M1266.7,671.6h-690v-942h690V671.6z M1236.8-240.9H608.7v111.1h628.1V-240.9L1236.8-240.9z M1159.8-211.4
	c-14.4,0-26.1,11.7-26.1,26.1c0,14.4,11.7,26.1,26.1,26.1c14.4,0,26.1-11.7,26.1-26.1C1185.8-199.7,1174.2-211.4,1159.8-211.4z
	 M930.2-52.5c-150.8,0-273,112.5-273,251.2s122.2,251.2,273,251.2s273-112.5,273-251.2S1081-52.5,930.2-52.5z M930.2,9.6
	c-113.5,0-205.5,84.7-205.5,189.1s92,189.1,205.5,189.1s205.5-84.7,205.5-189.1S1043.7,9.6,930.2,9.6z M1051.8-211.4
	c-14.4,0-26.1,11.7-26.1,26.1c0,14.4,11.7,26.1,26.1,26.1c14.4,0,26.1-11.7,26.1-26.1C1077.9-199.7,1066.2-211.4,1051.8-211.4z
	 M1135.7,198.7c-76.9-71.3-115.2-27.7-142.2-14.2c-27,13.6-60,58.4-147,14.2S724.7,228,724.7,228 M576.7,535.2h690"/>
<path class="st0" d="M1409.6,517.8c0,12.2-9.8,22-22,22h-403c-12.2,0-22-9.8-22-22v-635c0-12.1,9.8-22,22-22h403
	c12.2,0,22,9.9,22,22V517.8z M1185.9,91.8c-88.7,0-160.5,71.9-160.5,160.5c0,88.7,71.9,160.5,160.5,160.5s160.5-71.9,160.5-160.5
	C1346.5,163.7,1274.6,91.8,1185.9,91.8z M1185.9,198.3c-29.8,0-54,24.2-54,54s24.2,54,54,54s54-24.2,54-54
	S1215.8,198.3,1185.9,198.3z M1185.9-86.1c-36.5,0-66,29.6-66,66s29.6,66,66,66s66-29.6,66-66S1222.4-86.1,1185.9-86.1z
	 M1025.6,472.8h321 M880.6,517.8c0,12.2-9.9,22-22,22h-403c-12.1,0-22-9.8-22-22v-635c0-12.1,9.9-22,22-22h403c12.1,0,22,9.9,22,22
	V517.8z M656.9,91.8c-88.6,0-160.5,71.9-160.5,160.5c0,88.7,71.9,160.5,160.5,160.5s160.5-71.9,160.5-160.5
	C817.5,163.7,745.6,91.8,656.9,91.8z M656.9,198.3c-29.8,0-54,24.2-54,54s24.2,54,54,54c29.8,0,54-24.2,54-54
	S686.8,198.3,656.9,198.3z M656.9-86.1c-36.5,0-66,29.6-66,66s29.6,66,66,66c36.4,0,66-29.6,66-66S693.4-86.1,656.9-86.1z
	 M496.6,472.8h321"/>
<path class="st0" d="M1247.6,78.9c0,168.7-128.2,307.5-292.5,324.2c-11,1.1-22.1,1.7-33.4,1.7c-11.3,0-22.6-0.6-33.6-1.7
	C723.9,386.2,595.9,247.5,595.9,78.9c0-180,145.9-325.9,325.8-325.9C1101.7-247,1247.6-101.1,1247.6,78.9z M1166.7,90.1
	c-23.5,116.5-84.1,90.8-96.7,80.9c-12.6-9.9-28.4-35.8-38.4-45.6c-8.1-7.9-19.5-15.9-25.8-18.2c2.6-8.3,4-17.2,4-26.3
	c0-44.8-33.5-81.8-76.8-87.3c12.8-12.4,132.6-124.7,204.7-73.4C1137.7-79.8,1190.2-26.4,1166.7,90.1z M988.8,137.8
	c-16.1,19-40.2,31-67,31c-26.2,0-49.8-11.5-65.9-29.7c-1.6,4.1-17.7,11.9-30.9,15.5c-13.5,3.7-43.8,4.1-58.8,10s-67.8,45,20.7,124.4
	c88.5,79.3,161.2,61.2,161.2,61.2C1027,314.9,994.2,160.7,988.8,137.8z M918.1-105.9c1.3-16-10.5-80.8-120.7-36.2
	c-110.3,44.5-126,117.7-126,117.7c-2.9,80.1,128,119,165.6,128.5c-2-7.4-3.1-15.2-3.1-23.3c0-40.6,27.5-74.7,64.8-84.9
	c2.3-5.8,3.5-9.4,3-9.9c-3.1-2.7-3.1-21-0.5-34.8C903.8-62.5,916.8-89.9,918.1-105.9z M933-6.4c-3.7-0.5-7.4-0.7-11.2-0.7
	c-8,0-15.8,1.1-23.2,3.1c-37.3,10.2-64.8,44.3-64.8,84.9c0,8,1.1,15.9,3.1,23.3c3.6,13.1,10.1,25.1,18.9,35
	c16.1,18.2,39.7,29.7,65.9,29.7c26.9,0,50.9-12,67-31c7.5-8.9,13.4-19.3,16.9-30.6c2.6-8.3,4-17.2,4-26.3
	C1009.8,36,976.3-0.9,933-6.4z M922.2,404.7c-11.4,0-22.6-0.6-33.6-1.7v164.8h67V403C944.6,404.2,933.4,404.7,922.2,404.7z
	 M1061.7,625.8c0,12.2-9.8,22-22,22h-236c-12.1,0-22-9.9-22-22l20-73.4c0-12.2,9.9-21.6,22-21.6h64.8v37h67v-37h64.2
	c12.2,0,22,9.5,22,21.6L1061.7,625.8z M847.6,602.8h150"/>
<path class="st0" d="M472.7,381.8c0,0,169-252.6,281-324.6s282-98.3,462-82.3l134,358.5c0,0-110-11.5-128,48.5L472.7,381.8
	L472.7,381.8z M1221.6,417.8c0-6.1-9.8-11-22-11h-727c-12.1,0-22,4.9-22,11v4c0,6.1,9.9,11,22,11h727c12.2,0,22-4.9,22-11V417.8z
	 M989.6,207.8h-90c-9.3,0-17-7.8-17-17.1v-0.3c0-9.3,7.7-16.6,17-16.6h126.3c9.3,0,16.7,7.3,16.7,16.6v0.3c0,3.2-0.9,6.3-2.4,8.9
	 M1117.7,169.6c0,0,62-59-22-94s-259.5,28-259.5,28s-54.5,21-49.5,66s49.5,43.3,49.5,43.3C1069.4,219.2,1117.7,169.6,1117.7,169.6z
	 M1283.2,0.6c-8.5-22.6-27.9-36.3-43.2-30.5l0,0l136.5,363.1l0,0c15.4-5.8,20.9-28.8,12.4-51.5L1283.2,0.6z"/>
<path class="st0" d="M563.6-223.2c0,0,0-58,67.5-58h159c47.2,0,67.5,20,67.5,58H563.6z M859.6-190.2h-298V-6.4
	c0,52.7,26.8,99.1,66.4,125.5h166.9c38-26.8,64.7-74.1,64.7-125.6V-190.2L859.6-190.2z M865.6,200.7c-6.7-35.7-36.5-55.9-73-55.9
	h-174c-36.5,0-68,17.6-73,55.9l-53,382c0,36.5,29.5,66,66,66h304c36.5,0,66-29.6,66-66L865.6,200.7z M710.6,444.5
	c-29,0-52.5,23.5-52.5,52.5c0,29,23.5,52.5,52.5,52.5s52.5-23.5,52.5-52.5C763.2,468,739.6,444.5,710.6,444.5z M886.8-190.2h-27.3
	v60h23.3c13.8,0,24.7,11,24.7,24.9v131c0,5,2.4,9.5,6.1,12.7c3.7,3.3,8.9,5.3,14.6,5.3c9.3,0,17.1-5.5,19.6-13
	c0.5-3.3,0.7-6.6,0.7-10v-149C948.6-162.6,921.1-190.2,886.8-190.2z M1267.6,230.8c0-33-18-51-59.7-51h-140.6
	c-59.7,0-59.7,51-59.7,51H1267.6z M1271.6,259.8h-263v163c0,46.6,23.5,87.6,58.5,111h147.4c33.6-23.7,57-65.5,57-111L1271.6,259.8
	L1271.6,259.8z M1296,259.8h-24.5v54h20.9c12.2,0,22.1,9.3,22.1,21.5v115.8c0,4.4,2.1,8.4,5.3,11.3c3.3,2.9,7.8,4.7,12.8,4.7
	c8.3,0,15.1-4.9,17.3-11.5c0.5-2.9,0.6-5.8,0.6-8.8V314.9C1350.6,284.6,1326.3,259.8,1296,259.8z M1207.6,558.8h-135v56h135V558.8z
	 M559.6,648.8v15.9c0,9.9,8.1,18.1,18.1,18.1h60c9.9,0,17.9-8.2,17.9-18.1v-15.9H559.6z M862.6,648.8v15.9c0,9.9-8,18.1-17.9,18.1
	h-60c-9.9,0-18.1-8.2-18.1-18.1v-15.9H862.6z"/>
<path class="st0" d="M1217.6,554.8v42H542.7l21-428h225.8v304.4c0,45.3,36.9,81.6,82.2,81.6H1217.6z M542.7,596.8
	c0,27,21.5,48,48,48h579c26.5,0,48-21,48-48H542.7z M513.7-244.2l50,413h225.8v-56.6c0-33.7,27.5-61.4,61.2-61.4h355l50-295H513.7z
	 M884.7,52L884.7,52c0,30.4,24.6,54.8,55,54.8h166c30.4,0,55-24.5,55-54.9l0,0 M998.7,106.7L998.7,106.7c0,11,9,20.1,20,20.1h8
	c11,0,20-9.4,20-20.4l0,0 M1191.6,231.8h-334 M1208.6,456.8h48.2c21.5,0,39-17.3,39-38.8l-10-147.1c0-21.5-17.5-39.1-39-39.1h-55.2
	 M695.6-167.2c0-7.7-6.3-14-14-14l0,0c-7.7,0-14,6.3-14,14v260c0,7.7,6.3,14,14,14l0,0c7.7,0,14-6.3,14-14V-167.2z M1208.6,491.8
	h60.2c33.7,0,61-27.1,61-60.8l-12-172.1c0-33.7-27.3-61.1-61-61.1h-71.2 M1190.7,218c0-21.5-17.5-39.2-39-39.2H829.3l-10.5,27.8
	l38.3,23.7l-19.4,276.6c0,21.5,17.5,38.9,39,38.9h295c21.5,0,39-17.4,39-38.9L1190.7,218z"/>
<path class="st0" d="M1335.1,395.7c-13-5.5-27.2-8.5-42.2-8.5c-60.1,0-108.9,48.8-108.9,108.9c0,34.2,15.8,64.7,40.4,84.7H926.6
	c-59.1,0-118.8-17.4-125.1-66c-2.1-16.2,1.8-35.8,13.6-59.4c9.2-18.4,23.2-39.3,43-62.8c143.8-170.5,415.5-148.5,415.5-148.5
	C1345.8,243.8,1350.5,317.3,1335.1,395.7z M1335.1,395.7c-13-5.5-27.2-8.5-42.2-8.5c-60.1,0-108.9,48.7-108.9,108.9
	c0,34.2,15.8,64.7,40.4,84.7c18.7,15.1,42.5,24.2,68.4,24.2c60.1,0,108.9-48.7,108.9-108.8C1401.8,450.9,1374.3,412.2,1335.1,395.7z
	 M1217.9,200.3c3.3-42.5,75.4-237.7-37.1-332.7C953-324.8,784.1-66.6,784.1-66.6L576,534.9 M1253.6,242.8v-48h-70v48 M708.9,534.8
	H448.3l-6.6,33h260.6L708.9,534.8z M1019,455.8H815.1c-11.8,24-15.7,43-13.6,59H1019c16.4,0,29.7-13.1,29.7-29.5
	S1035.4,455.8,1019,455.8z"/>
<path class="st0" d="M1415.5,520.2c0,24.3-19.7,44.6-44,44.6h-899c-24.3,0-44-20.3-44-44.6l120-658.7c0-24.3,19.7-43.7,44-43.7h649
	c24.3,0,44,19.4,44,43.7L1415.5,520.2z M922-120.4c-142.5,0-258,71.8-258,160.3s115.5,160.3,258,160.3s258-71.8,258-160.3
	S1064.5-120.4,922-120.4z M1324,335.8H520l-30,160h864L1324,335.8z M997.6,395.8h-152v56h152V395.8z M623.5,564.8
	c-0.5,10-9.2,19-19.9,19h-4.2c-10.7,0-19.4-9-19.9-19H623.5z M1263.5,564.8c-0.5,10-9.2,19-19.9,19h-4.2c-10.7,0-19.4-9-19.9-19
	H1263.5z M922-76.4c-103.4,0-187.2,52.1-187.2,116.3S818.6,156.2,922,156.2s187.2-52.1,187.2-116.3S1025.4-76.4,922-76.4z"/>
<path class="st0" d="M986.4-100.1c0,0,23.9,28.4,23.9,62.9c0,0-3,145.2-24,248.8c0,0-10.2,30.5-25.5,57.6c0,0-5.6,10.5-12,33.5
	h-50.6c0,0-3.4-14.3-15.4-32.3c0,0-24-39.4-27-58.8c0,0-19.5-93-22.5-252c0,0,0-31.2,19.5-59.8c0,0,25.5-57.2,13.5-103.7
	c0,0-15-24-6-37.5c0,0,10.4-19.6,61.5-19.5c0,0,59.9-3,62.9,24c0,0,1.5,12-10.5,37.5C974.2-199.3,963.5-150.6,986.4-100.1z
	 M947.6,302.8h-50v267h50V302.8z M944.2,569.8h-45l-60,59.8l-0.5,16.2h0.2c0.8,9,8.7,16.2,18.2,16.2s17.4-7.2,18.2-16.2H903
	c0.8,9,8.7,16.2,18.2,16.2s17.4-7.2,18.2-16.2H967c0.8,9,8.7,16.2,18.2,16.2s17.4-7.2,18.2-16.2h0.6l0.2-16.2L944.2,569.8z
	 M921.7-181.3c-14.6,0-26.5,11.8-26.5,26.5c0,14.6,11.8,26.5,26.5,26.5c14.6,0,26.5-11.8,26.5-26.5S936.3-181.3,921.7-181.3z
	 M921.7-94.3c-14.6,0-26.5,11.8-26.5,26.5s11.8,26.5,26.5,26.5c14.6,0,26.5-11.8,26.5-26.5S936.3-94.3,921.7-94.3z"/>
<path class="st1" d="M725,398.4h-34.6v0c0-3,2.4-5.4,5.4-5.4h23.8C722.6,392.9,725,395.4,725,398.4L725,398.4L725,398.4z M725,401.7
	h-34.6v30.7H725V401.7z M690.5,435.6L690.5,435.6c0,3.1,2.4,5.4,5.4,5.4h1.7c0,2,1.6,3.5,3.5,3.5h13.3c1.9,0,3.5-1.5,3.5-3.5h1.7
	c3,0,5.4-2.4,5.4-5.4v-0.1H690.5z M704.9,444.5h-2.5v3.4h2.5V444.5z M713,447.9h-2.5v-3.4h2.5V447.9z M704.8,441.2c0,0.6-0.5,1-1,1
	l0,0c-0.6,0-1-0.5-1-1l0,0c0-0.6,0.5-1,1-1l0,0C704.3,440.1,704.8,440.6,704.8,441.2L704.8,441.2z M712.8,441.2c0,0.6-0.5,1-1,1l0,0
	c-0.6,0-1-0.5-1-1l0,0c0-0.6,0.5-1,1-1l0,0C712.3,440.1,712.8,440.6,712.8,441.2L712.8,441.2z"/>
<path class="st0" d="M1287.6-169.2c0,0-49.8,310.5-47.8,784.5c0,0-23.8,38.5-95.8,58.5H700c0,0-58.2-6.5-102.2-58.5
	c0,0,3.8-318.5-36.2-784.5v-56.5c0-26.2,19.3-46.5,42.5-46.5h642c23.2,0,41.5,20.3,41.5,46.5V-169.2L1287.6-169.2z M597-176.2
	c0,0,52.8,278,47.1,566c0,0,18.8,24,66,30h416.5c0,0,43.8-4.1,69.7-26c0,0,7.5-354,54.7-570C1251-176.2,597-176.2,597-176.2z
	 M954.6,337.8c0-6.6-5.4-12-12-12h-36c-6.6,0-12,5.4-12,12v70c0,6.6,5.4,12,12,12h36c6.6,0,12-5.4,12-12V337.8z M942.6,419.8h-36v30
	h36V419.8z M923.6,325.8v-27l-83-26 M600.6,576.8h-44v42 M556.6,466.8v42h44 M1045.9-63.2h-244l-20,483h284L1045.9-63.2z"/>
<path class="st0" d="M1400,456.8c0,32-26.1,58-58.2,58H501.5c-32.2,0-58.2-26-58.2-58H1400z M1400.6,359.8h-957v97h957V359.8z
	 M1364.6,23.8h-502v336h502V23.8z M1396.5-7.2c0-32-26.1-58-58.2-58H888.4c-32.2,0-58.2,26-58.2,58H1396.5z M1185.6-69.2
	L1185.6-69.2c0-24.6-20.3-45-45-45h-54.4c-24.7,0-44.7,20-44.7,44.8 M792.6,86.1c0-34.2-28.1-62.4-62.3-62.4h-208
	c-34.2,0-61.7,28.1-61.7,62.4v273.6h332V86.1z M538.6,69.8v44 M582.6,69.8v44 M626.6,69.8v44 M670.6,69.8v44 M714.6,69.8v44"/>
<path class="st0" d="M1130.5,577.8H527c-2.1-64-2.7-123.1-2.1-177c0.5-48.3,1.9-92.8,4-133.5C538.2,90.5,561-17,579.8-78.1
	c15.5-50.6,28.3-69.3,28.3-69.3l412.2,0.1h23c5.5,12,10.7,24.5,15.6,37.5c8.2,21.6,15.5,44.3,22,67.9
	c32.2,116.2,45.6,251.8,50.5,366.4c1.5,34.3,2.2,67,2.4,96.4C1134.5,514,1130.5,577.8,1130.5,577.8z M1138.6,624.3
	c0-7.4-6-13.5-13.5-13.5H535c-7.4,0-13.5,6-13.5,13.5v32.1c0,7.4,6,13.5,13.5,13.5h590.1c7.4,0,13.5-6,13.5-13.5V624.3z
	 M983.4-211.5c-35.4-25.5-87.9-50.3-164.9-56.6v52.8H672.3c0,0-31.8,17.7-64.3,68.2l412.2-0.2h23.6
	C1043.8-147.2,1027.2-179.9,983.4-211.5z M595.6-127.2h-96.3c0,0,23.6,114.8,54.3,150.5 M1043.2-147.7c5.5,12,10.7,24.8,15.6,37.7
	c8.2,21.6,15.5,44.4,22,68l7.6,13.3c-16.2-93.7,28.1-77.7,28.1-77.7c32.6,10.9,119.7,49.8,125.9,177.2c6.2,127.5-112,216-112,216
	l4.1,116.7c0,0,98.5-23.3,170.1-163.2c71.5-139.9,37.1-284-31.1-368.1c-94.8-117-290-83.9-290-83.9 M771.6-267.2v52 M727.6-249.2v34
	"/>
<path class="st0" d="M1370.6,601.4c0,38.7-31,69.4-69.7,69.4h-39.3v-941h39.3c38.7,0,69.7,31.7,69.7,70.4V601.4z M441.6,601.4
	c0,38.7,31.6,69.4,70.3,69.4h39.7v-941h-39.7c-38.7,0-70.3,31.7-70.3,70.4C441.6-199.8,441.6,601.4,441.6,601.4z M668.6-244.3
	c0-14.3-11.6-25.9-25.9-25.9h-0.2c-14.3,0-25.9,11.6-25.9,25.9v889.2c0,14.3,11.6,25.9,25.9,25.9h0.2c14.3,0,25.9-11.6,25.9-25.9
	V-244.3z M800.6-244.3c0-14.3-11.6-25.9-25.9-25.9h-0.2c-14.3,0-25.9,11.6-25.9,25.9v889.2c0,14.3,11.6,25.9,25.9,25.9h0.2
	c14.3,0,25.9-11.6,25.9-25.9V-244.3z M931.6-244.3c0-14.3-11.6-25.9-25.9-25.9h-0.2c-14.3,0-25.9,11.6-25.9,25.9v889.2
	c0,14.3,11.6,25.9,25.9,25.9h0.2c14.3,0,25.9-11.6,25.9-25.9V-244.3z M1063.6-244.3c0-14.3-11.6-25.9-25.9-25.9h-0.2
	c-14.3,0-25.9,11.6-25.9,25.9v889.2c0,14.3,11.6,25.9,25.9,25.9h0.2c14.3,0,25.9-11.6,25.9-25.9V-244.3z M1194.6-244.3
	c0-14.3-11.6-25.9-25.9-25.9h-0.2c-14.3,0-25.9,11.6-25.9,25.9v889.2c0,14.3,11.6,25.9,25.9,25.9h0.2c14.3,0,25.9-11.6,25.9-25.9
	V-244.3z M1401.6-107.4c0-10.7-7.8-18.8-18.5-18.8h-12.5v85h12.5c10.7,0,18.5-8.8,18.5-19.5V-107.4z M1401.6,27.7
	c0-10.7-7.8-19.9-18.5-19.9h-12.5v85h12.5c10.7,0,18.5-7.8,18.5-18.4V27.7z M1401.6,528.2c0-10.7-7.8-19.4-18.5-19.4h-12.5v56h12.5
	c10.7,0,18.5-7.4,18.5-18V528.2z"/>
<path class="st0" d="M1391.6,21.5v406.4c0,89.5-72.4,161.9-162,161.9H613.9c-89.5,0-162.3-72.4-162.3-161.9V21.5
	c0-63.7,37-118.9,90-145.4V433c0,28.3,23.5,50.8,51.8,50.8h119c28.3,0,51.2-22.4,51.2-50.8v-570.5c0-1,0.1-2.7,0-3.7h466
	C1319.1-141.2,1391.6-68,1391.6,21.5z M763.5-140.8c-1.6-26.9-23.8-48.4-51.1-48.4h-119c-28.3,0-51.8,23.3-51.8,51.7v570.6
	c0,28.3,23.5,50.8,51.8,50.8h119c28.3,0,51.2-22.4,51.2-50.8v-570.6C763.6-138.6,763.6-139.8,763.5-140.8z M1251.6-62.2h-361v136
	h361V-62.2z M976.6,183.5c0-16.4-13.3-29.8-29.8-29.8h-26.5c-16.4,0-29.8,13.3-29.8,29.8V194c0,16.4,13.3,29.8,29.8,29.8h26.5
	c16.4,0,29.8-13.3,29.8-29.8V183.5z M1114.6,194c0,16.4-13.3,29.8-29.8,29.8h-26.5c-16.4,0-29.8-13.3-29.8-29.8v-10.5
	c0-16.4,13.3-29.8,29.8-29.8h26.5c16.4,0,29.8,13.3,29.8,29.8V194L1114.6,194z M1251.6,194c0,16.4-13.3,29.8-29.8,29.8h-26.5
	c-16.4,0-29.8-13.3-29.8-29.8v-10.5c0-16.4,13.3-29.8,29.8-29.8h26.5c16.4,0,29.8,13.3,29.8,29.8V194z M976.6,313.6
	c0-16.4-13.3-29.8-29.8-29.8h-26.5c-16.4,0-29.8,13.3-29.8,29.8v10.5c0,16.4,13.3,29.8,29.8,29.8h26.5c16.4,0,29.8-13.3,29.8-29.8
	V313.6z M1114.6,324c0,16.4-13.3,29.8-29.8,29.8h-26.5c-16.4,0-29.8-13.3-29.8-29.8v-10.5c0-16.4,13.3-29.8,29.8-29.8h26.5
	c16.4,0,29.8,13.3,29.8,29.8V324L1114.6,324z M1251.6,324c0,16.4-13.3,29.8-29.8,29.8h-26.5c-16.4,0-29.8-13.3-29.8-29.8v-10.5
	c0-16.4,13.3-29.8,29.8-29.8h26.5c16.4,0,29.8,13.3,29.8,29.8V324z M976.6,443.6c0-16.4-13.3-29.8-29.8-29.8h-26.5
	c-16.4,0-29.8,13.3-29.8,29.8v10.5c0,16.4,13.3,29.8,29.8,29.8h26.5c16.4,0,29.8-13.3,29.8-29.8V443.6z M1114.6,454
	c0,16.4-13.3,29.8-29.8,29.8h-26.5c-16.4,0-29.8-13.3-29.8-29.8v-10.5c0-16.4,13.3-29.8,29.8-29.8h26.5c16.4,0,29.8,13.3,29.8,29.8
	V454L1114.6,454z M1251.6,454c0,16.4-13.3,29.8-29.8,29.8h-26.5c-16.4,0-29.8-13.3-29.8-29.8v-10.5c0-16.4,13.3-29.8,29.8-29.8h26.5
	c16.4,0,29.8,13.3,29.8,29.8V454z"/>
<path class="st0" d="M953.6,137.6c0,0,19.3,108.7,48.1,178c27.5,66.1,145.4,184,88.5,285.3c0,0-24.7,49.8-94.4,94.8H848.3
	c-69.7-45-94.4-94.8-94.4-94.8C697,499.7,815,381.8,842.4,315.7c28.8-69.3,48.1-178.1,48.1-178.1 M1214.7-260.2h-586l-20,398h626
	L1214.7-260.2z M921.7-294.4c-7.5,0-13.5,6-13.5,13.5s6,13.5,13.5,13.5s13.5-6,13.5-13.5C935.2-288.3,929.2-294.4,921.7-294.4z
	 M736.6,535.8h370"/>
<path class="st0" d="M1384.6,397.1v117.3c0,34.1-27,62.4-61.1,62.4H496.4c-34.1,0-62.8-28.3-62.8-62.4V397.1
	c0-34.1,28.7-61.3,62.8-61.3h477.3c0,0,65.8-12.5,55.5-105.1c0,0-8.2-63.9-20.6-111.2c0,0-14.4-59.7-84.4-59.7l-82.3,1
	c0,0-65.8-2.8-104.9,75.4c0,0-16.5,45.6-49.4,45.6H512.8c0,0-26.7,7.9-43.2-62.1c0,0-49.4-164.2,0-244.4c0,0,14.4-32.5,30.9-32.5
	h812.7C1313.2-157.2,1384.6,111.1,1384.6,397.1z M1043.6-113.1c-40.9,0-74.1,33.2-74.1,74.1s33.2,74.1,74.1,74.1
	c40.9,0,74.1-33.2,74.1-74.1S1084.5-113.1,1043.6-113.1z M1359.6,81.8h33.8c37-92,0-177,0-177h-65.8 M704.2,335.8H529.3l-10.3,28
	h195.5L704.2,335.8z M679.6-157.2h-47v301h47V-157.2z M810.6-70c0-4.5-3.7-8.2-8.2-8.2h-34.5c-4.5,0-8.2,3.7-8.2,8.2v41.5
	c0,4.5,3.7,8.2,8.2,8.2h34.5c4.5,0,8.2-3.7,8.2-8.2V-70L810.6-70z M686.6-168c0-4.5-3.7-8.2-8.2-8.2h-45.5c-4.5,0-8.2,3.7-8.2,8.2
	v2.5c0,4.5,3.7,8.2,8.2,8.2h45.5c4.5,0,8.2-3.7,8.2-8.2V-168L686.6-168z M1084.8,22.9c0,0,148.9,73.6,118,314.4
	c0,0-40,83.5,34.1,86.5h145.7 M869.6-157.3c0,179.2,100,136.8,100,136.8 M616.6,181.8h-34v154h34V181.8z"/>
<path class="st0" d="M1235.1,492.6c0,0-10,116-74,188c0,0-252,34-476,0c0,0-60-64-78-186c0,0-32-286,0-572c0,0,5.9-109.8,69-163.2
	c0.3-0.3,0.7-0.6,1-0.8c0,0,110-53,234-53c0,0,148.9,1,247,51.4c1,0.5,2,1,3,1.6c0,0,62,28,74,152S1263.1,374.6,1235.1,492.6z
	 M682.3-241.3c-0.3,0.3-0.8,0.5-0.8,0.7v778.4h482v-781 M681.6-75.2h482 M1123.6,2.8c0-4.4-3.6-8-8-8h-386c-4.4,0-8,3.6-8,8v28
	c0,4.4,3.6,8,8,8h386c4.4,0,8-3.6,8-8V2.8z M1123.6,137.8c0-4.4-3.6-8-8-8h-386c-4.4,0-8,3.6-8,8v28c0,4.4,3.6,8,8,8h386
	c4.4,0,8-3.6,8-8V137.8z M1123.6,273.8c0-4.4-3.6-8-8-8h-386c-4.4,0-8,3.6-8,8v28c0,4.4,3.6,8,8,8h386c4.4,0,8-3.6,8-8V273.8z
	 M1123.6,408.8c0-4.4-3.6-8-8-8h-386c-4.4,0-8,3.6-8,8v28c0,4.4,3.6,8,8,8h386c4.4,0,8-3.6,8-8V408.8z M870.6-229.2c0-4.4-3.6-8-8-8
	h-8c-4.4,0-8,3.6-8,8v38c0,4.4,3.6,8,8,8h8c4.4,0,8-3.6,8-8V-229.2z M934.6-191.2c0,4.4-3.6,8-8,8h-8c-4.4,0-8-3.6-8-8v-38
	c0-4.4,3.6-8,8-8h8c4.4,0,8,3.6,8,8V-191.2z M998.6-191.2c0,4.4-3.6,8-8,8h-8c-4.4,0-8-3.6-8-8v-38c0-4.4,3.6-8,8-8h8
	c4.4,0,8,3.6,8,8V-191.2z"/>
<path class="st0" d="M1089.6,403.9c0,64.3-50.7,116.9-115,116.9h-103c-64.3,0-117.9-52.6-117.9-116.9v-78.1h336L1089.6,403.9
	L1089.6,403.9z M994.6,569.3c0-8-6.5-14.5-14.5-14.5h-118c-8,0-14.5,6.5-14.5,14.5l0,0c0,8,6.5,14.5,14.5,14.5h118
	C988.1,583.8,994.6,577.3,994.6,569.3L994.6,569.3z M994.6,632.3c0-8-6.5-14.5-14.5-14.5h-118c-8,0-14.5,6.5-14.5,14.5l0,0
	c0,8,6.5,14.5,14.5,14.5h118C988.1,646.8,994.6,640.3,994.6,632.3L994.6,632.3z M854.6-260.1c0-19.2-15.3-34.7-34.5-34.7l0,0
	c-19.2,0-34.5,15.5-34.5,34.7v493.9h69V-260.1z M955.6,233.8h-69v-493.9c0-19.2,15.3-34.7,34.5-34.7l0,0c19.2,0,34.5,15.5,34.5,34.7
	V233.8z M1056.6,233.8h-70v-493.9c0-19.2,15.8-34.7,35-34.7l0,0c19.2,0,35,15.5,35,34.7V233.8z M1089.6,297.8c0-18-14-32-31.4-32
	H785c-17.3,0-31.4,14-31.4,32H1089.6z M887,677.8c0,10,14,18,31.4,18h6.7c17.3,0,31.4-8,31.4-18H887z"/>
<path class="st0" d="M1227.6,481.3c0,14.6-11.9,26.5-26.5,26.5h-557c-14.6,0-26.5-11.9-26.5-26.5l0,0c0-14.6,11.9-26.5,26.5-26.5
	h557C1215.7,454.8,1227.6,466.7,1227.6,481.3L1227.6,481.3z M1216.6,243.8h-589v165h589V243.8z M762.7,267.6
	c-32.5,0-58.9,26.4-58.9,58.9s26.4,58.9,58.9,58.9s58.9-26.4,58.9-58.9C821.6,294,795.2,267.6,762.7,267.6z M1139.1,326.5
	c0,32.5-26.4,58.9-58.9,58.9s-58.9-26.4-58.9-58.9s26.4-58.9,58.9-58.9S1139.1,294,1139.1,326.5z M921.5,292.9
	c-18.6,0-33.6,15.1-33.6,33.6c0,18.6,15.1,33.6,33.6,33.6c18.6,0,33.6-15.1,33.6-33.6C955.1,307.9,940,292.9,921.5,292.9z
	 M1405.6-106.2h-109v606h109V-106.2z M1383.7-22.5c0,18.6-15.1,33.6-33.6,33.6s-33.6-15.1-33.6-33.6s15.1-33.6,33.6-33.6
	S1383.7-41.1,1383.7-22.5z M1383.7,99.4c0,18.6-15.1,33.6-33.6,33.6s-33.6-15.1-33.6-33.6s15.1-33.6,33.6-33.6
	S1383.7,80.9,1383.7,99.4z M1296.6,428.8h109 M547.6,499.8h-109v-606h109V499.8z M525.8-22.5c0,18.6-15.1,33.6-33.6,33.6
	c-18.6,0-33.6-15.1-33.6-33.6s15.1-33.6,33.6-33.6C510.7-56.2,525.8-41.1,525.8-22.5z M525.8,99.4c0,18.6-15.1,33.6-33.6,33.6
	c-18.6,0-33.6-15.1-33.6-33.6s15.1-33.6,33.6-33.6C510.7,65.8,525.8,80.9,525.8,99.4z M438.6,428.8h109 M1089.6,480.1
	c0-0.1-0.1-0.3-0.3-0.3h-51.5c-0.1,0-0.3,0.1-0.3,0.3v0.5c0,0.1,0.1,0.3,0.3,0.3h51.5c0.1,0,0.3-0.1,0.3-0.3V480.1z M1181.6,480.1
	c0-0.1-0.1-0.3-0.3-0.3h-51.5c-0.1,0-0.3,0.1-0.3,0.3v0.5c0,0.1,0.1,0.3,0.3,0.3h51.5c0.1,0,0.3-0.1,0.3-0.3V480.1z M922.6,480.1
	c0-0.1-0.1-0.3-0.3-0.3H654.8c-0.1,0-0.3,0.1-0.3,0.3v0.5c0,0.1,0.1,0.3,0.3,0.3h267.5c0.1,0,0.3-0.1,0.3-0.3V480.1L922.6,480.1z
	 M1216.6-106.2h-589v303h589V-106.2z"/>
<path class="st0" d="M1408.6,430.8v110h-55v-110H1408.6z M1287.7,32.8h-101.3c-5.9,0-11.2,1.4-15.4,4.8c20,12.6,38.8,28.2,56.2,42.2
	h60.6c13.4,0,24.2-10.1,24.2-23.5S1301.1,32.8,1287.7,32.8z M1226.7,81.2c-17.4-15.9-35.8-30.2-55.9-42.8
	c-56-35.2-121.5-56.5-191.8-59.5c-5.5-0.2-11-0.1-16.6-0.1H563.1c-11,0-21.6,1.1-31.7,3.7c-55.7,14.1-96.8,64.3-96.8,124.4v506.9
	h919V370.1C1353.6,255.7,1304.9,152.8,1226.7,81.2z M883.8-212.2H626.6c-52.6,0-95.1,42.5-95.1,95.2v99.3c10-2.6,20.6-3.4,31.5-3.4
	h399.4c5.6,0,10.1-0.4,17.1-0.2V-117C979.6-169.7,936.4-212.2,883.8-212.2z M1251.5,404.9c-30.3,0-54.8,24.6-54.8,54.8
	c0,30.3,24.6,54.8,54.8,54.8s54.8-24.6,54.8-54.8C1306.3,429.4,1281.8,404.9,1251.5,404.9z M1237.1,297.1
	c-10.9,0-19.7,8.8-19.7,19.6c0,10.9,8.8,19.6,19.7,19.6s19.6-8.8,19.6-19.6S1247.9,297.1,1237.1,297.1z M1196.2,198
	c-10.9,0-19.6,8.8-19.6,19.6c0,10.9,8.8,19.6,19.6,19.6c10.9,0,19.6-8.8,19.6-19.6S1207.1,198,1196.2,198z M1117.6,104.9
	c-10.9,0-19.7,8.8-19.7,19.6s8.8,19.6,19.7,19.6s19.6-8.8,19.6-19.6S1128.4,104.9,1117.6,104.9z"/>
<path class="st0" d="M1322.1,66.7c-0.7,273.6-46.8,440-46.8,440c-11.8,50.1-62.6,67.6-88.6,73.4c-9.3,2.1-15.4,2.6-15.4,2.6
	c-12.3,2.3-24.6,4.4-36.8,6.2c-167.2,25.5-325.4,13.2-408.5,2.9h-0.1c-38.3-4.8-60.6-9.1-60.6-9.1c-1.2-0.3-2.4-0.6-3.6-0.9
	c-68.8-18.4-80.4-57.1-80.4-57.1c-38.6-92-52.9-337.2-57.8-457.9c-1.7-42.1-2.2-69.9-2.2-69.9h800
	C1321.9,20.8,1322.1,44.1,1322.1,66.7z M1322.2-46.2c0-44-34.9-78-78-78h-645c-43.1,0-78,34-78,78H1322.2z M1100.6-154.4
	c0-43.1-35.5-77.9-78.5-77.9H820c-43.1,0-77.4,34.8-77.4,77.9v30.1h358V-154.4z M1059.6-158.4c0-18.8-15.8-33.9-34.5-33.9H817
	c-18.8,0-33.4,15.1-33.4,33.9v34.1h276V-158.4z M723.9,591.8l-24.2,42h-40.1v-52.1c1,0.3,2.4,0.6,3.6,0.9
	C663.2,582.6,685.5,587,723.9,591.8L723.9,591.8z M1184.6,580v53.8h-39.7l-24.3-42l11.8-2.9c12.2-1.9,24.5-4,36.8-6.2
	C1169.2,582.7,1174.6,582.1,1184.6,580z M523.6,66.8h-61.9c-10.5,0-19.1-8.7-19.1-19.1v-32c0-10.5,8.6-18.9,19.1-18.9h59.9
	 M1320.6-3.2h61.1c10.5,0,18.9,8.4,18.9,18.9v32c0,10.5-8.4,19.1-18.9,19.1h-60.1 M1018.6,363.8c0-48-39-87-87-87h-20
	c-48,0-87,39-87,87v129c0,48,39,87,87,87h20c48,0,87-39,87-87V363.8z M977.6,498.8c0-14.4-11.6-26-26-26h-60c-14.4,0-26,11.6-26,26
	l0,0c0,14.4,11.6,26,26,26h60C965.9,524.8,977.6,513.1,977.6,498.8L977.6,498.8z M907.6,376.8h-42v24h42V376.8z M977.6,400.8h-42
	v-24h42V400.8z"/>
</svg>
