<?xml version="1.0" encoding="utf-8"?>
<!-- Generator: Adobe Illustrator 19.0.0, SVG Export Plug-In . SVG Version: 6.00 Build 0)  -->
<svg version="1.1"
	 id="Layer_1" xmlns:dc="http://purl.org/dc/elements/1.1/" xmlns:sodipodi="http://sodipodi.sourceforge.net/DTD/sodipodi-0.dtd" xmlns:svg="http://www.w3.org/2000/svg" xmlns:cc="http://creativecommons.org/ns#" xmlns:inkscape="http://www.inkscape.org/namespaces/inkscape" xmlns:rdf="http://www.w3.org/1999/02/22-rdf-syntax-ns#"
	 xmlns="http://www.w3.org/2000/svg" xmlns:xlink="http://www.w3.org/1999/xlink" x="0px" y="0px" viewBox="-255 381.4 80 80"
	 style="enable-background:new -255 381.4 80 80;" xml:space="preserve">
<g transform="translate(0,-952.36218)">
	<path d="M-236.5,1352.6v15.3h-2.1c-2.7,0-4.9,2.2-4.9,4.9v15.3c0,0.3,0.3,0.7,0.7,0.7h1.4v6.2c0,0.3,0.3,0.7,0.7,0.7h5.6
		c0.3,0,0.7-0.3,0.7-0.7v-6.2h38.9v6.2c0,0.3,0.3,0.7,0.7,0.7h5.6c0.3,0,0.7-0.3,0.7-0.7v-6.2h1.4c0.3,0,0.7-0.3,0.7-0.7v-15.3
		c0-2.7-2.2-4.9-4.9-4.9h-2.1v-15.3c0-0.3-0.3-0.7-0.7-0.7h-41.7C-236.3,1351.9-236.5,1352.1-236.5,1352.6z M-235.1,1353.3h40.3
		v14.6h-4.2v-6.9c0-0.3-0.3-0.7-0.7-0.7h-11.1c-0.3,0-0.7,0.3-0.7,0.7v6.9h-6.9v-6.9c0-0.3-0.3-0.7-0.7-0.7h-11.1
		c-0.3,0-0.7,0.3-0.7,0.7v6.9h-4.2V1353.3z M-229.6,1361.6h9.7v6.2h-9.7V1361.6z M-210.1,1361.6h9.7v6.2h-9.7V1361.6z
		 M-238.6,1369.2h47.2c1.9,0,3.5,1.5,3.5,3.5v4.9h-54.2v-4.9C-242.1,1370.8-240.6,1369.2-238.6,1369.2z M-242.1,1379h54.2v8.3h-54.2
		V1379z M-240,1388.7h4.2v5.6h-4.2V1388.7z M-194.2,1388.7h4.2v5.6h-4.2V1388.7z"/>
</g>
</svg>
