<?xml version="1.0" encoding="utf-8"?>
<!-- Generator: Adobe Illustrator 19.0.0, SVG Export Plug-In . SVG Version: 6.00 Build 0)  -->
<svg version="1.1" id="Layer_1" xmlns="http://www.w3.org/2000/svg" xmlns:xlink="http://www.w3.org/1999/xlink" x="0px" y="0px"
	 viewBox="-279 381.4 80 80" style="enable-background:new -279 381.4 80 80;" xml:space="preserve">
<path d="M-213.6,399h-50.8c-2,0-3.6,1.6-3.6,3.6v31c0,2,1.6,3.6,3.6,3.6h3.4v3.1c0,2,1.6,3.6,3.6,3.6h4.9c2,0,3.6-1.6,3.6-3.6v-3.1
	h19.8v3.1c0,2,1.6,3.6,3.6,3.6h4.9c2,0,3.6-1.6,3.6-3.6v-3.1h3.4c2,0,3.6-1.6,3.6-3.6v-31C-210,400.6-211.6,399-213.6,399z
	 M-252.9,439.9h-4.1v-2.7h4.1V439.9z M-221,439.9h-4.1v-2.7h4.1V439.9z M-214,433.2h-6.6h-4.9h-27h-4.9h-6.6V403h50V433.2z"/>
<path d="M-243.2,431.9c0.1,0,0.1,0,0.2,0c0.2,0,0.3-0.1,0.4-0.2l7.5-11.5c0.1-0.2,0.1-0.4,0-0.5c-0.1-0.2-0.3-0.3-0.4-0.3h-1.7
	l2.7-7.8c0.1-0.2,0-0.5-0.3-0.6c-0.2-0.1-0.5,0-0.6,0.2l-7.5,11.5c-0.1,0.2-0.1,0.4,0,0.5c0.1,0.2,0.3,0.3,0.4,0.3h1.7l-2.7,7.8
	C-243.5,431.6-243.4,431.8-243.2,431.9z"/>
</svg>
