<?xml version="1.0" encoding="utf-8"?>
<!-- Generator: Adobe Illustrator 19.0.0, SVG Export Plug-In . SVG Version: 6.00 Build 0)  -->
<svg version="1.1" id="Layer_1" xmlns="http://www.w3.org/2000/svg" xmlns:xlink="http://www.w3.org/1999/xlink" x="0px" y="0px"
	 viewBox="522.4 381.1 80 80" style="enable-background:new 522.4 381.1 80 80;" xml:space="preserve">
<path d="M593.3,400.4h-61.7c-0.5,0-1,0.4-1,1v35.4c0,0.5,0.4,1,1,1h27.8v2.2h-7.9c-0.5,0-1,0.4-1,1s0.4,1,1,1h8.9h4.2h8.9
	c0.5,0,1-0.4,1-1s-0.4-1-1-1h-7.9v-2.2h27.8c0.5,0,1-0.4,1-1v-35.4C594.2,400.8,593.8,400.4,593.3,400.4z M563.5,440h-2.2v-2.2h2.2
	V440z M592.3,435.8h-27.8h-4.2h-27.8v-33.4h59.8V435.8z"/>
</svg>
