<?xml version="1.0" encoding="utf-8"?>
<!-- Generator: Adobe Illustrator 19.0.0, SVG Export Plug-In . SVG Version: 6.00 Build 0)  -->
<svg version="1.1"
	 id="Layer_1" xmlns:dc="http://purl.org/dc/elements/1.1/" xmlns:sodipodi="http://sodipodi.sourceforge.net/DTD/sodipodi-0.dtd" xmlns:svg="http://www.w3.org/2000/svg" xmlns:cc="http://creativecommons.org/ns#" xmlns:inkscape="http://www.inkscape.org/namespaces/inkscape" xmlns:rdf="http://www.w3.org/1999/02/22-rdf-syntax-ns#"
	 xmlns="http://www.w3.org/2000/svg" xmlns:xlink="http://www.w3.org/1999/xlink" x="0px" y="0px" viewBox="-251 380.9 80 80"
	 style="enable-background:new -251 380.9 80 80;" xml:space="preserve">
<g transform="translate(0,-952.36218)">
	<path d="M-211,1347.8c-13.5-0.1-24.2,6.5-31,12.5c-0.4,0.2-0.4,0.7-0.2,1s0.7,0.4,1,0.2c0.1-0.1,0.1-0.1,0.2-0.1
		c6.6-6,17-12.3,30-12.2c13-0.1,23.5,6.3,30,12.2c0.2,0.3,0.7,0.4,1,0.1c0.3-0.2,0.4-0.7,0.1-1c-0.1-0.1-0.1-0.1-0.2-0.1
		C-186.8,1354.2-197.6,1347.6-211,1347.8z M-211,1361.6c-10.6-0.1-19.2,5.3-24.5,10.3c-0.3,0.3-0.3,0.7-0.1,1c0.3,0.3,0.7,0.3,1,0.1
		l0,0c5.2-4.9,13.3-10.1,23.5-10c10.1-0.1,18.3,5.1,23.5,10c0.3,0.3,0.7,0.3,1,0c0.3-0.3,0.3-0.7,0-1l0,0
		C-191.9,1366.9-200.4,1361.5-211,1361.6z M-211,1375.4c-6.1,0-10.9,3-13.7,6.8c-0.3,0.3-0.2,0.8,0.1,1c0.3,0.3,0.8,0.2,1-0.1
		l0.1-0.1c2.5-3.5,6.8-6.3,12.5-6.3s10.1,2.8,12.5,6.3c0.2,0.4,0.7,0.4,1,0.2c0.4-0.2,0.4-0.7,0.2-1l-0.1-0.1
		C-200.1,1378.4-205,1375.4-211,1375.4z M-211,1388.6c-2.8,0-5.2,2.3-5.2,5.1c0,2.8,2.4,5.1,5.2,5.1c2.8,0,5-2.3,5-5.1
		C-206,1390.8-208.2,1388.6-211,1388.6z M-211,1390c2,0,3.6,1.6,3.6,3.6c0,2-1.5,3.6-3.6,3.6c-2,0-3.7-1.7-3.7-3.6
		C-214.7,1391.6-213,1390-211,1390z"/>
</g>
</svg>
