<svg id="レイヤー_1" data-name="レイヤー 1" xmlns="http://www.w3.org/2000/svg" viewBox="0 0 24 24"><defs><style>.cls-1{fill:#ffffff;}</style></defs><title>logo-mark</title><path class="cls-1" d="M23.74,15.4a.68.68,0,0,0-.57-.35H23a.68.68,0,0,1-.28,0h-.1a.85.85,0,0,1-.27,0h-.43a2.13,2.13,0,0,1-.42,0l-.19,0h-.77a.41.41,0,0,0-.22,0,1.21,1.21,0,0,1-.42,0h-.58a1.44,1.44,0,0,1-.46,0h-.32a1.52,1.52,0,0,1-.44,0,.41.41,0,0,1-.19,0h-.09l-.36,0h-.26a.74.74,0,0,1-.33,0h-.1l-.39,0a.76.76,0,0,1-.27,0H16a1.43,1.43,0,0,1-.3,0h-.15a2.51,2.51,0,0,1-.35,0H15l-.35,0h-.16l-.4,0-.17,0a2.75,2.75,0,0,1-.49,0H13a.89.89,0,0,1-.29,0h-.14l-.42,0a1,1,0,0,1-.29,0h-.79a.33.33,0,0,0-.14,0h-.36a.86.86,0,0,1-.22,0c-.08,0-.16,0-.32,0a.93.93,0,0,1-.26,0H9.2a.67.67,0,0,0-.2,0,.69.69,0,0,1-.32,0,.2.2,0,0,0-.11,0,3.53,3.53,0,0,1-.65,0h-.1a1,1,0,0,1-.29,0,1.19,1.19,0,0,1-.32,0H7a1.31,1.31,0,0,1-.28,0H6.62a1.54,1.54,0,0,1-.43,0H6.07a.86.86,0,0,1-.32,0H5.57a1.05,1.05,0,0,1-.43,0H5a.74.74,0,0,1-.25,0H4.4a1.59,1.59,0,0,1-.31,0H2.88a1,1,0,0,0-.26,0,1.54,1.54,0,0,1-.45,0,1,1,0,0,1-.29,0H1.67l-.44,0a.33.33,0,0,1-.17,0,.76.76,0,0,0-.76.28.54.54,0,0,0-.09.57.45.45,0,0,0,.44.26,6.26,6.26,0,0,1,.87,0h.2l.09,0a.47.47,0,0,1,.2,0h.11a1.68,1.68,0,0,1,.59,0h.21l.21,0a1.78,1.78,0,0,1,.4,0h.12l.47,0H5.24a.32.32,0,0,1,.17,0h.16l.3,0h.28a4.52,4.52,0,0,1,.52,0h.11a2.39,2.39,0,0,1,.65,0h.21a1,1,0,0,1,.3,0h.25a3.79,3.79,0,0,1,.52,0,1,1,0,0,1,.27,0l.12,0a.89.89,0,0,1,.24,0H10l.21,0H11a.9.9,0,0,1,.39,0h.12a1.53,1.53,0,0,1,.43,0H12a.66.66,0,0,1,.2,0l.4,0h.6a1.34,1.34,0,0,1,.41,0h.85l.43,0a3.53,3.53,0,0,1,.46,0h.36a1.26,1.26,0,0,1,.33,0l.39,0a1.41,1.41,0,0,1,.31,0H17a1.09,1.09,0,0,1,.36,0h.07l.62,0a6.32,6.32,0,0,1,.75,0h.26a1.92,1.92,0,0,1,.63,0l.39,0a1,1,0,0,1,.26,0h.09a1,1,0,0,1,.29,0H21a.54.54,0,0,0,.22,0,.87.87,0,0,1,.36,0H22l.26,0h.12a.23.23,0,0,1,.14,0h.5a1.48,1.48,0,0,1,.3,0,.48.48,0,0,0,.43-.23A.54.54,0,0,0,23.74,15.4Z"/><path class="cls-1" d="M5.78,22h0l-.51-.08-.15,0a.41.41,0,0,0-.11,0,.51.51,0,0,1-.23,0l-.23,0a.91.91,0,0,0-.36.08.48.48,0,0,1-.15,0,.47.47,0,0,0-.38.13l-.19.09-.28.17c-.15.1-.52.33-.63.3l-.12,0H2.33a1.14,1.14,0,0,1-.42,0c-.12,0-.25,0-.34,0a.33.33,0,0,1-.13,0l-.08,0-.15,0a.82.82,0,0,0-.84,0,.5.5,0,0,0-.23.47.84.84,0,0,0,.55.66l.17.06a2.3,2.3,0,0,0,.66.19l.18,0,.34,0a1.13,1.13,0,0,1,.26,0h.08a1.06,1.06,0,0,0,.37-.08h0a2.22,2.22,0,0,0,1.14-.42,4.09,4.09,0,0,1,.57-.3h.3a1.41,1.41,0,0,1,.61.06l.23.14a1,1,0,0,0,.55.22h0a.52.52,0,0,0,.55-.53A1.31,1.31,0,0,0,5.78,22Z"/><path class="cls-1" d="M22.7,21.9l-.34,0-.33,0h-.37l-.21,0a3.35,3.35,0,0,0-1.14.44,2,2,0,0,1-1.19.34l-.24,0a1.65,1.65,0,0,1-.41-.14,1.27,1.27,0,0,0-.72-.16c-.51.11-.55.43-.54.56,0,.56,1.07.91,1.22.93l.14,0a3.19,3.19,0,0,0,.6.08l.12,0a1.32,1.32,0,0,1,.41,0,1.13,1.13,0,0,0,.36-.08l.35-.11.36-.2.33-.19A1.29,1.29,0,0,1,22,23a.25.25,0,0,0,.12,0,1.37,1.37,0,0,1,.49.11,1.46,1.46,0,0,1,.18.09c.33.16.44.22.59.19a.55.55,0,0,0,.51-.6C23.8,22.34,23.05,21.91,22.7,21.9Z"/><path class="cls-1" d="M23.3,9a6.54,6.54,0,0,0-.74-.56l-.42-.3a3.62,3.62,0,0,1-.37-.26l-.35-.28-.6-.45-.28-.17c-.17-.11-.62-.38-.75-.49a.41.41,0,0,0-.12-.14.87.87,0,0,1-.15-.13l-.13-.12-.28-.19c-.1-.08-.22-.15-.33-.23a3.33,3.33,0,0,1-.58-.42,2.19,2.19,0,0,0-.49-.36l-.15-.09a1.45,1.45,0,0,1-.24-.22l-.19-.14a1.07,1.07,0,0,1-.24-.17L16.63,4c-.2-.15-.39-.3-.59-.43l-.19-.12a2.6,2.6,0,0,1-.77-.57l-.29-.21-.28-.19-.84-.6a2.92,2.92,0,0,0-.28-.21,2.91,2.91,0,0,1-.31-.24,2.94,2.94,0,0,0,.55-.71c.14-.25-.27-.54-.57-.6s-.42.07-.72.33l-.29.23A1.08,1.08,0,0,1,11.8.57l-.07,0L11.49.33c-.18-.15-.27-.26-.47-.2s-.61.36-.63.6.27.42.43.58l.11.15-.21.16a.27.27,0,0,1-.12.09l-.09.05-.39.29a5.7,5.7,0,0,0-.59.45l-.35.24,0,0v0L9,2.9l-.35.26-.34.22-.41.33-.11.09-.36.26c-.11.08-.21.16-.35.25l-.27.21-.18.13a1.51,1.51,0,0,1-.28.18l-.11.09a2.11,2.11,0,0,1-.37.28l0,0,0,0a2.21,2.21,0,0,1-.33.25,1.26,1.26,0,0,0-.25.19s0,0,0,0A3,3,0,0,0,4.68,6l-.12.09a2.43,2.43,0,0,0-.3.24,2.46,2.46,0,0,1-.41.28l-.19.14-.53.38-.77.58a.7.7,0,0,1-.16.14l-.34.21-.41.29a6.61,6.61,0,0,0-1,.75.6.6,0,0,0-.32.4A.6.6,0,0,0,.28,10a.56.56,0,0,0,.48.33A1.67,1.67,0,0,0,1.7,9.8a2.39,2.39,0,0,1,.35-.28l.22-.18c.14-.09.27-.19.4-.29L3,8.84l.9-.65a1.52,1.52,0,0,1,.39-.27l.43-.31c.17-.14.34-.26.57-.42a3.73,3.73,0,0,1,.42-.32l.25-.17.19-.15a1,1,0,0,1,.33-.24l.22-.17A.74.74,0,0,1,6.87,6l.39-.31a2.9,2.9,0,0,0,.34-.25.83.83,0,0,1,.22-.14l.47-.35.07-.08a3.73,3.73,0,0,0,.48-.33l.08-.06c.15-.1.31-.2.48-.33L9.63,4c.2-.13.4-.28.59-.43l.42-.3.42-.31.25-.2c.13-.1.26-.21.45-.34s.2-.17.3-.14a2.52,2.52,0,0,1,.49.38l.17.13c.21.13.4.28.6.43l.52.39a1.9,1.9,0,0,1,.42.28.93.93,0,0,1,.2.15l.19.16a2.61,2.61,0,0,1,.4.29l.51.32a1.88,1.88,0,0,0,.47.39l.4.3c.23.17.47.35.66.46l.37.29A3.62,3.62,0,0,1,18,6.6a2.75,2.75,0,0,0,.37.28,7.64,7.64,0,0,1,1.07.8l.16.13a1.64,1.64,0,0,0,.22.14,3.46,3.46,0,0,1,.48.37l.44.31a2.18,2.18,0,0,1,.31.22,3.88,3.88,0,0,0,.38.27l.14.09.24.2.36.28a1.56,1.56,0,0,1,.36.25l.25.19a.64.64,0,0,0,.67.12.6.6,0,0,0,.38-.53C23.9,9.28,23.48,9.05,23.3,9Z"/><path class="cls-1" d="M13.87,7.67l0-.19a.78.78,0,0,0-.05-.14.4.4,0,0,1-.07-.19A.27.27,0,0,0,13.66,7l-.11-.15a.2.2,0,0,0-.08-.08.58.58,0,0,1-.14-.17.34.34,0,0,0-.12-.12l-.28-.2a.23.23,0,0,0-.12-.06,1.28,1.28,0,0,1-.27-.11l-.14,0h-.29a.37.37,0,0,1-.18,0h-.14l-.1,0L11,6.31l-.09.05-.36.34L10.38,7a.61.61,0,0,0-.07.1l-.17.64v.24l.17.77a.47.47,0,0,0,0,.1l.13.2.43.41.1.06a2,2,0,0,1,.28.15l.18.09a.28.28,0,0,0,.15,0H12l.15,0h.11l.09,0a.84.84,0,0,1,.24-.06l.12,0,.2-.09.35-.26.07-.07A1,1,0,0,1,13.47,9a.23.23,0,0,0,.1-.12l.19-.4.09-.32a.29.29,0,0,0,0-.16A2.19,2.19,0,0,1,13.87,7.67Z"/></svg>