<svg xmlns="http://www.w3.org/2000/svg" xmlns:xlink="http://www.w3.org/1999/xlink" version="1.1" x="0px" y="0px" viewBox="0 0 1000 1250" style="enable-background:new 0 0 1000 1000;" xml:space="preserve"><path d="M745.2,593.8c11.2-29.1,17.3-60.7,17.3-93.8c0-40.2-9.1-78.4-25.4-112.5c-3-6.4-6.3-12.7-9.9-18.8  c-12-20.7-26.8-39.6-43.8-56.2c-6.8-6.6-13.9-12.9-21.3-18.8c-44.7-35.2-101-56.2-162.2-56.2c-118.7,0-219.2,79.2-251.6,187.5  c-1.8,6.2-3.5,12.4-4.8,18.8c-4,18.1-6.1,36.9-6.1,56.2c0,6.3,0.2,12.6,0.7,18.8c9.6,136,123.4,243.8,261.8,243.8  c71.4,0,136.1-28.6,183.5-75c6.1-6,11.9-12.2,17.4-18.8c14.3-17,26.6-35.9,36.2-56.2C740.1,606.4,742.7,600.1,745.2,593.8z   M705.3,368.8H471.9c-15.5,0-28.1-12.6-28.1-28.1s12.6-28.1,28.1-28.1h183.7C674.9,328.6,691.7,347.5,705.3,368.8z M262.8,443.8  h227.8c12.2,0,22.6,7.8,26.5,18.8c1,2.9,1.6,6.1,1.6,9.4s-0.6,6.4-1.6,9.4h19.4h85.3c15.5,0,28.1,12.6,28.1,28.1  s-12.6,28.1-28.1,28.1H359.4c-12.2,0-22.6-7.8-26.5-18.8c-1-2.9-1.6-6.1-1.6-9.4s0.6-6.4,1.6-9.4h-19.4h-57.2  C256.2,480.6,258.5,461.8,262.8,443.8z M500,743.8c-77.9,0-147.3-36.7-192-93.8h182.6c5.2,0,9.4-4.2,9.4-9.4s-4.2-9.4-9.4-9.4H294.7  c-21.1-33-34.6-71.3-37.7-112.5h56.5c4.4,21.4,23.3,37.5,45.9,37.5h262.5c25.8,0,46.9-21,46.9-46.9s-21-46.9-46.9-46.9h-85.3  c-4.4-21.4-23.3-37.5-45.9-37.5H268.1c8.9-27.4,22.5-52.8,39.9-75h70.1c5.2,0,9.4-4.2,9.4-9.4s-4.2-9.4-9.4-9.4h-53.8  c44.4-46.2,106.7-75,175.7-75c47.7,0,92.2,13.8,129.8,37.5H471.9c-25.8,0-46.9,21-46.9,46.9s21,46.9,46.9,46.9h244.3  c17.6,33.7,27.6,71.9,27.6,112.5h-28.1c-5.2,0-9.4,4.2-9.4,9.4s4.2,9.4,9.4,9.4H743c-2,26.4-8.3,51.6-18,75H584.4  c-25.8,0-46.9,21-46.9,46.9s21,46.9,46.9,46.9h71.2C613.3,722.6,559.1,743.8,500,743.8z M675.7,668.8h-91.3  c-15.5,0-28.1-12.6-28.1-28.1s12.6-28.1,28.1-28.1h131.8C705.4,633.2,691.7,652.1,675.7,668.8z"/><path d="M528.1,687.5h-37.5c-5.2,0-9.4,4.2-9.4,9.4s4.2,9.4,9.4,9.4h37.5c5.2,0,9.4-4.2,9.4-9.4S533.3,687.5,528.1,687.5z"/><path d="M659.4,406.2h-75c-5.2,0-9.4,4.2-9.4,9.4s4.2,9.4,9.4,9.4h75c5.2,0,9.4-4.2,9.4-9.4S664.6,406.2,659.4,406.2z"/><path d="M837.5,162.5c0,10.4-8.4,18.8-18.8,18.8c10.4,0,18.8,8.4,18.8,18.8c0-10.4,8.4-18.8,18.8-18.8  C845.9,181.2,837.5,172.9,837.5,162.5z"/><path d="M200,818.8c0,20.7-16.8,37.5-37.5,37.5c20.7,0,37.5,16.8,37.5,37.5c0-20.7,16.8-37.5,37.5-37.5  C216.8,856.2,200,839.5,200,818.8z"/><path d="M162.5,106.2c-31.1,0-56.2-25.2-56.2-56.2c0,31.1-25.2,56.2-56.2,56.2c31.1,0,56.2,25.2,56.2,56.2  C106.2,131.4,131.4,106.2,162.5,106.2z"/><path d="M125,762.5c0,10.4-8.4,18.8-18.8,18.8c10.4,0,18.8,8.4,18.8,18.8c0-10.4,8.4-18.8,18.8-18.8  C133.4,781.2,125,772.9,125,762.5z"/><path d="M762.5,875c0,20.7-16.8,37.5-37.5,37.5c20.7,0,37.5,16.8,37.5,37.5c0-20.7,16.8-37.5,37.5-37.5  C779.3,912.5,762.5,895.7,762.5,875z"/><path d="M931.2,481.2c0,10.4-8.4,18.8-18.8,18.8c10.4,0,18.8,8.4,18.8,18.8c0-10.4,8.4-18.8,18.8-18.8  C939.6,500,931.2,491.6,931.2,481.2z"/><path d="M565.6,818.8c0,5.2-4.2,9.4-9.4,9.4c5.2,0,9.4,4.2,9.4,9.4c0-5.2,4.2-9.4,9.4-9.4C569.8,828.1,565.6,823.9,565.6,818.8z"/><path d="M809.4,706.2c0,5.2-4.2,9.4-9.4,9.4c5.2,0,9.4,4.2,9.4,9.4c0-5.2,4.2-9.4,9.4-9.4C813.6,715.6,809.4,711.4,809.4,706.2z"/><path d="M171.9,181.2c0-5.2,4.2-9.4,9.4-9.4c-5.2,0-9.4-4.2-9.4-9.4c0,5.2-4.2,9.4-9.4,9.4C167.7,171.9,171.9,176.1,171.9,181.2z"/><path d="M228.1,650c0,5.2-4.2,9.4-9.4,9.4c5.2,0,9.4,4.2,9.4,9.4c0-5.2,4.2-9.4,9.4-9.4C232.3,659.4,228.1,655.2,228.1,650z"/><path d="M603.1,106.2c0-5.2,4.2-9.4,9.4-9.4c-5.2,0-9.4-4.2-9.4-9.4c0,5.2-4.2,9.4-9.4,9.4C598.9,96.9,603.1,101.1,603.1,106.2z"/><path d="M743.8,256.2c0-20.7,16.8-37.5,37.5-37.5c-20.7,0-37.5-16.8-37.5-37.5c0,20.7-16.8,37.5-37.5,37.5  C727,218.8,743.8,235.5,743.8,256.2z"/><text x="0" y="1015" fill="#000000" font-size="5px" font-weight="bold" font-family="'Helvetica Neue', Helvetica, Arial-Unicode, Arial, Sans-serif">Created by Juan Manuel Corredor</text><text x="0" y="1020" fill="#000000" font-size="5px" font-weight="bold" font-family="'Helvetica Neue', Helvetica, Arial-Unicode, Arial, Sans-serif">from the Noun Project</text></svg>