<svg xmlns="http://www.w3.org/2000/svg" xmlns:xlink="http://www.w3.org/1999/xlink" version="1.1" x="0px" y="0px" viewBox="0 0 100 125" style="enable-background:new 0 0 100 100;" xml:space="preserve"><g><path d="M76.2,35.4c-8.1-14.4-26.4-19.6-40.8-11.5c-14.4,8.1-19.6,26.4-11.5,40.8c1.7,3,3.9,5.7,6.3,7.9c0,0,0,0,0,0   c5.5,4.9,12.6,7.5,19.9,7.5c4.9,0,10-1.2,14.6-3.8C79.1,68.1,84.3,49.8,76.2,35.4z M63.7,74.4c-10.2,5.7-22.4,4.3-31-2.5L43,66.1   c0.5-0.3,0.7-0.9,0.4-1.4c-0.3-0.5-0.9-0.7-1.4-0.4L31,70.6c-2.1-2-4-4.3-5.5-6.9c-1.5-2.6-2.5-5.4-3-8.3l19.8-11.1   c0.5-0.3,0.7-0.9,0.4-1.4c-0.3-0.5-0.9-0.7-1.4-0.4L22.2,53.3c-1.3-10.9,4-22,14.1-27.7c4.3-2.4,9-3.6,13.6-3.6   c9.5,0,18.7,4.9,24,13.5L40.8,54c-0.5,0.3-0.7,0.9-0.4,1.4c0.2,0.3,0.5,0.5,0.9,0.5c0.2,0,0.3,0,0.5-0.1l33.1-18.5   C81.7,50.6,76.8,67.1,63.7,74.4z"/><path d="M43.9,32.2c0.2,0,0.3,0,0.5-0.1l5.8-3.2c0.5-0.3,0.7-0.9,0.4-1.4s-0.9-0.7-1.4-0.4l-5.8,3.2c-0.5,0.3-0.7,0.9-0.4,1.4   C43.2,32.1,43.5,32.2,43.9,32.2z"/><path d="M70,61c-0.3-0.5-0.9-0.7-1.4-0.4L55.4,68c-0.5,0.3-0.7,0.9-0.4,1.4c0.2,0.3,0.5,0.5,0.9,0.5c0.2,0,0.3,0,0.5-0.1l13.3-7.4   C70.1,62.1,70.3,61.5,70,61z"/></g><text x="0" y="115" fill="#000000" font-size="5px" font-weight="bold" font-family="'Helvetica Neue', Helvetica, Arial-Unicode, Arial, Sans-serif">Created by Artem  Kovyazin</text><text x="0" y="120" fill="#000000" font-size="5px" font-weight="bold" font-family="'Helvetica Neue', Helvetica, Arial-Unicode, Arial, Sans-serif">from the Noun Project</text></svg>