<?xml version="1.0" encoding="utf-8"?>
<!-- Generator: Adobe Illustrator 19.0.0, SVG Export Plug-In . SVG Version: 6.00 Build 0)  -->
<svg version="1.1" id="Layer_1" xmlns="http://www.w3.org/2000/svg" xmlns:xlink="http://www.w3.org/1999/xlink" x="0px" y="0px"
	 viewBox="-267 113.9 424.6 334.1" style="enable-background:new -267 113.9 424.6 334.1;" xml:space="preserve">
<style type="text/css">
	.st0{fill:none;stroke:#2E3A3E;stroke-width:6;stroke-miterlimit:10;}
	.st1{fill:none;stroke:#2E3A3E;stroke-width:6;stroke-linecap:round;stroke-miterlimit:10;}
	.st2{fill:#2E3A3E;}
	.st3{fill:#FFFFFF;}
</style>
<g id="XMLID_8_">
	<circle id="XMLID_2_" class="st0" cx="-54.7" cy="280.9" r="164"/>
	<line id="XMLID_3_" class="st1" x1="-125" y1="186.5" x2="-89.6" y2="174.1"/>
	<line id="XMLID_4_" class="st1" x1="-218.7" y1="278.6" x2="-124" y2="245.5"/>
	<line id="XMLID_5_" class="st1" x1="100.1" y1="226.8" x2="-52.5" y2="280.2"/>
	<line id="XMLID_6_" class="st1" x1="-156" y1="409.9" x2="-104.6" y2="391.9"/>
	<line id="XMLID_7_" class="st1" x1="-19" y1="398.9" x2="12.2" y2="388"/>
</g>
<g id="XMLID_9_">
	<g id="XMLID_10_">
		<path id="XMLID_123_" class="st2" d="M-209.9,297.9c-5.8,0-11-0.4-15.4-1.2c-4.4-0.8-8.1-1.7-11.1-2.6c-3-1-5.3-1.9-6.9-2.7
			c-2-1-2.4-1.3-2.6-1.4c-1.2-0.7-1.8-1.8-1.8-3.3c0-1.1,0.4-2.1,1.3-2.8c0.8-0.7,1.7-1,2.6-1c0.7,0,1.4,0.2,2,0.5
			c0.4,0.2,1,0.5,2.1,1.1c1.3,0.7,3.3,1.5,6,2.3c2.7,0.9,6.1,1.6,10.1,2.3s8.7,1,14,1c5.2,0,9.9-0.4,13.9-1.3c4-0.8,7.3-2,10-3.5
			c2.6-1.4,4.6-3.1,5.9-5c1.3-1.9,1.9-3.8,1.9-6c0-1.2-0.2-2.3-0.6-3.1c-0.4-0.9-1-1.6-1.8-2.3s-1.8-1.3-2.9-1.7
			c-1.2-0.5-2.5-0.9-3.9-1.3c-1.6-0.4-3.2-0.8-5-1c-1.8-0.3-3.6-0.5-5.5-0.7c-1.9-0.2-3.8-0.4-5.7-0.6c-1.9-0.2-3.8-0.3-5.7-0.5
			l-9.6-0.8c-7.6-0.6-14.4-1.6-20.1-2.9c-5.8-1.3-10.6-3.1-14.5-5.2c-4-2.2-7-4.8-9-7.9c-2-3.1-3.1-6.8-3.1-10.9c0-4.2,1-8,2.8-11.5
			c1.8-3.4,4.4-6.5,7.6-9.3c3.2-2.7,6.9-5.1,11.1-7.1s8.7-3.6,13.4-4.9c4.7-1.3,9.7-2.3,14.7-2.9c5-0.7,10.1-1,14.9-1
			c6.1,0,11.5,0.4,16,1.1c4.5,0.7,8.5,1.7,11.8,2.9c3.3,1.2,6.1,2.6,8.2,4.1c2.1,1.5,3.9,3,5.2,4.5c3.2,3.7,4.8,8,4.8,12.8
			c0,1.6-0.2,3.1-0.5,4.5c-0.2,0.9-0.6,1.7-1.3,2.2c-0.7,0.6-1.5,0.8-2.3,0.8c-1.2,0-2.2-0.4-2.9-1.2c-0.7-0.8-1.1-1.7-1.1-2.7
			c0-0.7,0.1-1.4,0.2-2.1c0.1-0.5,0.2-1,0.2-1.5c0-2.7-0.8-5.1-2.5-7.3c-1.7-2.2-4.2-4.1-7.4-5.7c-3.3-1.6-7.4-2.8-12.1-3.7
			c-4.8-0.9-10.2-1.3-16.2-1.3c-4.5,0-9.2,0.3-13.8,0.9c-4.6,0.6-9.1,1.5-13.3,2.6c-4.2,1.1-8.2,2.5-11.9,4.2
			c-3.6,1.7-6.8,3.6-9.5,5.8c-2.6,2.1-4.7,4.5-6.2,7.1c-1.4,2.5-2.2,5.3-2.2,8.3c0,2.3,0.5,4.3,1.5,6c1,1.7,2.4,3.3,4.1,4.6
			c1.8,1.4,4,2.5,6.4,3.5c2.5,1,5.3,1.8,8.3,2.5s6.1,1.2,9.4,1.7c3.3,0.4,6.6,0.8,9.9,1.1l9.6,0.8c4.8,0.4,9.1,0.9,12.9,1.3
			c3.8,0.5,7.3,1.1,10.2,1.8c5,1.3,8.8,3.1,11.3,5.6c2.6,2.5,3.9,5.9,3.9,10.1c0,3.9-1.1,7.4-3.3,10.4c-2.1,2.9-5,5.4-8.7,7.4
			c-3.6,1.9-7.8,3.4-12.5,4.4C-199.5,297.4-204.6,297.9-209.9,297.9z"/>
		<path id="XMLID_109_" class="st3" d="M-200.9,200.2c6,0,11.3,0.4,15.8,1.1c4.5,0.7,8.3,1.7,11.5,2.8c3.2,1.1,5.8,2.4,7.8,3.9
			s3.7,2.9,4.9,4.3c3,3.5,4.4,7.4,4.4,11.8c0,1.5-0.1,2.9-0.4,4.2c-0.1,0.6-0.4,1-0.8,1.4c-0.4,0.3-0.9,0.5-1.4,0.5
			c-0.8,0-1.4-0.2-1.8-0.7c-0.5-0.5-0.7-1-0.7-1.7c0-0.7,0.1-1.2,0.2-1.8c0.1-0.6,0.2-1.2,0.2-1.8c0-3-0.9-5.8-2.8-8.2
			c-1.9-2.4-4.5-4.4-8-6.1c-3.4-1.6-7.6-2.9-12.5-3.8c-4.9-0.9-10.4-1.3-16.4-1.3c-4.6,0-9.3,0.3-14,0.9c-4.7,0.6-9.2,1.5-13.5,2.6
			s-8.3,2.6-12.1,4.3c-3.8,1.7-7,3.7-9.8,6c-2.8,2.3-4.9,4.8-6.5,7.6c-1.6,2.8-2.4,5.8-2.4,9.1c0,2.5,0.6,4.8,1.7,6.7
			c1.1,1.9,2.6,3.6,4.5,5.1c1.9,1.4,4.2,2.7,6.8,3.7s5.4,1.9,8.5,2.6c3,0.7,6.2,1.3,9.5,1.7s6.6,0.8,9.9,1.1l9.6,0.8
			c4.8,0.4,9.1,0.9,12.9,1.3c3.8,0.5,7.1,1,10,1.8c4.8,1.2,8.3,2.9,10.6,5.2c2.3,2.3,3.4,5.3,3.4,9c0,3.6-1,6.8-3,9.6
			s-4.7,5.1-8.2,6.9c-3.5,1.9-7.5,3.3-12.1,4.3s-9.6,1.4-14.9,1.4c-5.8,0-10.8-0.4-15.2-1.2c-4.4-0.8-8-1.6-10.9-2.6
			s-5.2-1.8-6.7-2.6s-2.4-1.2-2.5-1.3c-0.8-0.4-1.1-1.1-1.1-2c0-0.7,0.3-1.3,0.8-1.7s1-0.7,1.6-0.7c0.5,0,0.9,0.1,1.3,0.4
			c0,0,0.8,0.4,2.2,1.1c1.4,0.7,3.5,1.5,6.3,2.4c2.8,0.9,6.2,1.7,10.3,2.4c4.1,0.7,8.8,1.1,14.3,1.1c5.4,0,10.1-0.4,14.3-1.3
			c4.2-0.9,7.6-2.1,10.4-3.7c2.8-1.6,4.9-3.4,6.4-5.5c1.4-2.1,2.2-4.4,2.2-6.8c0-1.5-0.3-2.7-0.8-3.8c-0.5-1.1-1.2-2-2.2-2.8
			c-0.9-0.8-2-1.4-3.3-2c-1.3-0.5-2.7-1-4.2-1.4c-1.6-0.4-3.3-0.8-5.1-1.1s-3.7-0.5-5.6-0.8c-1.9-0.2-3.8-0.4-5.8-0.6
			c-1.9-0.2-3.8-0.3-5.7-0.5l-9.6-0.8c-7.6-0.6-14.2-1.6-19.8-2.9c-5.6-1.3-10.3-3-14.1-5.1c-3.8-2.1-6.6-4.5-8.4-7.4
			c-1.8-2.9-3.1-6.1-3.1-9.9c0-3.9,0.9-7.5,2.7-10.8c1.8-3.3,4.2-6.2,7.3-8.8s6.6-4.9,10.7-6.9c4.1-1.9,8.5-3.6,13.2-4.8
			c4.7-1.3,9.5-2.3,14.5-2.9C-210.7,200.5-205.8,200.2-200.9,200.2 M-200.9,197.2c-4.9,0-10,0.3-15.1,1s-10.1,1.7-14.9,3
			c-4.8,1.3-9.4,3-13.6,5c-4.3,2-8.2,4.5-11.4,7.3c-3.3,2.9-6,6.1-7.9,9.7c-2,3.7-3,7.8-3,12.2s1.1,8.3,3.3,11.7
			c2.1,3.3,5.3,6.1,9.5,8.4c4,2.2,9,4,14.9,5.4c5.8,1.3,12.6,2.3,20.3,3l9.6,0.8c1.9,0.2,3.8,0.3,5.7,0.5c1.9,0.2,3.8,0.4,5.7,0.6
			s3.7,0.4,5.4,0.7c1.7,0.3,3.3,0.6,4.8,1c1.4,0.3,2.6,0.8,3.7,1.2c1,0.4,1.8,0.9,2.5,1.5c0.6,0.5,1.1,1.1,1.4,1.8
			c0.3,0.6,0.5,1.5,0.5,2.5c0,1.9-0.5,3.5-1.6,5.2c-1.2,1.7-3,3.2-5.4,4.6c-2.5,1.4-5.8,2.5-9.6,3.3c-3.9,0.8-8.5,1.2-13.6,1.2
			c-5.2,0-9.8-0.3-13.7-1c-3.9-0.7-7.3-1.4-9.9-2.3c-2.6-0.8-4.5-1.6-5.8-2.2c-1-0.5-1.7-0.9-2.1-1.1c-0.8-0.5-1.7-0.7-2.7-0.7
			c-1.3,0-2.6,0.5-3.6,1.4c-1.1,1-1.8,2.4-1.8,4c0,2,0.9,3.6,2.6,4.6c0.2,0.1,0.7,0.4,2.7,1.4c1.7,0.9,4,1.8,7.2,2.8
			c3,1,6.9,1.9,11.3,2.7c4.5,0.8,9.8,1.2,15.7,1.2c5.5,0,10.7-0.5,15.5-1.5c4.9-1,9.2-2.5,12.9-4.6c3.8-2.1,6.9-4.7,9.2-7.8
			c2.4-3.3,3.6-7.1,3.6-11.3c0-4.6-1.5-8.3-4.3-11.1c-2.7-2.7-6.6-4.6-12-6c-3-0.7-6.5-1.3-10.4-1.8c-3.8-0.5-8.2-0.9-13-1.3
			l-9.6-0.8c-3.3-0.3-6.5-0.6-9.8-1.1c-3.2-0.4-6.3-1-9.2-1.6c-2.9-0.7-5.6-1.5-8-2.4c-2.3-0.9-4.4-2-6.1-3.3
			c-1.6-1.2-2.8-2.6-3.7-4.1c-0.9-1.5-1.3-3.2-1.3-5.2c0-2.8,0.6-5.3,2-7.6c1.4-2.4,3.4-4.7,5.8-6.7c2.6-2.1,5.6-4,9.1-5.6
			c3.6-1.6,7.5-3,11.6-4.1c4.2-1.1,8.6-2,13.1-2.5c4.5-0.6,9.1-0.9,13.6-0.9c5.8,0,11.2,0.4,15.9,1.3c4.6,0.8,8.6,2,11.8,3.5
			c3,1.4,5.3,3.2,6.9,5.2c1.5,1.9,2.2,4,2.2,6.3c0,0.4,0,0.8-0.1,1.2c-0.2,0.8-0.2,1.6-0.2,2.5c0,1.4,0.5,2.7,1.5,3.7
			c1,1.1,2.4,1.6,4,1.6c1.2,0,2.3-0.4,3.3-1.2s1.6-1.8,1.9-3.1c0.3-1.5,0.5-3.2,0.5-4.8c0-5.1-1.7-9.8-5.2-13.8
			c-1.4-1.6-3.3-3.2-5.5-4.8c-2.3-1.6-5.1-3.1-8.6-4.3c-3.3-1.2-7.4-2.2-12-3C-189.3,197.6-194.8,197.2-200.9,197.2L-200.9,197.2z"
			/>
	</g>
	<g id="XMLID_12_">
		<path id="XMLID_151_" class="st2" d="M-151.3,297.9c-2.1,0-4-0.5-5.7-1.4c-1.6-0.9-3-2.1-4.1-3.6c-1.1-1.5-1.9-3.2-2.4-5.2
			c-0.5-1.9-0.8-4-0.8-6.2c0-6,0.4-12.1,1.1-18.1c0.1-0.9,0.5-1.7,1.2-2.4c0.7-0.7,1.7-1.1,2.8-1.1s2,0.4,2.7,1.2
			c0.7,0.8,1,1.7,1,2.6c0,0.2,0,0.7-0.2,2.4l-0.4,4.5c-0.1,1.7-0.3,3.5-0.4,5.5c-0.1,1.9-0.2,3.7-0.2,5.3c0,2,0.2,3.7,0.6,4.9
			c0.4,1.1,0.8,2,1.4,2.6c0.5,0.6,1,0.9,1.5,1.1c0.6,0.2,1.2,0.3,1.8,0.3c0.9,0,1.8-0.3,2.8-1c1.1-0.8,2.3-1.8,3.5-3.2
			c1.3-1.4,2.5-3.2,3.8-5.2c1.3-2.1,2.6-4.4,3.9-6.9c0.3-0.7,0.8-1.2,1.4-1.6c0.6-0.4,1.3-0.6,2-0.6c1.1,0,2.1,0.4,2.8,1.3
			c0.7,0.8,1,1.7,1,2.6c0,0.7-0.2,1.3-0.4,1.8c-0.5,0.9-1.1,2.1-1.9,3.5c-0.8,1.4-1.6,2.9-2.6,4.4s-2.1,3-3.2,4.5
			c-1.2,1.5-2.5,2.9-3.8,4.1c-1.4,1.2-2.9,2.2-4.4,3C-148,297.5-149.6,297.9-151.3,297.9z M-158.3,252.1c-2,0-3.7-0.7-5.1-2.1
			c-1.4-1.4-2.1-3.1-2.1-5.1c0-1,0.2-1.9,0.6-2.8c0.4-0.9,0.9-1.6,1.5-2.3c0.7-0.7,1.4-1.2,2.3-1.5c0.9-0.4,1.8-0.6,2.8-0.6
			s1.9,0.2,2.8,0.6c0.9,0.4,1.6,0.9,2.3,1.5c0.7,0.7,1.2,1.4,1.5,2.3c0.4,0.9,0.6,1.8,0.6,2.8c0,2-0.7,3.7-2.1,5.1
			C-154.6,251.4-156.3,252.1-158.3,252.1z M-158.3,244.2c-0.1,0-0.3,0-0.4,0.2c-0.2,0.2-0.2,0.3-0.2,0.5s0,0.3,0.2,0.4
			c0.1,0.1,0.3,0.2,0.4,0.2c0.2,0,0.3,0,0.5-0.2s0.2-0.3,0.2-0.4c0-0.2,0-0.3-0.2-0.5S-158.2,244.2-158.3,244.2z"/>
		<path id="XMLID_145_" class="st3" d="M-158.3,239.2c0.8,0,1.5,0.1,2.2,0.4c0.7,0.3,1.3,0.7,1.8,1.2s0.9,1.1,1.2,1.8
			c0.3,0.7,0.4,1.4,0.4,2.2c0,1.6-0.6,2.9-1.7,4c-1.1,1.1-2.4,1.7-4,1.7c-1.6,0-2.9-0.6-4-1.7c-1.1-1.1-1.7-2.4-1.7-4
			c0-0.8,0.1-1.5,0.4-2.2s0.7-1.3,1.2-1.8s1.1-0.9,1.8-1.2C-159.8,239.3-159.1,239.2-158.3,239.2 M-158.3,247c0.6,0,1.1-0.2,1.5-0.6
			c0.4-0.4,0.7-0.9,0.7-1.5s-0.2-1.1-0.7-1.5s-0.9-0.7-1.5-0.7s-1.1,0.2-1.5,0.7c-0.4,0.4-0.6,0.9-0.6,1.5s0.2,1.1,0.6,1.5
			S-158.9,247-158.3,247 M-159.1,261.4c0.6,0,1.1,0.2,1.6,0.7c0.4,0.5,0.6,1,0.6,1.7c0,0.3-0.1,1-0.2,2.3c-0.1,1.3-0.2,2.7-0.4,4.5
			c-0.1,1.7-0.3,3.6-0.4,5.5c-0.1,1.9-0.2,3.7-0.2,5.3c0,2.2,0.2,4,0.7,5.3c0.4,1.4,1,2.4,1.7,3.2c0.7,0.8,1.4,1.3,2.2,1.5
			c0.8,0.3,1.5,0.4,2.2,0.4c1.2,0,2.4-0.4,3.6-1.3c1.3-0.8,2.5-2,3.8-3.5s2.6-3.3,4-5.4c1.3-2.1,2.6-4.4,3.9-7
			c0.2-0.4,0.5-0.7,0.9-1c0.4-0.2,0.8-0.3,1.3-0.3c0.7,0,1.2,0.3,1.7,0.8s0.7,1,0.7,1.6c0,0.4-0.1,0.8-0.3,1.1
			c-0.5,1-1.1,2.1-1.9,3.5c-0.8,1.4-1.6,2.8-2.6,4.3s-2,2.9-3.2,4.3c-1.1,1.4-2.4,2.7-3.7,3.9c-1.3,1.1-2.6,2.1-4.1,2.8
			c-1.4,0.7-2.9,1.1-4.3,1.1c-1.9,0-3.5-0.4-4.9-1.2c-1.4-0.8-2.6-1.9-3.6-3.2s-1.7-2.9-2.2-4.7c-0.5-1.8-0.7-3.8-0.7-5.8
			c0-6,0.4-12,1.1-17.9c0.1-0.6,0.3-1.1,0.8-1.5S-159.8,261.4-159.1,261.4 M-158.3,236.2c-1.2,0-2.3,0.2-3.4,0.7
			c-1,0.4-2,1.1-2.8,1.9c-0.8,0.8-1.4,1.7-1.9,2.8c-0.4,1.1-0.7,2.2-0.7,3.4c0,2.4,0.9,4.5,2.5,6.2c1.7,1.7,3.8,2.5,6.2,2.5
			c2.4,0,4.5-0.9,6.2-2.5c1.7-1.7,2.5-3.8,2.5-6.2c0-1.2-0.2-2.3-0.7-3.4c-0.4-1-1.1-2-1.9-2.8c-0.8-0.8-1.7-1.4-2.8-1.9
			C-156,236.4-157.1,236.2-158.3,236.2L-158.3,236.2z M-159.1,258.4c-1.5,0-2.8,0.5-3.8,1.5c-0.9,0.9-1.5,2-1.6,3.2
			c-0.8,6.1-1.2,12.3-1.2,18.4c0,2.3,0.3,4.6,0.8,6.6c0.6,2.2,1.5,4.1,2.7,5.7c1.2,1.7,2.8,3,4.5,4c1.9,1,4,1.6,6.4,1.6
			c1.9,0,3.8-0.5,5.7-1.4c1.6-0.8,3.2-1.9,4.7-3.2c1.4-1.3,2.8-2.7,4-4.2c1.2-1.5,2.3-3,3.3-4.6c1-1.5,1.9-3,2.7-4.5
			c0.8-1.4,1.4-2.5,1.9-3.5c0.4-0.7,0.6-1.6,0.6-2.5c0-1.3-0.5-2.6-1.4-3.6c-1-1.1-2.4-1.8-3.9-1.8c-1,0-2,0.3-2.8,0.8
			c-0.9,0.5-1.5,1.3-2,2.2c-1.2,2.5-2.5,4.8-3.8,6.8c-1.2,2-2.5,3.7-3.7,5c-1.1,1.3-2.2,2.3-3.2,3c-0.7,0.5-1.4,0.7-2,0.7
			c-0.4,0-0.8-0.1-1.3-0.2c-0.3-0.1-0.6-0.3-0.9-0.7c-0.3-0.3-0.7-0.9-1-2.1c-0.3-1-0.5-2.5-0.5-4.4c0-1.6,0.1-3.3,0.2-5.2
			c0.1-1.9,0.2-3.7,0.4-5.4l0.4-4.5c0.2-1.9,0.2-2.3,0.2-2.5c0-1.3-0.5-2.6-1.4-3.6C-156.3,259-157.6,258.4-159.1,258.4
			L-159.1,258.4z"/>
	</g>
	<g id="XMLID_16_">
		<path id="XMLID_135_" class="st2" d="M-127,363.2c-3.3,0-5.9-1.3-7.7-3.8c-1.7-2.4-2.5-5.7-2.5-9.9c0-2.2,0.2-4.5,0.6-7
			c0.4-2.5,1-5.1,1.8-7.7c0.8-2.6,1.7-5.3,2.8-8c1.1-2.7,2.3-5.3,3.6-7.8s2.8-5,4.3-7.3c1.4-2.2,3-4.2,4.6-6c0-2.7,0.1-5.4,0.1-8.1
			c0-1.5,0-2.9,0.1-4.2c-0.7,0.5-1.4,1-2.2,1.4c-1.9,1-3.9,1.5-5.9,1.5c-1.7,0-3.2-0.3-4.6-1c-1.4-0.7-2.6-1.6-3.6-2.8
			c-0.9-1.2-1.7-2.5-2.2-4.1c-0.5-1.5-0.8-3.2-0.8-5c0-3.4,0.6-6.5,1.8-9.2c1.2-2.6,2.7-4.9,4.5-6.7c1.8-1.8,3.9-3.2,6.1-4.1
			c2.2-0.9,4.4-1.4,6.5-1.4c1.4,0,2.8,0.2,4,0.6c1.2,0.4,2.2,0.8,3.1,1.2c0.9,0.5,1.6,0.9,2.1,1.4c0.4,0.4,0.7,0.6,0.7,0.7
			c0.8,0.8,1.1,1.8,1.1,2.8s-0.4,1.9-1.1,2.7c-0.7,0.8-1.7,1.2-2.7,1.2c-0.9,0-1.8-0.4-2.7-1c-0.1-0.1-0.4-0.3-0.7-0.5
			c-0.2-0.2-0.5-0.4-0.8-0.6c-0.3-0.2-0.7-0.3-1.2-0.5c-0.5-0.1-1.1-0.2-1.8-0.2c-1.1,0-2.3,0.3-3.6,0.7c-1.3,0.5-2.5,1.3-3.7,2.3
			c-1.1,1.1-2.1,2.5-2.9,4.2c-0.8,1.7-1.2,3.8-1.2,6.2c0,1.7,0.3,3,1,4c0.4,0.5,1.1,1.2,2.8,1.2c0.6,0,1.3-0.2,2.1-0.6
			s1.6-1.1,2.4-2c0.8-0.9,1.5-2.1,2.2-3.5c0.6-1.4,1.1-3.2,1.4-5.2c0.1-0.9,0.6-1.8,1.3-2.4c0.7-0.6,1.6-1,2.6-1
			c1.2,0,2.1,0.5,2.8,1.3c0.6,0.8,0.9,1.7,0.9,2.6l-0.1,2c0,1.2-0.1,2.9-0.1,4.9s-0.1,4.4-0.2,7.1c0,1.3-0.1,2.6-0.1,3.9
			c6.3-8.5,10.8-15.7,13.4-21.5c0.3-0.7,0.8-1.3,1.4-1.7c0.6-0.4,1.3-0.6,2-0.6c1.1,0,2.1,0.4,2.8,1.2s1.1,1.7,1.1,2.7
			c0,0.5-0.1,1-0.3,1.5c-1.9,4.2-4.5,9-7.9,14.2c-3.3,5-7.5,10.8-12.6,17.1c0,2.4,0,4.9,0.1,7.3c0,2.7,0.1,5.6,0.1,8.6
			c0,3.1-0.1,6.3-0.2,9.4c-0.1,3.1-0.4,6.1-0.8,8.9c-0.4,2.8-0.9,5.5-1.6,7.9c-0.7,2.5-1.6,4.7-2.7,6.5c-1.1,1.9-2.5,3.4-4.1,4.5
			C-122.7,362.6-124.7,363.2-127,363.2z M-119.4,318.6c-0.9,1.5-1.8,3.1-2.6,4.7c-1.5,3.1-2.9,6.3-4,9.5s-2,6.3-2.5,9.3
			c-0.6,3-0.9,5.6-0.9,7.9c0,1.4,0.1,2.5,0.3,3.3c0.3,0.9,0.5,1.4,0.7,1.6c0.2,0.3,0.4,0.4,0.6,0.5c0.3,0.1,0.6,0.2,0.9,0.2
			c0.9,0,1.6-0.3,2.3-1.1c0.8-0.9,1.5-2.1,2.1-3.7c0.6-1.6,1.2-3.6,1.5-5.7c0.4-2.2,0.7-4.5,0.9-6.8c0.2-2.4,0.3-4.7,0.4-7.1
			c0.1-2.4,0.1-4.5,0.1-6.5C-119.4,324.6-119.4,318.8-119.4,318.6z"/>
		<path id="XMLID_129_" class="st3" d="M-119.6,263.5c1.3,0,2.5,0.2,3.6,0.5s2,0.7,2.8,1.1s1.4,0.8,1.8,1.2c0.4,0.4,0.6,0.6,0.7,0.6
			c0.5,0.5,0.7,1.1,0.7,1.7s-0.2,1.2-0.7,1.7s-1,0.7-1.6,0.7s-1.1-0.2-1.7-0.7c-0.2-0.1-0.4-0.3-0.7-0.5c-0.3-0.2-0.6-0.5-1.1-0.7
			s-1-0.5-1.6-0.6c-0.6-0.2-1.3-0.3-2.2-0.3c-1.3,0-2.6,0.3-4.1,0.8s-2.9,1.4-4.2,2.7c-1.3,1.2-2.4,2.8-3.3,4.7
			c-0.9,1.9-1.3,4.2-1.3,6.8c0,2,0.4,3.6,1.3,4.8c0.9,1.2,2.2,1.8,4.1,1.8c0.9,0,1.8-0.3,2.8-0.8s1.9-1.3,2.8-2.3
			c0.9-1,1.7-2.4,2.4-3.9c0.7-1.6,1.2-3.5,1.5-5.6c0.1-0.6,0.4-1.1,0.8-1.5c0.5-0.4,1-0.6,1.6-0.6c0.7,0,1.3,0.3,1.7,0.8
			s0.6,1.1,0.6,1.7c0,0,0,0.7-0.1,1.9c0,1.2-0.1,2.9-0.1,4.9s-0.1,4.4-0.2,7.1s-0.1,5.5-0.2,8.5c7.8-10.2,13.3-18.7,16.3-25.4
			c0.2-0.5,0.5-0.8,0.8-1c0.4-0.2,0.8-0.3,1.2-0.3c0.7,0,1.3,0.2,1.8,0.7s0.7,1,0.7,1.7c0,0.3-0.1,0.6-0.2,0.9
			c-1.8,4.2-4.4,8.8-7.8,13.9s-7.6,10.9-12.8,17.4c0,2.6,0,5.3,0.1,7.9c0,2.6,0.1,5.5,0.1,8.6s-0.1,6.2-0.2,9.3
			c-0.1,3.1-0.4,6-0.8,8.8c-0.4,2.8-0.9,5.3-1.5,7.7c-0.6,2.4-1.5,4.4-2.5,6.1c-1,1.7-2.3,3.1-3.7,4.1s-3.1,1.5-5.1,1.5
			c-2.8,0-4.9-1.1-6.4-3.2s-2.3-5.1-2.3-9.1c0-2.1,0.2-4.3,0.6-6.8c0.4-2.4,1-4.9,1.7-7.5c0.8-2.6,1.7-5.2,2.7-7.8
			c1.1-2.6,2.2-5.2,3.5-7.7s2.7-4.9,4.2-7.2s3.1-4.4,4.8-6.3c0-2.9,0.1-5.8,0.1-8.7s0.1-5.5,0.2-7.9c-1.3,1.6-2.7,2.8-4.5,3.8
			c-1.7,0.9-3.4,1.4-5.2,1.4c-1.5,0-2.8-0.3-4-0.8s-2.2-1.4-3-2.4s-1.5-2.2-1.9-3.6c-0.5-1.4-0.7-2.9-0.7-4.5c0-3.3,0.6-6.1,1.7-8.6
			c1.1-2.5,2.5-4.6,4.2-6.2c1.7-1.7,3.6-2.9,5.7-3.8C-123.5,263.9-121.5,263.5-119.6,263.5 M-126.9,357c1.3,0,2.4-0.5,3.4-1.6
			c1-1,1.8-2.4,2.4-4.2c0.7-1.7,1.2-3.7,1.6-6c0.4-2.3,0.7-4.6,0.9-7c0.2-2.4,0.4-4.8,0.4-7.2c0.1-2.4,0.1-4.6,0.1-6.6
			c0-1.8,0-3.6,0-5.4s0-3.6-0.1-5.5c-2,2.7-3.7,5.7-5.3,8.8c-1.6,3.2-2.9,6.4-4.1,9.7s-2,6.4-2.6,9.5s-0.9,5.8-0.9,8.2
			c0,1.5,0.1,2.8,0.4,3.7c0.3,0.9,0.6,1.6,1,2.1s0.8,0.8,1.3,1C-127.7,356.9-127.3,357-126.9,357 M-119.6,260.5
			c-2.3,0-4.7,0.5-7.1,1.5c-2.4,1-4.6,2.5-6.6,4.4s-3.6,4.3-4.9,7.1c-1.3,2.9-1.9,6.2-1.9,9.8c0,1.9,0.3,3.8,0.8,5.4
			c0.6,1.7,1.4,3.2,2.5,4.5c1.1,1.4,2.5,2.4,4.1,3.2s3.4,1.1,5.3,1.1c2.2,0,4.3-0.6,6.5-1.7c0,0.5,0,1,0,1.5c0,2.5,0,5-0.1,7.6
			c-1.5,1.8-3,3.7-4.4,5.8c-1.6,2.4-3,4.9-4.4,7.5c-1.3,2.6-2.6,5.3-3.6,8c-1.1,2.7-2,5.5-2.8,8.1c-0.8,2.7-1.4,5.3-1.8,7.9
			c-0.4,2.6-0.6,5-0.6,7.3c0,4.5,0.9,8.2,2.8,10.8c2.1,2.9,5.1,4.5,8.9,4.5c2.6,0,4.8-0.7,6.8-2c1.8-1.2,3.3-2.9,4.6-5
			c1.2-2,2.1-4.3,2.8-6.9c0.7-2.5,1.2-5.2,1.6-8.1c0.4-2.8,0.7-5.9,0.8-9s0.2-6.3,0.2-9.4c0-3.1,0-6-0.1-8.7c0-2.2-0.1-4.5-0.1-6.8
			c4.9-6.2,9.1-11.8,12.3-16.8c3.4-5.2,6.2-10.1,8.1-14.4c0.3-0.7,0.4-1.4,0.4-2.1c0-1.4-0.5-2.7-1.5-3.7c-1-1.1-2.4-1.6-3.9-1.6
			c-1,0-2,0.3-2.8,0.8s-1.5,1.3-1.9,2.3c-2.2,4.8-5.7,10.6-10.4,17.3c0.1-2.3,0.1-4.4,0.1-6.2c0-2,0.1-3.6,0.1-4.9v-0.5
			c0-0.9,0-1.4,0-1.5c0-1.3-0.4-2.5-1.2-3.5c-0.1-0.1-0.1-0.1-0.2-0.2c1-0.2,1.9-0.7,2.6-1.5c1-1,1.5-2.3,1.5-3.7s-0.5-2.7-1.5-3.7
			l-0.1-0.1l-0.1-0.1c0,0-0.3-0.3-0.8-0.7c-0.6-0.5-1.4-1.1-2.4-1.6c-0.9-0.5-2.1-1-3.3-1.4C-116.5,260.7-118,260.5-119.6,260.5
			L-119.6,260.5z M-127,286.9c-1.2,0-1.5-0.4-1.6-0.6c-0.5-0.7-0.8-1.7-0.8-3.1c0-2.2,0.3-4.1,1-5.6s1.6-2.8,2.6-3.7
			c1-0.9,2.1-1.6,3.2-2c1.2-0.4,2.2-0.7,3.1-0.7c0.7,0,1.1,0.1,1.4,0.1c0.4,0.1,0.7,0.3,0.9,0.3c0.4,0.2,0.5,0.3,0.6,0.4
			c0.1,0.1,0.2,0.2,0.3,0.3c-0.8,0.2-1.6,0.6-2.3,1.2c-1,0.9-1.6,2-1.8,3.3c-0.3,1.9-0.7,3.5-1.3,4.9c-0.6,1.3-1.2,2.3-1.9,3.2
			c-0.7,0.8-1.3,1.3-2,1.6C-126.1,286.7-126.6,286.9-127,286.9L-127,286.9z M-127.1,354C-127.1,353.9-127.2,353.9-127.1,354
			c-0.1-0.1-0.3-0.4-0.5-1.2c-0.1-0.4-0.3-1.3-0.3-2.8c0-2.2,0.3-4.8,0.8-7.6c0.6-2.9,1.4-6,2.5-9.1c1-2.9,2.3-5.9,3.7-8.8v0.2
			c0,1.9,0,4.1-0.1,6.5c-0.1,2.3-0.2,4.7-0.4,7s-0.5,4.5-0.9,6.7c-0.4,2.1-0.9,3.9-1.5,5.4c-0.5,1.4-1.1,2.4-1.8,3.2
			c-0.5,0.5-0.8,0.6-1.2,0.6C-126.9,354-127,354-127.1,354L-127.1,354z"/>
	</g>
	<g id="XMLID_19_">
		<path id="XMLID_107_" class="st2" d="M-54.2,296.5c-2.2,0-4-0.4-5.4-1.3c-1.4-0.9-2.5-2-3.3-3.4c-0.8-1.3-1.3-2.8-1.5-4.4
			c-0.2-1.5-0.4-3-0.4-4.6c0-0.7,0-1.4,0.1-2.2s0.1-1.7,0.3-2.6c0.1-0.9,0.2-1.7,0.2-2.6c0.1-0.8,0.1-1.6,0.1-2.4
			c0-1.4-0.3-1.7-0.3-1.7c-0.1-0.1-0.1-0.1-0.2-0.2c-0.2,0.1-0.6,0.2-1.1,0.7c-0.8,0.7-1.6,1.7-2.5,2.8c-0.9,1.2-1.9,2.6-2.8,4.1
			c-1,1.5-1.9,3.1-2.7,4.6s-1.6,3-2.4,4.4c-0.7,1.4-1.3,2.5-1.7,3.4c-1,2-1.9,3.4-3,4.1c-1.1,0.8-2.3,1.2-3.4,1.2
			c-1.6,0-2.9-0.5-4-1.5c-1-1-1.5-2.4-1.5-4.2c0-0.4,0-1,0.1-1.9s0.2-1.9,0.3-3.1s0.2-2.5,0.4-3.8l0.4-4.1c0.1-1.3,0.2-2.6,0.3-3.8
			c0.1-1.1,0.1-2.1,0.1-2.8c0-0.5,0-0.9,0-1.3c-0.9,1.4-2,3.8-3.4,7.1c-0.4,0.8-0.9,1.4-1.6,1.8c-0.7,0.4-1.4,0.6-2.1,0.6
			c-1.1,0-2.1-0.4-2.8-1.2c-0.6-0.7-1-1.7-1-2.6c0-0.5,0.1-1,0.3-1.5c2-4.7,3.8-8,5.5-10.2c1.9-2.5,4-3.7,6.1-3.7
			c1.3,0,2.4,0.3,3.3,1c0.9,0.6,1.6,1.4,2.1,2.5c0.5,0.9,0.8,1.9,1,3c0.2,1,0.3,2.1,0.3,3.2c0,0.8-0.1,2-0.2,3.6
			c-0.1,1.6-0.2,3.3-0.4,5.1c-0.1,0.8-0.1,1.6-0.2,2.4c0.5-1,1.1-1.9,1.7-2.9c1-1.7,2.1-3.4,3.2-5.1c1.1-1.7,2.3-3.3,3.6-4.9
			c1.3-1.6,2.7-2.8,4.1-3.5c1.4-0.8,2.8-1.1,4.2-1.1c2.7,0,4.8,1.1,6.1,3.1c1.2,1.8,1.8,4.1,1.8,6.7c0,0.6,0,1.3-0.1,2.1
			s-0.1,1.6-0.2,2.5l-0.2,2.7c-0.1,0.9-0.1,1.7-0.1,2.4c0,0.9,0,1.9,0.1,2.7s0.2,1.4,0.5,2c0.2,0.4,0.4,0.8,0.8,1
			c0.3,0.2,0.7,0.3,1.2,0.3c1.2,0,2.4-0.5,3.7-1.5c1.4-1.1,2.7-2.5,3.9-4.1c1.2-1.6,2.3-3.3,3.2-5c0.9-1.7,1.6-3.1,2-4.1
			c0.3-0.8,0.8-1.3,1.5-1.7c0.6-0.4,1.3-0.6,2.1-0.6c1.2,0,2.1,0.5,2.9,1.3c0.7,0.8,1,1.7,1,2.6c0,0.5-0.1,1-0.3,1.5
			c-0.2,0.4-0.5,1.1-1,2.1c-0.5,1.1-1.2,2.3-2,3.7s-1.8,2.9-2.9,4.4c-1.1,1.6-2.4,3.1-3.8,4.4c-1.4,1.3-2.9,2.5-4.6,3.4
			C-50.4,296-52.3,296.5-54.2,296.5z"/>
		<path id="XMLID_103_" class="st3" d="M-86.9,261.6c1,0,1.8,0.2,2.4,0.7c0.7,0.5,1.2,1.1,1.6,1.9c0.4,0.8,0.7,1.7,0.9,2.6
			c0.2,1,0.3,1.9,0.3,2.9c0,0.8-0.1,1.9-0.2,3.5c-0.1,1.6-0.2,3.3-0.4,5.1s-0.3,3.6-0.5,5.4c-0.1,1.8-0.3,3.3-0.4,4.5
			c0.7-1.4,1.4-2.9,2.3-4.5c0.9-1.6,1.8-3.3,2.8-5s2.1-3.4,3.2-5c1.1-1.7,2.3-3.3,3.5-4.8s2.4-2.5,3.7-3.2c1.2-0.6,2.4-1,3.5-1
			c2.2,0,3.8,0.8,4.8,2.4c1,1.6,1.6,3.5,1.6,5.9c0,0.5,0,1.2-0.1,2s-0.1,1.6-0.2,2.5s-0.1,1.8-0.2,2.7c-0.1,0.9-0.1,1.7-0.1,2.5
			c0,1,0.1,2,0.2,2.9c0.1,0.9,0.3,1.7,0.6,2.4c0.3,0.7,0.7,1.2,1.3,1.6c0.5,0.4,1.3,0.6,2.1,0.6c1.6,0,3.1-0.6,4.6-1.8
			s2.9-2.7,4.2-4.4s2.4-3.4,3.3-5.2c0.9-1.8,1.6-3.2,2.1-4.3c0.2-0.5,0.5-0.8,0.9-1.1s0.8-0.4,1.3-0.4c0.7,0,1.3,0.3,1.7,0.8
			s0.7,1.1,0.7,1.7c0,0.3-0.1,0.6-0.2,0.9c-0.2,0.3-0.5,1-1,2.1c-0.5,1-1.2,2.2-2,3.6c-0.8,1.4-1.8,2.8-2.8,4.3
			c-1.1,1.5-2.3,2.9-3.6,4.2s-2.7,2.3-4.3,3.1c-1.5,0.8-3.1,1.3-4.8,1.3c-1.9,0-3.4-0.4-4.6-1.1c-1.2-0.7-2.1-1.7-2.8-2.9
			c-0.7-1.2-1.1-2.5-1.3-3.9c-0.2-1.4-0.3-2.9-0.3-4.3c0-0.6,0-1.3,0.1-2.1s0.1-1.6,0.3-2.5c0.1-0.9,0.2-1.8,0.3-2.6
			s0.1-1.7,0.1-2.5c0-1.3-0.2-2.2-0.6-2.7c-0.4-0.5-0.8-0.7-1.1-0.7c-0.7,0-1.4,0.4-2.3,1.2c-0.9,0.8-1.8,1.8-2.7,3
			c-0.9,1.2-1.9,2.7-2.9,4.2c-1,1.6-1.9,3.1-2.8,4.7c-0.9,1.5-1.6,3-2.4,4.4c-0.7,1.4-1.3,2.6-1.7,3.5c-0.8,1.8-1.7,2.9-2.5,3.5
			c-0.8,0.6-1.7,0.9-2.6,0.9c-1.2,0-2.2-0.4-2.9-1.1c-0.7-0.7-1.1-1.8-1.1-3.1c0-0.3,0-0.9,0.1-1.7c0.1-0.9,0.2-1.9,0.3-3.1
			s0.3-2.5,0.4-3.8c0.1-1.3,0.3-2.7,0.4-4.1c0.1-1.4,0.2-2.6,0.3-3.8s0.1-2.1,0.1-2.9c0-1,0-2-0.1-3s-0.3-1.5-0.5-1.8
			c-0.4,0.1-1,0.9-2,2.3c-1,1.4-2.2,4-3.7,7.6c-0.2,0.5-0.5,0.8-0.9,1.1s-0.9,0.4-1.3,0.4c-0.7,0-1.3-0.2-1.7-0.7s-0.6-1-0.6-1.7
			c0-0.3,0.1-0.6,0.2-0.9c1.9-4.5,3.6-7.7,5.3-9.8C-90.1,262.7-88.5,261.6-86.9,261.6 M-86.9,258.6c-2.6,0-5,1.4-7.3,4.3
			c-1.8,2.3-3.7,5.8-5.7,10.5v0.1v0.1c-0.3,0.7-0.4,1.3-0.4,2c0,1.3,0.5,2.6,1.4,3.6c1,1.1,2.4,1.7,3.9,1.7c1,0,2-0.3,2.9-0.8
			c0.9-0.6,1.7-1.4,2.1-2.4l0,0l0,0c0.1-0.1,0.1-0.3,0.2-0.4c0,0.2,0,0.3,0,0.5c-0.1,1.4-0.3,2.7-0.4,4.1c-0.1,1.4-0.2,2.6-0.4,3.8
			c-0.1,1.2-0.2,2.2-0.3,3.1c-0.1,1.3-0.1,1.8-0.1,2c0,2.7,1.1,4.3,2,5.2c1.3,1.3,3,2,5,2c1.5,0,3-0.5,4.3-1.5
			c1.3-0.9,2.4-2.4,3.4-4.7l0,0l0,0c0.4-0.9,0.9-2,1.6-3.3c0.7-1.4,1.5-2.8,2.3-4.3s1.7-3,2.7-4.5c0.9-1.5,1.8-2.8,2.7-4
			c0.4-0.6,0.9-1.1,1.3-1.6c0,0.4,0,0.9-0.1,1.3c-0.1,0.8-0.1,1.6-0.2,2.5c-0.1,0.9-0.2,1.8-0.3,2.6c-0.1,0.9-0.1,1.7-0.1,2.4
			c0,1.6,0.1,3.2,0.4,4.8c0.3,1.8,0.9,3.4,1.7,4.9c0.9,1.6,2.2,3,3.8,4s3.7,1.5,6.2,1.5c2.2,0,4.3-0.5,6.2-1.6
			c1.7-1,3.4-2.2,4.9-3.6c1.4-1.4,2.8-2.9,4-4.6c1.1-1.6,2.1-3.1,3-4.5c0.9-1.4,1.6-2.7,2.1-3.8c0.5-1,0.8-1.7,1-2v-0.1v-0.1
			c0.3-0.7,0.4-1.4,0.4-2.1c0-1.3-0.5-2.5-1.4-3.6c-1-1.2-2.4-1.9-4-1.9c-1,0-2,0.3-2.9,0.8c-0.9,0.6-1.6,1.4-2,2.4l0,0l0,0
			c-0.4,1-1.1,2.3-2,4c-0.9,1.6-1.9,3.2-3.1,4.8c-1.1,1.5-2.4,2.8-3.7,3.9c-1,0.8-1.8,1.2-2.7,1.2c-0.2,0-0.3,0-0.4,0
			c-0.1,0-0.1-0.1-0.2-0.3c-0.2-0.4-0.3-1-0.4-1.6c-0.1-0.8-0.1-1.7-0.1-2.5c0-0.7,0-1.5,0.1-2.3l0.2-2.7c0.1-0.9,0.1-1.7,0.2-2.4
			c0.1-0.9,0.1-1.6,0.1-2.2c0-2.9-0.7-5.4-2.1-7.5c-1.1-1.7-3.3-3.7-7.3-3.7c-1.6,0-3.2,0.4-4.9,1.3c-1.6,0.8-3.1,2.1-4.6,3.9
			c-1.3,1.6-2.5,3.3-3.7,5c-0.5,0.8-1.1,1.6-1.6,2.4c0-0.3,0-0.7,0.1-1c0.1-1.7,0.2-2.9,0.2-3.7c0-1.2-0.1-2.4-0.3-3.5
			c-0.2-1.2-0.6-2.4-1.1-3.4c-0.6-1.2-1.5-2.2-2.5-3C-83.9,259.1-85.3,258.6-86.9,258.6L-86.9,258.6z"/>
	</g>
	<g id="XMLID_21_">
		<path id="XMLID_102_" class="st2" d="M-10.4,296.5c-2.8,0-5.2-0.9-7.1-2.7c-1.2-1.1-2.1-2.4-2.9-3.8c-1.2,1.5-2.5,2.7-3.9,3.8
			c-2.2,1.6-4.5,2.4-6.7,2.4c-1.7,0-3.4-0.3-4.8-1c-1.4-0.7-2.7-1.6-3.7-2.8s-1.8-2.5-2.3-4.1c-0.5-1.5-0.8-3.2-0.8-5
			c0-3.4,0.6-6.5,1.8-9.2c1.2-2.6,2.7-4.9,4.5-6.7s3.9-3.2,6.1-4.1c2.2-0.9,4.4-1.4,6.5-1.4c1.4,0,2.8,0.2,4,0.6
			c1.2,0.4,2.2,0.8,3,1.3c0.9,0.5,1.5,0.9,2,1.3s0.7,0.6,0.8,0.7h0.1v0.1c0.7,0.8,1,1.7,1,2.7s-0.4,1.9-1.1,2.7
			c-0.7,0.8-1.7,1.2-2.7,1.2c-1.1,0-2-0.4-2.7-1.1c-0.1-0.1-0.2-0.2-0.4-0.4c-0.1-0.1-0.4-0.3-0.9-0.6c-0.4-0.2-0.9-0.4-1.5-0.6
			s-1.2-0.2-1.9-0.2c-1.1,0-2.3,0.3-3.6,0.8s-2.4,1.3-3.5,2.4c-1.1,1.1-2,2.5-2.7,4.2c-0.7,1.7-1.1,3.7-1.1,6c0,0.7,0.1,1.4,0.2,2.1
			c0.1,0.6,0.4,1.2,0.7,1.7s0.7,0.8,1.2,1.1s1.1,0.4,1.9,0.4c0.5,0,1.2-0.2,1.9-0.6c0.8-0.4,1.6-1.1,2.4-2c0.8-0.9,1.5-2.1,2.2-3.6
			c0.7-1.4,1.1-3.2,1.4-5.2c0.1-0.9,0.6-1.8,1.3-2.4c0.7-0.6,1.6-1,2.6-1s1.9,0.4,2.6,1.2c0.7,0.7,1.1,1.6,1.1,2.5
			c0,0.8,0.1,1.9,0.2,3.3c0.1,1.3,0.4,2.7,0.8,4c0.4,1.2,0.9,2.3,1.7,3.2c0.6,0.7,1.4,1,2.5,1c0.7,0,1.5-0.2,2.2-0.6
			c0.9-0.5,1.7-1.1,2.6-1.9c0.9-0.8,1.7-1.8,2.5-2.9c0.8-1.1,1.6-2.2,2.3-3.4c0.7-1.1,1.3-2.2,1.8-3.3c0.5-1.1,1-2,1.4-2.8
			c0.3-0.7,0.8-1.3,1.5-1.7c0.6-0.4,1.3-0.6,2.1-0.6c1.2,0,2.1,0.5,2.9,1.3c0.7,0.8,1,1.7,1,2.6c0,0.5-0.1,1-0.3,1.5
			c-0.2,0.4-0.5,1.1-1.1,2.2c-0.5,1.1-1.2,2.4-2.1,3.8c-0.8,1.4-1.8,2.9-2.9,4.4c-1.1,1.6-2.4,3-3.8,4.3c-1.4,1.3-3,2.5-4.6,3.3
			C-6.6,296-8.5,296.5-10.4,296.5z"/>
		<path id="XMLID_98_" class="st3" d="M-23.7,263.5c1.3,0,2.5,0.2,3.6,0.5c1.1,0.4,2,0.7,2.8,1.2c0.8,0.4,1.4,0.8,1.8,1.2
			c0.4,0.4,0.6,0.6,0.7,0.6c0.5,0.5,0.7,1.1,0.7,1.7c0,0.6-0.2,1.2-0.7,1.7s-1,0.7-1.6,0.7c-0.7,0-1.2-0.2-1.7-0.7
			c-0.1-0.1-0.3-0.2-0.6-0.5c-0.3-0.2-0.7-0.5-1.2-0.7c-0.5-0.2-1.1-0.5-1.8-0.7s-1.5-0.3-2.3-0.3c-1.3,0-2.7,0.3-4.1,0.9
			c-1.5,0.6-2.8,1.5-4,2.7s-2.2,2.8-3,4.6c-0.8,1.9-1.2,4.1-1.2,6.6c0,0.8,0.1,1.6,0.3,2.4c0.2,0.8,0.5,1.6,0.9,2.2
			c0.4,0.7,1,1.2,1.7,1.6c0.7,0.4,1.6,0.6,2.6,0.6c0.8,0,1.6-0.3,2.6-0.8s1.9-1.3,2.8-2.3c0.9-1,1.7-2.4,2.4-3.9
			c0.7-1.6,1.2-3.5,1.5-5.6c0.1-0.6,0.4-1.1,0.8-1.5c0.5-0.4,1-0.6,1.6-0.6s1.1,0.2,1.5,0.7s0.7,1,0.7,1.6c0,0.8,0.1,1.9,0.3,3.3
			c0.2,1.4,0.4,2.9,0.8,4.3c0.4,1.4,1.1,2.6,2,3.7c0.9,1,2.1,1.6,3.6,1.6c1,0,2-0.3,3-0.8s1.9-1.3,2.9-2.2c0.9-0.9,1.8-1.9,2.7-3.1
			c0.9-1.1,1.6-2.3,2.3-3.5c0.7-1.2,1.3-2.3,1.9-3.4c0.5-1.1,1-2,1.4-2.8c0.2-0.5,0.5-0.8,0.9-1.1s0.8-0.4,1.3-0.4
			c0.7,0,1.3,0.3,1.7,0.8c0.4,0.5,0.7,1.1,0.7,1.7c0,0.3-0.1,0.6-0.2,0.9c-0.2,0.3-0.5,1-1,2.1s-1.2,2.3-2,3.7
			c-0.8,1.4-1.8,2.8-2.8,4.3c-1.1,1.5-2.3,2.9-3.6,4.1c-1.3,1.3-2.8,2.3-4.3,3.1s-3.2,1.2-4.9,1.2c-2.4,0-4.4-0.8-6.1-2.3
			c-1.6-1.5-2.8-3.5-3.6-5.8c-1.4,2.4-3.1,4.3-5.1,5.7s-3.9,2.1-5.9,2.1c-1.5,0-2.9-0.3-4.2-0.8s-2.3-1.4-3.2-2.4s-1.6-2.2-2-3.6
			c-0.5-1.4-0.7-2.9-0.7-4.5c0-3.3,0.6-6.1,1.7-8.6c1.1-2.5,2.5-4.6,4.2-6.2c1.7-1.7,3.6-2.9,5.7-3.8
			C-27.6,263.9-25.6,263.5-23.7,263.5 M-23.7,260.5c-2.3,0-4.7,0.5-7.1,1.5c-2.4,1-4.6,2.5-6.6,4.4s-3.6,4.3-4.9,7.1
			c-1.3,2.9-1.9,6.2-1.9,9.8c0,2,0.3,3.8,0.9,5.5c0.6,1.7,1.5,3.3,2.6,4.6c1.2,1.4,2.6,2.4,4.2,3.2c1.6,0.7,3.5,1.1,5.4,1.1
			c2.6,0,5.1-0.9,7.6-2.7c1-0.7,1.9-1.5,2.8-2.4c0.6,0.9,1.3,1.6,2.1,2.4c2.2,2.1,5,3.1,8.1,3.1c2.2,0,4.3-0.5,6.3-1.6
			c1.8-0.9,3.4-2.1,5-3.6c1.5-1.4,2.8-2.9,4-4.6c1.1-1.6,2.1-3.1,3-4.5c0.8-1.4,1.6-2.7,2.1-3.9c0.5-1.1,0.9-1.7,1-2.1v-0.1v-0.1
			c0.3-0.7,0.4-1.4,0.4-2.1c0-1.3-0.5-2.5-1.4-3.6c-1-1.2-2.4-1.9-4-1.9c-1,0-2,0.3-2.9,0.8c-0.9,0.6-1.6,1.4-2,2.4
			c-0.3,0.7-0.8,1.7-1.3,2.7s-1.1,2.1-1.8,3.2c-0.7,1.1-1.4,2.2-2.2,3.2c-0.8,1-1.5,1.9-2.4,2.7c-0.7,0.7-1.5,1.3-2.3,1.7
			c-0.5,0.3-1,0.4-1.5,0.4c-0.9,0-1.2-0.3-1.3-0.5c-0.6-0.7-1.1-1.6-1.4-2.6c-0.4-1.2-0.6-2.4-0.7-3.7c-0.1-1.4-0.2-2.5-0.2-3.2l0,0
			l0,0c-0.1-1.2-0.6-2.4-1.5-3.3c1-0.2,1.9-0.7,2.7-1.5c1-1,1.5-2.3,1.5-3.7c0-1.3-0.5-2.5-1.4-3.6l-0.1-0.1l-0.1-0.1
			c-0.1-0.1-0.2-0.2-0.8-0.7s-1.3-1-2.3-1.5c-0.9-0.5-2-1-3.3-1.4C-20.6,260.7-22.1,260.5-23.7,260.5L-23.7,260.5z M-31,286.9
			c-0.5,0-0.9-0.1-1.1-0.2c-0.3-0.2-0.5-0.4-0.7-0.6c-0.2-0.4-0.4-0.8-0.5-1.2c-0.1-0.6-0.2-1.2-0.2-1.8c0-2.1,0.3-3.9,1-5.4
			s1.5-2.8,2.4-3.7s1.9-1.6,3-2s2.1-0.7,3-0.7c0.6,0,1.1,0.1,1.6,0.2c0.5,0.1,0.9,0.3,1.2,0.4c0.4,0.2,0.6,0.4,0.7,0.4
			c0.1,0,0.1,0.1,0.2,0.1c-0.9,0.2-1.6,0.6-2.3,1.2c-1,0.9-1.6,2-1.8,3.3c-0.3,1.9-0.7,3.5-1.3,4.8c-0.6,1.3-1.3,2.4-2,3.2
			c-0.6,0.7-1.3,1.3-1.9,1.6C-30.6,286.9-30.9,286.9-31,286.9L-31,286.9z"/>
	</g>
	<g id="XMLID_23_">
		<path id="XMLID_119_" class="st2" d="M20.3,296.4c-3.2,0-6.1-1.1-8.7-3.2c-2.5-2-4.6-4.8-6.2-8.4c-1.7-3.5-2.9-7.6-3.8-12.4
			c-0.8-4.7-1.3-9.9-1.3-15.5c0-1.4,0-3,0.1-4.9c0-1.8,0.1-3.8,0.3-5.9c0.1-2.1,0.3-4.3,0.6-6.5c0.2-1.6,0.4-3.2,0.7-4.7h-20.6
			c-1,0-1.9-0.3-2.7-1s-1.2-1.6-1.2-2.7s0.4-2,1.2-2.7c0.7-0.6,1.6-1,2.7-1H3.8c0.4-1.2,0.8-2.2,1.2-3.2c0.6-1.4,1.3-2.6,2.1-3.6
			c0.8-1.1,1.8-1.9,2.9-2.5c1.1-0.7,2.4-1,3.7-1c1.3,0,2.5,0.3,3.6,1c1,0.6,1.8,1.5,2.4,2.6c0.6,1,1.1,2.3,1.4,3.6
			c0.2,0.9,0.4,1.9,0.6,3h30.6c1,0,1.9,0.3,2.7,1c0.8,0.7,1.2,1.6,1.2,2.7c0,1.1-0.4,2-1.2,2.7c-0.7,0.6-1.6,1-2.7,1H22
			c0,2.4-0.2,4.9-0.6,7.5c-0.4,2.9-0.9,5.8-1.6,8.7s-1.4,5.7-2.2,8.4c-0.8,2.7-1.7,5.3-2.5,7.6c-0.9,2.3-1.7,4.4-2.6,6.1
			c-0.7,1.4-1.3,2.5-1.9,3.4c0.5,1.6,1,3.1,1.7,4.4c0.7,1.5,1.5,2.9,2.4,4c0.8,1.1,1.7,2,2.7,2.6c0.8,0.6,1.7,0.8,2.7,0.8
			c1.1,0,2.2-0.5,3.4-1.5c1.3-1.1,2.6-2.5,3.8-4.1c1.2-1.6,2.2-3.3,3.1-5s1.6-3,2-4c0.7-1.6,1.9-2.4,3.6-2.4c1.1,0,2.1,0.4,2.8,1.3
			c0.7,0.8,1,1.7,1,2.6c0,0.5-0.1,1-0.3,1.5c-0.1,0.3-0.4,1-0.9,2c-0.5,1.1-1.1,2.3-1.9,3.7s-1.7,2.9-2.8,4.4
			c-1.1,1.6-2.3,3.1-3.6,4.4c-1.4,1.3-2.8,2.5-4.4,3.4C24,296,22.2,296.4,20.3,296.4z M9.7,235.1c-0.5,2.3-0.8,5.1-1.1,8.2
			c-0.3,3.7-0.5,8.4-0.5,13.8c0,3,0.1,5.5,0.2,7.5c0.4-1.2,0.8-2.4,1.2-3.6c1-3.1,1.9-6.3,2.6-9.5s1.3-6.4,1.7-9.4
			c0.3-2.5,0.5-4.8,0.6-6.9L9.7,235.1L9.7,235.1z M13.8,227.7c-0.2-0.8-0.3-1.5-0.6-2.1c0-0.1-0.1-0.2-0.1-0.2
			c-0.1,0.1-0.2,0.2-0.3,0.4c-0.3,0.3-0.6,0.9-1.1,1.9C11.7,227.7,13.8,227.7,13.8,227.7z"/>
		<path id="XMLID_113_" class="st3" d="M13.6,218.9c1,0,1.9,0.3,2.7,0.8c0.8,0.5,1.4,1.2,2,2.2c0.5,0.9,1,2,1.3,3.3s0.6,2.6,0.7,4.1
			h31.9c0.7,0,1.2,0.2,1.7,0.6s0.7,0.9,0.7,1.6c0,0.7-0.2,1.2-0.7,1.6s-1,0.6-1.7,0.6H20.5v0.7c0,2.5-0.2,5.3-0.6,8.1
			c-0.4,2.9-0.9,5.7-1.5,8.6c-0.6,2.9-1.4,5.6-2.2,8.3c-0.8,2.7-1.6,5.2-2.5,7.5s-1.7,4.3-2.5,6s-1.6,2.9-2.3,3.8
			c0.5,1.9,1.2,3.7,1.9,5.3c0.8,1.6,1.6,3.1,2.5,4.3c0.9,1.2,1.9,2.2,3,2.9c1.1,0.7,2.3,1.1,3.5,1.1c1.5,0,2.9-0.6,4.3-1.8
			s2.8-2.7,4-4.4s2.3-3.4,3.3-5.1c0.9-1.7,1.6-3.1,2-4.2c0.4-1,1.1-1.5,2.2-1.5c0.7,0,1.3,0.3,1.7,0.8s0.7,1,0.7,1.6
			c0,0.3-0.1,0.6-0.2,0.9c-0.1,0.3-0.4,1-0.9,2s-1.1,2.3-1.9,3.6c-0.8,1.4-1.7,2.8-2.7,4.3s-2.2,2.9-3.4,4.2
			c-1.3,1.3-2.6,2.3-4.1,3.1s-3,1.3-4.6,1.3c-2.9,0-5.5-0.9-7.8-2.8s-4.2-4.5-5.8-7.9c-1.6-3.4-2.8-7.4-3.7-12
			c-0.8-4.6-1.3-9.7-1.3-15.2c0-1.4,0-3,0.1-4.8c0-1.9,0.1-3.8,0.3-5.9s0.3-4.2,0.6-6.4c0.3-2.2,0.6-4.3,1-6.4h-22.4
			c-0.7,0-1.2-0.2-1.7-0.6c-0.5-0.4-0.7-0.9-0.7-1.6s0.2-1.2,0.7-1.6c0.5-0.4,1-0.6,1.7-0.6H4.7c0.4-1.5,0.9-2.9,1.5-4.1
			c0.6-1.2,1.2-2.3,1.9-3.3c0.7-0.9,1.5-1.6,2.4-2.2C11.5,219.1,12.5,218.9,13.6,218.9 M9.6,229.2h6c-0.2-1.8-0.5-3.1-0.9-4.1
			s-0.8-1.5-1.3-1.5c-0.4,0-0.9,0.4-1.6,1.2C11,225.6,10.3,227.1,9.6,229.2 M15.8,233.6H8.4c-0.6,2.6-1.1,5.8-1.4,9.6
			c-0.4,3.8-0.5,8.4-0.5,13.9c0,3,0.1,5.6,0.3,7.7c0.2,2.1,0.4,3.9,0.8,5.6c1.3-2.8,2.4-5.7,3.4-8.9s1.9-6.4,2.6-9.7
			s1.3-6.4,1.7-9.6C15.6,239.1,15.8,236.2,15.8,233.6 M13.6,215.9c-1.6,0-3.1,0.4-4.5,1.2c-1.2,0.7-2.3,1.7-3.3,2.9
			c-0.9,1.1-1.7,2.4-2.3,3.9c-0.3,0.7-0.6,1.5-0.9,2.4h-21.3c-1.4,0-2.6,0.5-3.6,1.3c-1.1,1-1.7,2.3-1.7,3.9c0,1.5,0.6,2.9,1.7,3.9
			c1,0.9,2.3,1.3,3.6,1.3H0.2c-0.2,1-0.3,2-0.4,3.1c-0.3,2.2-0.4,4.4-0.6,6.5c-0.1,2.1-0.2,4.1-0.3,6c0,1.9-0.1,3.5-0.1,4.9
			c0,5.7,0.4,10.9,1.3,15.7c0.9,4.9,2.2,9.2,3.9,12.8c1.8,3.8,4,6.8,6.7,8.9c2.8,2.3,6.1,3.5,9.6,3.5c2.1,0,4.2-0.6,6.1-1.6
			c1.7-1,3.3-2.2,4.7-3.6c1.4-1.4,2.7-2.9,3.8-4.6c1.1-1.6,2-3.1,2.8-4.5c0.8-1.4,1.5-2.7,2-3.8s0.8-1.8,0.9-2.1
			c0.3-0.7,0.4-1.4,0.4-2.1c0-1.3-0.5-2.6-1.4-3.6c-1-1.1-2.4-1.8-4-1.8c-2.3,0-4.1,1.2-5,3.3c-0.4,1-1,2.3-1.9,3.9s-1.9,3.2-3,4.8
			c-1.1,1.5-2.3,2.8-3.5,3.9c-0.9,0.7-1.7,1.1-2.4,1.1c-0.7,0-1.3-0.2-1.9-0.6c-0.8-0.5-1.6-1.3-2.3-2.2c-0.8-1-1.5-2.3-2.2-3.7
			c-0.5-1.1-1-2.3-1.4-3.6c0.5-0.8,1.1-1.8,1.6-3c0.9-1.8,1.8-3.9,2.7-6.2c0.9-2.4,1.7-4.9,2.6-7.7c0.8-2.8,1.6-5.6,2.2-8.5
			c0.7-2.9,1.2-5.9,1.6-8.9c0.3-2.1,0.5-4.2,0.5-6.2h28.7c1.4,0,2.6-0.5,3.6-1.3c1.1-1,1.7-2.3,1.7-3.9c0-1.5-0.6-2.9-1.7-3.9
			c-1-0.9-2.3-1.3-3.7-1.3H22.5c-0.1-0.6-0.3-1.3-0.4-1.9c-0.4-1.5-0.9-2.9-1.6-4c-0.8-1.3-1.7-2.3-2.9-3.1
			C16.7,216.3,15.2,215.9,13.6,215.9L13.6,215.9z M10.9,236.6h1.8c-0.1,1.7-0.3,3.4-0.5,5.2c-0.4,3-0.9,6.1-1.6,9.3
			c-0.3,1.5-0.7,3-1.1,4.5c0-4.7,0.2-8.8,0.5-12.1C10.3,240.9,10.6,238.6,10.9,236.6L10.9,236.6z"/>
	</g>
	<g id="XMLID_27_">
		<path id="XMLID_82_" class="st2" d="M64.3,296.5c-2.8,0-5.2-0.8-7.1-2.5c-1.2-1-2.2-2.4-3-4c-1.2,1.5-2.5,2.7-3.9,3.7
			c-2.2,1.6-4.4,2.3-6.7,2.3c-1.8,0-3.4-0.3-4.9-1c-1.4-0.7-2.7-1.6-3.8-2.8c-1-1.2-1.8-2.7-2.4-4.4c-0.5-1.6-0.8-3.5-0.8-5.5
			c0-3,0.3-5.8,0.9-8.1c0.6-2.3,1.2-4.3,1.9-5.9c0.7-1.6,1.7-3.3,2.9-4.9c0.4-0.5,0.9-0.8,1.4-1.1c0.5-0.2,1-0.3,1.5-0.3
			c1.1,0,2,0.4,2.8,1.2c0.7,0.8,1,1.7,1,2.7c0,0.4-0.1,0.9-0.3,1.3c-0.1,0.3-0.2,0.6-0.4,0.8c-0.2,0.4-0.6,1-1.1,1.8
			c-0.4,0.7-0.9,1.6-1.3,2.8c-0.5,1.2-0.9,2.6-1.2,4.2c-0.3,1.6-0.5,3.4-0.5,5.5c0,2.1,0.4,3.7,1.2,4.7c0.7,0.9,1.6,1.3,3,1.3
			c0.5,0,1.2-0.2,1.9-0.6c0.8-0.4,1.6-1,2.4-1.9c0.8-0.9,1.6-2,2.2-3.4c0.6-1.4,1.1-3.1,1.2-5l0.9-10.7c0.1-1,0.6-1.9,1.3-2.5
			c0.7-0.7,1.6-1,2.6-1c1.2,0,2.2,0.5,2.9,1.3c0.6,0.8,1,1.7,1,2.7v0.1l-0.8,10.4c-0.1,0.8,0,1.9,0.1,3.2c0.1,1.3,0.4,2.6,0.8,3.9
			c0.4,1.2,1,2.2,1.7,3c0.6,0.7,1.4,1,2.5,1c0.8,0,1.6-0.2,2.5-0.7s1.8-1.2,2.7-2c0.9-0.8,1.7-1.8,2.5-2.9c0.8-1.1,1.5-2.2,2.2-3.4
			c0.7-1.1,1.2-2.2,1.7-3.2c0.5-1.1,0.9-1.9,1.2-2.7c0.3-0.7,0.8-1.3,1.4-1.7c0.6-0.4,1.3-0.6,2.1-0.6c1.5,0,2.4,0.7,2.9,1.3
			c0.6,0.8,1,1.6,1,2.6c0,0.5-0.1,1.1-0.3,1.5c-0.2,0.4-0.5,1.1-1,2.1c-0.5,1.1-1.2,2.4-1.9,3.8c-0.8,1.4-1.8,2.9-2.9,4.4
			c-1.1,1.6-2.4,3-3.8,4.4c-1.4,1.4-3,2.5-4.7,3.4C68.3,296,66.3,296.5,64.3,296.5z"/>
		<path id="XMLID_77_" class="st3" d="M40.5,263.6c0.7,0,1.2,0.2,1.7,0.7c0.4,0.5,0.7,1,0.7,1.7c0,0.3-0.1,0.5-0.2,0.8
			s-0.2,0.5-0.3,0.8c-0.2,0.4-0.5,0.9-1,1.7s-0.9,1.8-1.4,3s-0.9,2.7-1.3,4.4s-0.6,3.6-0.6,5.8c0,2.5,0.5,4.3,1.5,5.6
			c1,1.3,2.4,1.9,4.2,1.9c0.8,0,1.6-0.2,2.6-0.7s1.9-1.2,2.9-2.2s1.8-2.3,2.5-3.8s1.2-3.4,1.4-5.4l0.9-10.8c0.1-0.6,0.4-1.1,0.8-1.6
			c0.5-0.4,1-0.6,1.6-0.6c0.7,0,1.3,0.3,1.7,0.8c0.4,0.5,0.6,1.1,0.6,1.8L58,277.9c-0.1,0.9-0.1,2,0.1,3.4c0.1,1.4,0.4,2.8,0.9,4.2
			s1.1,2.6,2.1,3.5c0.9,1,2.1,1.5,3.6,1.5c1.1,0,2.1-0.3,3.2-0.8c1-0.6,2-1.3,3-2.2s1.8-1.9,2.7-3.1c0.8-1.1,1.6-2.3,2.3-3.5
			c0.7-1.2,1.3-2.3,1.8-3.3s0.9-2,1.3-2.7c0.2-0.5,0.5-0.8,0.9-1.1s0.8-0.4,1.3-0.4c0.8,0,1.3,0.3,1.8,0.8c0.4,0.5,0.6,1,0.6,1.6
			c0,0.3-0.1,0.6-0.2,0.9c-0.2,0.3-0.5,1-1,2.1c-0.5,1.1-1.1,2.3-1.9,3.6c-0.8,1.4-1.7,2.8-2.8,4.3c-1.1,1.5-2.3,2.9-3.6,4.2
			c-1.3,1.3-2.8,2.3-4.3,3.1c-1.5,0.8-3.2,1.2-5,1.2c-2.5,0-4.5-0.7-6.1-2.1s-2.8-3.4-3.6-6c-1.5,2.4-3.2,4.3-5.1,5.6
			s-3.9,2.1-5.8,2.1c-1.6,0-3-0.3-4.3-0.9s-2.3-1.4-3.3-2.5c-0.9-1.1-1.6-2.3-2.1-3.8s-0.7-3.2-0.7-5.1c0-2.9,0.3-5.5,0.8-7.8
			s1.2-4.1,1.8-5.7c0.7-1.5,1.6-3.1,2.8-4.7c0.2-0.3,0.5-0.4,0.8-0.6S40.2,263.6,40.5,263.6 M40.5,260.6c-0.7,0-1.4,0.1-2.1,0.4
			c-0.8,0.3-1.4,0.8-2,1.4l-0.1,0.1l-0.1,0.1c-1.3,1.8-2.3,3.5-3.1,5.2c-0.7,1.7-1.4,3.7-2,6.1c-0.6,2.5-0.9,5.3-0.9,8.5
			c0,2.2,0.3,4.2,0.9,6c0.6,1.9,1.5,3.5,2.7,4.9s2.6,2.5,4.3,3.2c1.6,0.8,3.5,1.2,5.5,1.2c2.6,0,5.1-0.9,7.6-2.6
			c1-0.7,1.9-1.5,2.8-2.4c0.7,1,1.4,1.8,2.3,2.6c2.2,1.9,4.9,2.8,8.1,2.8c2.3,0,4.4-0.5,6.4-1.6c1.8-0.9,3.5-2.2,5-3.6
			c1.5-1.4,2.8-2.9,4-4.6c1.1-1.6,2.1-3.1,3-4.6c0.8-1.4,1.5-2.7,2-3.9c0.6-1.3,0.8-1.8,0.9-2v-0.1v-0.1c0.3-0.7,0.4-1.4,0.4-2.1
			c0-1.3-0.5-2.5-1.3-3.5c-1-1.2-2.4-1.8-4.1-1.8c-1,0-2.1,0.3-2.9,0.9s-1.5,1.3-1.9,2.3c-0.3,0.8-0.7,1.6-1.2,2.7
			c-0.5,1-1,2-1.7,3.1c-0.6,1.1-1.4,2.2-2.1,3.3c-0.7,1-1.5,1.9-2.3,2.7c-0.8,0.7-1.6,1.3-2.4,1.7c-0.6,0.3-1.2,0.5-1.8,0.5
			c-0.8,0-1.2-0.3-1.4-0.5c-0.6-0.7-1.1-1.5-1.4-2.4c-0.4-1.2-0.6-2.4-0.8-3.5c-0.2-1.5-0.1-2.4-0.1-2.8l0,0l0,0l0.8-10.4v-0.1v-0.1
			c0-1.3-0.4-2.6-1.3-3.7c-1-1.2-2.4-1.9-4-1.9c-1.4,0-2.6,0.5-3.6,1.4c-1,0.9-1.6,2.1-1.8,3.4v0.1v0.1l-0.9,10.8
			c-0.2,1.7-0.5,3.2-1.1,4.4s-1.2,2.3-1.9,3c-0.7,0.7-1.4,1.3-2,1.6c-0.8,0.4-1.2,0.4-1.3,0.4c-1.1,0-1.5-0.4-1.8-0.7
			c-0.4-0.5-0.8-1.6-0.8-3.8c0-1.9,0.2-3.7,0.5-5.1c0.3-1.5,0.7-2.8,1.2-3.9c0.4-1.1,0.9-2,1.2-2.6c0.5-0.8,0.8-1.4,1-1.8v-0.1v-0.1
			c0.2-0.3,0.3-0.6,0.4-0.9c0.3-0.6,0.4-1.3,0.4-1.9c0-1.4-0.5-2.6-1.4-3.7C43.4,261.2,42,260.6,40.5,260.6L40.5,260.6z"/>
	</g>
	<g id="XMLID_29_">
		<path id="XMLID_96_" class="st2" d="M101.9,296.7c-1.7,0-3.3-0.3-4.8-1c-1.5-0.6-2.9-1.6-4-2.8s-2-2.7-2.6-4.4s-1-3.7-1-5.8
			c0-2.2,0.2-4.4,0.7-6.5c0.4-2,0.6-3.8,0.6-5.6c0-0.4-0.1-0.6-0.1-0.7c-0.1,0-0.5-0.1-1.3-0.1h-1.9c-0.3,0-0.6,0-0.9,0
			c-0.1,0.7-0.3,1.4-0.5,2.1c-0.3,1-0.5,1.9-0.7,2.6c-0.2,0.8-0.4,1.4-0.6,1.8c-0.2,0.5-0.3,0.7-0.4,1c-0.7,1.4-1.9,2.2-3.5,2.2
			c-1,0-1.8-0.3-2.6-1c-0.8-0.7-1.3-1.7-1.3-2.8c0-0.6,0.1-1,0.4-1.4c0.1-0.1,0.1-0.3,0.3-0.5c0.1-0.2,0.3-0.7,0.6-1.7
			c0.2-0.5,0.3-1.3,0.5-2.2c-0.1,0-0.3,0-0.4,0c-0.9,0-1.8-0.2-2.6-0.5c-0.9-0.3-1.7-0.9-2.2-1.7c-0.6-0.8-0.9-1.9-0.9-3.2
			c0-0.9,0.2-2,0.7-3.3c0.4-1.3,1-2.6,1.7-3.8c0.7-1.3,1.6-2.4,2.5-3.3c1.1-1.1,2.3-1.7,3.6-1.7c1.4,0,2.6,0.5,3.5,1.6
			c0.7,0.9,1.3,1.9,1.7,3.1c0.4,1.1,0.6,2.3,0.8,3.5c0.1,0.6,0.1,1.1,0.2,1.6c0.2,0,0.4,0,0.6,0c0.7,0,1.4,0,2,0
			c2.7,0,4.9,0.6,6.4,1.9c1.6,1.3,2.4,3.4,2.4,6.3c0,1-0.1,2.1-0.2,3.2c-0.1,1.1-0.3,2.1-0.4,3.3c-0.2,1.1-0.3,2.2-0.4,3.2
			s-0.2,2-0.2,3c0,1.3,0.2,2.3,0.5,3.1c0.3,0.8,0.7,1.4,1.2,1.8s0.9,0.7,1.4,0.9c0.6,0.2,1.1,0.3,1.5,0.3c1.5,0,2.8-0.5,4.2-1.5
			c1.5-1.1,2.9-2.4,4.1-4c1.3-1.6,2.4-3.3,3.5-5c1-1.8,1.9-3.4,2.6-4.7c0.4-0.7,0.9-1.2,1.5-1.5s1.2-0.5,1.9-0.5
			c1.5,0,2.4,0.7,2.9,1.2c0.7,0.8,1,1.6,1,2.6c0,0.6-0.1,1.3-0.4,1.8c-1,1.8-2.1,3.7-3.4,5.9s-2.8,4.3-4.5,6.2c-1.7,2-3.7,3.7-5.8,5
			C107.1,296,104.6,296.7,101.9,296.7z"/>
		<path id="XMLID_84_" class="st3" d="M80.9,253.7c1,0,1.7,0.4,2.3,1.1c0.6,0.7,1.1,1.6,1.4,2.6s0.6,2.1,0.7,3.2s0.2,2.1,0.2,2.9
			c0.7,0,1.4,0,2.1,0s1.3,0,2,0c2.4,0,4.2,0.5,5.4,1.6c1.3,1,1.9,2.8,1.9,5.1c0,1-0.1,2-0.2,3s-0.3,2.1-0.4,3.2
			c-0.2,1.1-0.3,2.2-0.4,3.3s-0.2,2.1-0.2,3.2c0,1.5,0.2,2.7,0.6,3.7s0.9,1.8,1.6,2.3c0.6,0.6,1.3,1,2,1.2s1.4,0.3,1.9,0.3
			c1.8,0,3.5-0.6,5.1-1.8s3-2.6,4.4-4.2c1.3-1.6,2.5-3.4,3.6-5.2s1.9-3.4,2.7-4.8c0.2-0.4,0.5-0.7,0.9-0.9c0.4-0.2,0.8-0.3,1.2-0.3
			c0.8,0,1.3,0.2,1.8,0.7c0.4,0.5,0.6,1,0.6,1.6c0,0.4-0.1,0.8-0.3,1.1c-1,1.7-2.1,3.6-3.3,5.8c-1.3,2.1-2.7,4.2-4.3,6
			s-3.4,3.5-5.5,4.8c-2,1.3-4.2,1.9-6.7,1.9c-1.5,0-2.9-0.3-4.3-0.8c-1.3-0.6-2.5-1.4-3.5-2.4c-1-1.1-1.8-2.4-2.3-3.9
			c-0.6-1.6-0.9-3.3-0.9-5.3c0-2.1,0.2-4.2,0.6-6.2c0.4-2.1,0.6-4,0.6-5.9c0-0.8-0.2-1.4-0.5-1.8c-0.4-0.4-1.1-0.6-2.3-0.6
			c-0.6,0-1.2,0-1.9,0s-1.4,0-2.2,0.1c-0.2,1.1-0.4,2.2-0.6,3.2c-0.3,1-0.5,1.8-0.7,2.6c-0.2,0.7-0.4,1.3-0.6,1.8s-0.3,0.7-0.3,0.8
			c-0.4,1-1.1,1.4-2.2,1.4c-0.6,0-1.1-0.2-1.6-0.7s-0.8-1-0.8-1.7c0-0.3,0-0.4,0.1-0.6c0.1-0.1,0.2-0.4,0.4-0.8
			c0.2-0.4,0.4-1,0.6-1.9c0.2-0.9,0.6-2.2,0.9-4.1c-0.7,0-1.4,0-2.2-0.1c-0.8,0-1.4-0.2-2.1-0.4c-0.7-0.2-1.2-0.6-1.6-1.2
			c-0.4-0.5-0.6-1.3-0.6-2.3c0-0.7,0.2-1.7,0.6-2.9c0.4-1.2,0.9-2.4,1.6-3.6s1.4-2.2,2.3-3C79.2,254.1,80,253.7,80.9,253.7
			 M78.3,263.6h2.8c0-0.3,0-0.7,0-1.2S81,261.5,81,261c-0.1-0.5-0.1-0.9-0.3-1.2c-0.1-0.3-0.2-0.5-0.3-0.5s-0.3,0.2-0.5,0.5
			c-0.2,0.3-0.4,0.7-0.6,1.1c-0.2,0.4-0.4,0.9-0.6,1.4C78.5,262.9,78.3,263.3,78.3,263.6 M80.9,250.7c-1.7,0-3.2,0.7-4.6,2.2
			c-1,1-1.9,2.3-2.7,3.6c-0.8,1.3-1.4,2.7-1.8,4.1c-0.5,1.5-0.7,2.8-0.7,3.8c0,1.6,0.4,3,1.2,4.1c0.8,1,1.7,1.7,2.9,2.2
			c0.5,0.2,1.1,0.4,1.7,0.5c0,0.2-0.1,0.3-0.1,0.5c-0.3,1-0.4,1.4-0.5,1.5c-0.1,0.2-0.1,0.3-0.2,0.4c-0.4,0.6-0.6,1.3-0.6,2.2
			c0,1.5,0.6,2.9,1.8,3.9c1,0.9,2.3,1.4,3.6,1.4c2.2,0,3.9-1.1,4.8-3c0.2-0.3,0.3-0.7,0.5-1.1c0.2-0.5,0.4-1.1,0.6-1.9
			s0.5-1.7,0.8-2.7c0.1-0.3,0.2-0.6,0.2-1h1.5c0,1.5-0.2,3.1-0.6,4.7c-0.5,2.2-0.7,4.5-0.7,6.8s0.4,4.4,1.1,6.3
			c0.7,1.9,1.7,3.6,2.9,4.9c1.3,1.4,2.8,2.4,4.5,3.2c1.7,0.7,3.5,1.1,5.4,1.1c3,0,5.8-0.8,8.3-2.4c2.3-1.4,4.3-3.2,6.1-5.3
			c1.7-2,3.3-4.2,4.7-6.5c1.3-2.2,2.4-4.1,3.4-5.8v-0.1v-0.1c0.4-0.8,0.6-1.6,0.6-2.5c0-1.3-0.5-2.5-1.4-3.6c-0.7-0.8-2-1.8-4-1.8
			c-0.9,0-1.8,0.2-2.6,0.7c-0.9,0.5-1.6,1.2-2,2l0,0l0,0c-0.7,1.3-1.6,2.9-2.6,4.7c-1,1.7-2.1,3.3-3.3,4.8c-1.2,1.4-2.5,2.7-3.8,3.7
			c-1.1,0.8-2.1,1.2-3.3,1.2c-0.2,0-0.5,0-1-0.2c-0.3-0.1-0.6-0.3-0.9-0.6c-0.3-0.3-0.6-0.7-0.8-1.3c-0.2-0.4-0.4-1.2-0.4-2.5
			c0-0.9,0.1-1.9,0.2-2.8c0.1-1.1,0.3-2.1,0.4-3.2c0.2-1.2,0.3-2.3,0.4-3.3c0.1-1.2,0.2-2.3,0.2-3.4c0-3.3-1-5.8-3-7.4
			c-1.8-1.5-4.3-2.3-7.4-2.3c-0.4,0-0.8,0-1.3,0c0-0.1,0-0.2,0-0.3c-0.2-1.3-0.5-2.6-0.8-3.8c-0.5-1.4-1.1-2.6-2-3.6
			C84.3,251.4,82.7,250.7,80.9,250.7L80.9,250.7z"/>
	</g>
	<g id="XMLID_32_">
		<path id="XMLID_91_" class="st2" d="M133.4,297.3c-3,0-5.6-0.6-7.8-1.8c-2.2-1.2-4-2.7-5.4-4.5c-1.4-1.8-2.4-3.9-3.1-6.2
			s-1-4.5-1-6.8c0-2.3,0.3-4.4,0.8-6.3c0.6-2,1.4-3.7,2.5-5.2s2.4-2.7,4-3.5c1.6-0.9,3.3-1.3,5.2-1.3c1.2,0,2.3,0.2,3.4,0.7
			s2.1,1.1,3,2c0.9,0.9,1.6,1.9,2.1,3.1c0.5,1.2,0.8,2.6,0.8,4.2c0,1.9-0.3,3.7-1,5.4c-0.6,1.6-1.5,3.2-2.6,4.6s-2.4,2.7-3.9,3.8
			c-1,0.7-2,1.4-3.1,2c0.5,0.4,1.1,0.8,1.7,1.2c1.2,0.6,2.6,0.9,4.4,0.9s3.4-0.4,4.8-1.3c1.5-0.9,2.9-2.1,4.2-3.5
			c1.3-1.5,2.5-3.2,3.5-5.1c1.1-1.9,2-3.9,2.9-5.8c0.3-0.7,0.8-1.3,1.5-1.7c0.6-0.4,1.3-0.6,2-0.6c1.1,0,2.1,0.4,2.8,1.3
			c0.7,0.8,1,1.7,1,2.6c0,0.3,0,0.7-0.1,0.9s-0.2,0.5-0.3,0.7c-2.9,6.4-6.2,11.4-9.7,14.7C142.3,295.4,138.1,297.2,133.4,297.3
			L133.4,297.3L133.4,297.3z M128.6,269.4c-0.8,0-1.4,0.2-1.9,0.6c-0.6,0.5-1.1,1.1-1.5,1.9c-0.4,0.9-0.8,1.9-1,2.9
			c-0.2,1.1-0.3,2.3-0.3,3.4c0,0.7,0.1,1.4,0.2,2.1c0,0.2,0.1,0.3,0.1,0.5c0.6-0.3,1.1-0.7,1.6-1.1c1-0.7,1.8-1.6,2.4-2.5
			c0.7-0.9,1.2-1.8,1.5-2.8c0.4-0.9,0.5-1.9,0.5-2.8c0-0.8-0.2-1.4-0.5-1.8C129.3,269.5,129,269.4,128.6,269.4z"/>
		<path id="XMLID_86_" class="st3" d="M128.6,263.2c1,0,1.9,0.2,2.8,0.6c0.9,0.4,1.8,1,2.5,1.7c0.8,0.7,1.4,1.6,1.8,2.7
			c0.5,1,0.7,2.2,0.7,3.6c0,1.7-0.3,3.3-0.9,4.8s-1.4,2.9-2.4,4.2c-1,1.3-2.2,2.5-3.7,3.6c-1.4,1.1-2.9,2-4.6,2.8
			c0.9,1.2,2,2.2,3.4,2.9s3.1,1.1,5.1,1.1s3.9-0.5,5.6-1.5s3.2-2.3,4.6-3.8c1.4-1.6,2.6-3.4,3.7-5.3c1.1-2,2.1-3.9,2.9-5.9
			c0.2-0.5,0.5-0.8,0.9-1s0.8-0.3,1.3-0.3c0.7,0,1.3,0.3,1.7,0.8s0.7,1,0.7,1.6c0,0.2,0,0.4-0.1,0.5c0,0.1-0.1,0.3-0.2,0.5
			c-2.9,6.3-6,11.1-9.4,14.3c-3.4,3.2-7.2,4.9-11.5,4.9c-2.8,0-5.1-0.5-7.1-1.6c-2-1.1-3.6-2.4-4.9-4.1c-1.3-1.7-2.3-3.6-2.9-5.7
			s-0.9-4.3-0.9-6.4s0.3-4.1,0.8-5.9c0.5-1.8,1.3-3.4,2.3-4.7c1-1.3,2.1-2.4,3.5-3.1C125.4,263.6,126.9,263.2,128.6,263.2
			 M123.1,283c1.3-0.5,2.5-1.2,3.5-2.1c1.1-0.8,2-1.8,2.7-2.8s1.3-2.1,1.8-3.2c0.4-1.1,0.6-2.2,0.6-3.3c0-1.3-0.3-2.2-0.9-2.8
			s-1.4-1-2.2-1c-1.1,0-2.1,0.3-2.9,0.9s-1.4,1.4-1.9,2.4s-0.9,2.1-1.1,3.3c-0.2,1.2-0.3,2.4-0.3,3.7c0,0.8,0.1,1.5,0.2,2.4
			C122.7,281.5,122.9,282.3,123.1,283 M128.6,260.2c-2.1,0-4.1,0.5-5.9,1.5c-1.7,1-3.2,2.3-4.5,4c-1.2,1.6-2.1,3.5-2.7,5.6
			c-0.6,2.1-0.9,4.3-0.9,6.7s0.4,4.8,1.1,7.2c0.7,2.5,1.9,4.7,3.4,6.7s3.5,3.7,5.9,5s5.3,1.9,8.5,1.9l0,0l0,0c5-0.1,9.6-2,13.5-5.8
			c3.7-3.5,7-8.6,10.1-15.2c0.2-0.3,0.3-0.6,0.4-0.9c0.1-0.4,0.2-0.9,0.2-1.4c0-1.3-0.5-2.6-1.4-3.6c-1-1.1-2.4-1.8-4-1.8
			c-1,0-2,0.3-2.8,0.8c-0.9,0.5-1.6,1.4-2,2.4c-0.8,1.9-1.8,3.8-2.8,5.7c-1,1.8-2.1,3.4-3.3,4.8c-1.2,1.3-2.4,2.4-3.8,3.2
			c-1.2,0.7-2.5,1.1-4,1.1c-1.3,0-2.4-0.2-3.3-0.6c0.4-0.3,0.8-0.6,1.2-0.9c1.6-1.2,3-2.6,4.2-4.1s2.2-3.2,2.8-5
			c0.7-1.8,1.1-3.8,1.1-5.9c0-1.7-0.3-3.3-0.9-4.8c-0.6-1.4-1.4-2.6-2.5-3.6c-1-1-2.2-1.8-3.5-2.3
			C131.3,260.5,129.9,260.2,128.6,260.2L128.6,260.2z M125.3,278.1c0-1,0.1-2,0.3-3c0.2-0.9,0.5-1.8,0.8-2.6
			c0.3-0.6,0.7-1.1,1.1-1.4c0.2-0.1,0.4-0.3,1-0.3c0,0,0,0,0.1,0.1l0,0c0,0,0.1,0.2,0.1,0.8c0,0.8-0.1,1.5-0.4,2.3s-0.8,1.6-1.3,2.4
			C126.5,277,125.9,277.6,125.3,278.1L125.3,278.1z"/>
	</g>
</g>
</svg>
