<?xml version="1.0" encoding="utf-8"?>
<!-- Generator: Adobe Illustrator 19.0.0, SVG Export Plug-In . SVG Version: 6.00 Build 0)  -->
<svg version="1.1" id="Layer_1" xmlns="http://www.w3.org/2000/svg" xmlns:xlink="http://www.w3.org/1999/xlink" x="0px" y="0px"
	 viewBox="0 0 424.6 334.1" style="enable-background:new 0 0 424.6 334.1;" xml:space="preserve">
<style type="text/css">
	.st0{filter:url(#Adobe_OpacityMaskFilter);}
	.st1{fill:#FFFFFF;}
	.st2{opacity:0;}
	.st3{mask:url(#XMLID_11_);}
	.st4{fill:none;stroke:#FFFFFF;stroke-width:6;stroke-miterlimit:10;}
	.st5{fill:none;stroke:#FFFFFF;stroke-width:6;stroke-linecap:round;stroke-miterlimit:10;}
</style>
<g id="XMLID_8_">
	<defs>
		<filter id="Adobe_OpacityMaskFilter" filterUnits="userSpaceOnUse" x="0" y="0" width="391.9" height="334.1">
			<feFlood  style="flood-color:white;flood-opacity:1" result="back"/>
			<feBlend  in="SourceGraphic" in2="back" mode="normal"/>
		</filter>
	</defs>
	<mask maskUnits="userSpaceOnUse" x="0" y="0" width="391.9" height="334.1" id="XMLID_11_">
		<g id="XMLID_9_" class="st0">
			<g id="XMLID_84_">
				<path id="XMLID_101_" class="st1" d="M391.9,173.2c0.9,1.2,2,2.2,3.4,2.9c1.4,0.7,3.1,1.1,5.1,1.1c2,0,3.9-0.5,5.6-1.5
					c1.7-1,3.2-2.3,4.6-3.8c1.4-1.6,2.6-3.4,3.7-5.3c1.1-2,2.1-3.9,2.9-5.9c0.2-0.5,0.5-0.8,0.9-1c0.4-0.2,0.8-0.3,1.3-0.3
					c0.7,0,1.3,0.3,1.7,0.8s0.7,1,0.7,1.6c0,0.2,0,0.4-0.1,0.5c0,0.1-0.1,0.3-0.2,0.5c-2.9,6.3-6,11.1-9.4,14.3
					c-3.4,3.2-7.2,4.9-11.5,4.9c-2.8,0-5.1-0.5-7.1-1.6s-3.6-2.4-4.9-4.1c-1.3-1.7-2.3-3.6-2.9-5.7s-0.9-4.3-0.9-6.4
					s0.3-4.1,0.8-5.9c0.5-1.8,1.3-3.4,2.3-4.7c1-1.3,2.1-2.4,3.5-3.1c1.4-0.8,2.8-1.1,4.5-1.1c1,0,1.9,0.2,2.8,0.6
					c0.9,0.4,1.8,1,2.5,1.7c0.8,0.7,1.4,1.6,1.8,2.7c0.5,1,0.7,2.2,0.7,3.6c0,1.7-0.3,3.3-0.9,4.8c-0.6,1.5-1.4,2.9-2.4,4.2
					c-1,1.3-2.2,2.5-3.7,3.6C395.1,171.4,393.6,172.4,391.9,173.2z M390.1,169.1c1.3-0.5,2.5-1.2,3.5-2.1c1.1-0.8,2-1.8,2.7-2.8
					s1.3-2.1,1.8-3.2c0.4-1.1,0.6-2.2,0.6-3.3c0-1.3-0.3-2.2-0.9-2.8c-0.6-0.6-1.4-1-2.2-1c-1.1,0-2.1,0.3-2.9,0.9
					c-0.8,0.6-1.4,1.4-1.9,2.4s-0.9,2.1-1.1,3.3c-0.2,1.2-0.3,2.4-0.3,3.7c0,0.8,0.1,1.5,0.2,2.4
					C389.7,167.6,389.9,168.4,390.1,169.1z"/>
				<g id="XMLID_85_" class="st2">
					<path id="XMLID_86_" class="st1" d="M395.6,149.3c1,0,1.9,0.2,2.8,0.6c0.9,0.4,1.8,1,2.5,1.7c0.8,0.7,1.4,1.6,1.8,2.7
						c0.5,1,0.7,2.2,0.7,3.6c0,1.7-0.3,3.3-0.9,4.8c-0.6,1.5-1.4,2.9-2.4,4.2c-1,1.3-2.2,2.5-3.7,3.6c-1.4,1.1-2.9,2-4.6,2.8
						c0.9,1.2,2,2.2,3.4,2.9c1.4,0.7,3.1,1.1,5.1,1.1c2,0,3.9-0.5,5.6-1.5c1.7-1,3.2-2.3,4.6-3.8c1.4-1.6,2.6-3.4,3.7-5.3
						c1.1-2,2.1-3.9,2.9-5.9c0.2-0.5,0.5-0.8,0.9-1c0.4-0.2,0.8-0.3,1.3-0.3c0.7,0,1.3,0.3,1.7,0.8s0.7,1,0.7,1.6
						c0,0.2,0,0.4-0.1,0.5c0,0.1-0.1,0.3-0.2,0.5c-2.9,6.3-6,11.1-9.4,14.3c-3.4,3.2-7.2,4.9-11.5,4.9c-2.8,0-5.1-0.5-7.1-1.6
						s-3.6-2.4-4.9-4.1c-1.3-1.7-2.3-3.6-2.9-5.7s-0.9-4.3-0.9-6.4s0.3-4.1,0.8-5.9c0.5-1.8,1.3-3.4,2.3-4.7c1-1.3,2.1-2.4,3.5-3.1
						C392.4,149.7,393.9,149.3,395.6,149.3 M390.1,169.1c1.3-0.5,2.5-1.2,3.5-2.1c1.1-0.8,2-1.8,2.7-2.8s1.3-2.1,1.8-3.2
						c0.4-1.1,0.6-2.2,0.6-3.3c0-1.3-0.3-2.2-0.9-2.8c-0.6-0.6-1.4-1-2.2-1c-1.1,0-2.1,0.3-2.9,0.9c-0.8,0.6-1.4,1.4-1.9,2.4
						s-0.9,2.1-1.1,3.3c-0.2,1.2-0.3,2.4-0.3,3.7c0,0.8,0.1,1.5,0.2,2.4C389.7,167.6,389.9,168.4,390.1,169.1 M395.6,146.3
						c-2.1,0-4.1,0.5-5.9,1.5c-1.7,1-3.2,2.3-4.5,4c-1.2,1.6-2.1,3.5-2.7,5.6c-0.6,2.1-0.9,4.3-0.9,6.7c0,2.4,0.4,4.8,1.1,7.2
						c0.7,2.5,1.9,4.7,3.4,6.7c1.5,2,3.5,3.7,5.9,5c2.4,1.3,5.3,1.9,8.5,1.9h0l0,0c5-0.1,9.6-2,13.5-5.8c3.7-3.5,7-8.6,10.1-15.2
						c0.2-0.3,0.3-0.6,0.4-0.9c0.1-0.4,0.2-0.9,0.2-1.4c0-1.3-0.5-2.6-1.4-3.6c-1-1.1-2.4-1.8-4-1.8c-1,0-2,0.3-2.8,0.8
						c-0.9,0.5-1.6,1.4-2,2.4c-0.8,1.9-1.8,3.8-2.8,5.7c-1,1.8-2.1,3.4-3.3,4.8c-1.2,1.3-2.4,2.4-3.8,3.2c-1.2,0.7-2.5,1.1-4,1.1
						c-1.3,0-2.4-0.2-3.3-0.6c0.4-0.3,0.8-0.6,1.2-0.9c1.6-1.2,3-2.6,4.2-4.1c1.2-1.5,2.2-3.2,2.8-5c0.7-1.8,1.1-3.8,1.1-5.9
						c0-1.7-0.3-3.3-0.9-4.8c-0.6-1.4-1.4-2.6-2.5-3.6c-1-1-2.2-1.8-3.5-2.3C398.3,146.6,396.9,146.3,395.6,146.3L395.6,146.3z
						 M392.3,164.2c0-1,0.1-2,0.3-3c0.2-0.9,0.5-1.8,0.8-2.6c0.3-0.6,0.7-1.1,1.1-1.4c0.2-0.1,0.4-0.3,1-0.3c0,0,0,0,0.1,0.1
						c0,0,0,0,0,0c0,0,0.1,0.2,0.1,0.8c0,0.8-0.1,1.5-0.4,2.3c-0.3,0.8-0.8,1.6-1.3,2.4C393.5,163.1,392.9,163.7,392.3,164.2
						L392.3,164.2z"/>
				</g>
			</g>
		</g>
	</mask>
	<g id="XMLID_1_" class="st3">
		<circle id="XMLID_2_" class="st4" cx="212.3" cy="167" r="164"/>
		<line id="XMLID_3_" class="st5" x1="142" y1="72.6" x2="177.4" y2="60.2"/>
		<line id="XMLID_4_" class="st5" x1="48.3" y1="164.7" x2="143" y2="131.6"/>
		<line id="XMLID_5_" class="st5" x1="367.1" y1="112.9" x2="214.5" y2="166.3"/>
		<line id="XMLID_6_" class="st5" x1="111" y1="296" x2="162.4" y2="278"/>
		<line id="XMLID_7_" class="st5" x1="248" y1="285" x2="279.2" y2="274.1"/>
		<g id="XMLID_170_">
			<path id="XMLID_175_" class="st1" d="M110.1,114.4c-0.1,0.6-0.4,1-0.8,1.4c-0.4,0.3-0.9,0.5-1.4,0.5c-0.8,0-1.4-0.2-1.8-0.7
				c-0.5-0.5-0.7-1-0.7-1.7s0.1-1.2,0.2-1.8c0.1-0.6,0.2-1.2,0.2-1.8c0-3-0.9-5.8-2.8-8.2c-1.9-2.4-4.5-4.4-8-6.1
				c-3.4-1.6-7.6-2.9-12.5-3.8c-4.9-0.9-10.4-1.3-16.4-1.3c-4.6,0-9.3,0.3-14,0.9c-4.7,0.6-9.2,1.5-13.5,2.6
				c-4.3,1.1-8.3,2.6-12.1,4.3c-3.8,1.7-7,3.7-9.8,6c-2.8,2.3-4.9,4.8-6.5,7.6c-1.6,2.8-2.4,5.8-2.4,9.1c0,2.5,0.6,4.8,1.7,6.7
				c1.1,1.9,2.6,3.6,4.5,5.1c1.9,1.4,4.2,2.7,6.8,3.7c2.6,1,5.4,1.9,8.5,2.6c3,0.7,6.2,1.3,9.5,1.7c3.3,0.4,6.6,0.8,9.9,1.1l9.6,0.8
				c4.8,0.4,9.1,0.9,12.9,1.3c3.8,0.5,7.1,1,10,1.8c4.8,1.2,8.3,2.9,10.6,5.2c2.3,2.3,3.4,5.3,3.4,9c0,3.6-1,6.8-3,9.6
				s-4.7,5.1-8.2,6.9c-3.5,1.9-7.5,3.3-12.1,4.3c-4.6,1-9.6,1.4-14.9,1.4c-5.8,0-10.8-0.4-15.2-1.2c-4.4-0.8-8-1.6-10.9-2.6
				s-5.2-1.8-6.7-2.6c-1.5-0.8-2.4-1.2-2.5-1.3c-0.8-0.4-1.1-1.1-1.1-2c0-0.7,0.3-1.3,0.8-1.7s1-0.7,1.6-0.7c0.5,0,0.9,0.1,1.3,0.4
				c0,0,0.8,0.4,2.2,1.1c1.4,0.7,3.5,1.5,6.3,2.4c2.8,0.9,6.2,1.7,10.3,2.4c4.1,0.7,8.8,1.1,14.3,1.1c5.4,0,10.1-0.4,14.3-1.3
				s7.6-2.1,10.4-3.7s4.9-3.4,6.4-5.5c1.4-2.1,2.2-4.4,2.2-6.8c0-1.5-0.3-2.7-0.8-3.8c-0.5-1.1-1.2-2-2.2-2.8c-0.9-0.8-2-1.4-3.3-2
				c-1.3-0.5-2.7-1-4.2-1.4c-1.6-0.4-3.3-0.8-5.1-1.1c-1.8-0.3-3.7-0.5-5.6-0.8c-1.9-0.2-3.8-0.4-5.8-0.6c-1.9-0.2-3.8-0.3-5.7-0.5
				l-9.6-0.8c-7.6-0.6-14.2-1.6-19.8-2.9c-5.6-1.3-10.3-3-14.1-5.1s-6.6-4.5-8.4-7.4S3,125.3,3,121.5c0-3.9,0.9-7.5,2.7-10.8
				c1.8-3.3,4.2-6.2,7.3-8.8S19.6,97,23.7,95c4.1-1.9,8.5-3.6,13.2-4.8c4.7-1.3,9.5-2.3,14.5-2.9c5-0.6,9.9-1,14.8-1
				c6,0,11.3,0.4,15.8,1.1c4.5,0.7,8.3,1.7,11.5,2.8c3.2,1.1,5.8,2.4,7.8,3.9c2,1.5,3.7,2.9,4.9,4.3c3,3.5,4.4,7.4,4.4,11.8
				C110.6,111.7,110.4,113.1,110.1,114.4z"/>
			<g id="XMLID_171_" class="st2">
				<path id="XMLID_172_" class="st1" d="M66.1,86.3c6,0,11.3,0.4,15.8,1.1c4.5,0.7,8.3,1.7,11.5,2.8c3.2,1.1,5.8,2.4,7.8,3.9
					c2,1.5,3.7,2.9,4.9,4.3c3,3.5,4.4,7.4,4.4,11.8c0,1.5-0.1,2.9-0.4,4.2c-0.1,0.6-0.4,1-0.8,1.4c-0.4,0.3-0.9,0.5-1.4,0.5
					c-0.8,0-1.4-0.2-1.8-0.7c-0.5-0.5-0.7-1-0.7-1.7s0.1-1.2,0.2-1.8c0.1-0.6,0.2-1.2,0.2-1.8c0-3-0.9-5.8-2.8-8.2
					c-1.9-2.4-4.5-4.4-8-6.1c-3.4-1.6-7.6-2.9-12.5-3.8c-4.9-0.9-10.4-1.3-16.4-1.3c-4.6,0-9.3,0.3-14,0.9
					c-4.7,0.6-9.2,1.5-13.5,2.6c-4.3,1.1-8.3,2.6-12.1,4.3c-3.8,1.7-7,3.7-9.8,6c-2.8,2.3-4.9,4.8-6.5,7.6c-1.6,2.8-2.4,5.8-2.4,9.1
					c0,2.5,0.6,4.8,1.7,6.7c1.1,1.9,2.6,3.6,4.5,5.1c1.9,1.4,4.2,2.7,6.8,3.7c2.6,1,5.4,1.9,8.5,2.6c3,0.7,6.2,1.3,9.5,1.7
					c3.3,0.4,6.6,0.8,9.9,1.1l9.6,0.8c4.8,0.4,9.1,0.9,12.9,1.3c3.8,0.5,7.1,1,10,1.8c4.8,1.2,8.3,2.9,10.6,5.2
					c2.3,2.3,3.4,5.3,3.4,9c0,3.6-1,6.8-3,9.6s-4.7,5.1-8.2,6.9c-3.5,1.9-7.5,3.3-12.1,4.3c-4.6,1-9.6,1.4-14.9,1.4
					c-5.8,0-10.8-0.4-15.2-1.2c-4.4-0.8-8-1.6-10.9-2.6s-5.2-1.8-6.7-2.6c-1.5-0.8-2.4-1.2-2.5-1.3c-0.8-0.4-1.1-1.1-1.1-2
					c0-0.7,0.3-1.3,0.8-1.7s1-0.7,1.6-0.7c0.5,0,0.9,0.1,1.3,0.4c0,0,0.8,0.4,2.2,1.1c1.4,0.7,3.5,1.5,6.3,2.4
					c2.8,0.9,6.2,1.7,10.3,2.4c4.1,0.7,8.8,1.1,14.3,1.1c5.4,0,10.1-0.4,14.3-1.3s7.6-2.1,10.4-3.7s4.9-3.4,6.4-5.5
					c1.4-2.1,2.2-4.4,2.2-6.8c0-1.5-0.3-2.7-0.8-3.8c-0.5-1.1-1.2-2-2.2-2.8c-0.9-0.8-2-1.4-3.3-2c-1.3-0.5-2.7-1-4.2-1.4
					c-1.6-0.4-3.3-0.8-5.1-1.1c-1.8-0.3-3.7-0.5-5.6-0.8c-1.9-0.2-3.8-0.4-5.8-0.6c-1.9-0.2-3.8-0.3-5.7-0.5l-9.6-0.8
					c-7.6-0.6-14.2-1.6-19.8-2.9c-5.6-1.3-10.3-3-14.1-5.1s-6.6-4.5-8.4-7.4S3,125.3,3,121.5c0-3.9,0.9-7.5,2.7-10.8
					c1.8-3.3,4.2-6.2,7.3-8.8S19.6,97,23.7,95c4.1-1.9,8.5-3.6,13.2-4.8c4.7-1.3,9.5-2.3,14.5-2.9C56.3,86.6,61.2,86.3,66.1,86.3
					 M66.1,83.3c-4.9,0-10,0.3-15.1,1c-5.1,0.7-10.1,1.7-14.9,3c-4.8,1.3-9.4,3-13.6,5c-4.3,2-8.2,4.5-11.4,7.3
					c-3.3,2.9-6,6.1-7.9,9.7c-2,3.7-3,7.8-3,12.2c0,4.4,1.1,8.3,3.3,11.7c2.1,3.3,5.3,6.1,9.5,8.4c4,2.2,9,4,14.9,5.4
					c5.8,1.3,12.6,2.3,20.3,3l9.6,0.8c1.9,0.2,3.8,0.3,5.7,0.5c1.9,0.2,3.8,0.4,5.7,0.6c1.9,0.2,3.7,0.4,5.4,0.7
					c1.7,0.3,3.3,0.6,4.8,1c1.4,0.3,2.6,0.8,3.7,1.2c1,0.4,1.8,0.9,2.5,1.5c0.6,0.5,1.1,1.1,1.4,1.8c0.3,0.6,0.5,1.5,0.5,2.5
					c0,1.9-0.5,3.5-1.6,5.2c-1.2,1.7-3,3.2-5.4,4.6c-2.5,1.4-5.8,2.5-9.6,3.3c-3.9,0.8-8.5,1.2-13.6,1.2c-5.2,0-9.8-0.3-13.7-1
					c-3.9-0.7-7.3-1.4-9.9-2.3c-2.6-0.8-4.5-1.6-5.8-2.2c-1-0.5-1.7-0.9-2.1-1.1c-0.8-0.5-1.7-0.7-2.7-0.7c-1.3,0-2.6,0.5-3.6,1.4
					c-1.1,1-1.8,2.4-1.8,4c0,2,0.9,3.6,2.6,4.6c0.2,0.1,0.7,0.4,2.7,1.4c1.7,0.9,4,1.8,7.2,2.8c3,1,6.9,1.9,11.3,2.7
					c4.5,0.8,9.8,1.2,15.7,1.2c5.5,0,10.7-0.5,15.5-1.5c4.9-1,9.2-2.5,12.9-4.6c3.8-2.1,6.9-4.7,9.2-7.8c2.4-3.3,3.6-7.1,3.6-11.3
					c0-4.6-1.5-8.3-4.3-11.1c-2.7-2.7-6.6-4.6-12-6c-3-0.7-6.5-1.3-10.4-1.8c-3.8-0.5-8.2-0.9-13-1.3l-9.6-0.8
					c-3.3-0.3-6.5-0.6-9.8-1.1c-3.2-0.4-6.3-1-9.2-1.6c-2.9-0.7-5.6-1.5-8-2.4c-2.3-0.9-4.4-2-6.1-3.3c-1.6-1.2-2.8-2.6-3.7-4.1
					c-0.9-1.5-1.3-3.2-1.3-5.2c0-2.8,0.6-5.3,2-7.6c1.4-2.4,3.4-4.7,5.8-6.7c2.6-2.1,5.6-4,9.1-5.6c3.6-1.6,7.5-3,11.6-4.1
					c4.2-1.1,8.6-2,13.1-2.5c4.5-0.6,9.1-0.9,13.6-0.9c5.8,0,11.2,0.4,15.9,1.3c4.6,0.8,8.6,2,11.8,3.5c3,1.4,5.3,3.2,6.9,5.2
					c1.5,1.9,2.2,4,2.2,6.3c0,0.4,0,0.8-0.1,1.2c-0.2,0.8-0.2,1.6-0.2,2.5c0,1.4,0.5,2.7,1.5,3.7c1,1.1,2.4,1.6,4,1.6
					c1.2,0,2.3-0.4,3.3-1.2c1-0.8,1.6-1.8,1.9-3.1c0.3-1.5,0.5-3.2,0.5-4.8c0-5.1-1.7-9.8-5.2-13.8c-1.4-1.6-3.3-3.2-5.5-4.8
					c-2.3-1.6-5.1-3.1-8.6-4.3c-3.3-1.2-7.4-2.2-12-3C77.7,83.7,72.2,83.3,66.1,83.3L66.1,83.3z"/>
			</g>
		</g>
		<g id="XMLID_158_">
			<path id="XMLID_166_" class="st1" d="M114.4,131c0,1.6-0.6,2.9-1.7,4c-1.1,1.1-2.4,1.7-4,1.7c-1.6,0-2.9-0.6-4-1.7
				c-1.1-1.1-1.7-2.4-1.7-4c0-0.8,0.1-1.5,0.4-2.2c0.3-0.7,0.7-1.3,1.2-1.8c0.5-0.5,1.1-0.9,1.8-1.2c0.7-0.3,1.4-0.4,2.2-0.4
				c0.8,0,1.5,0.1,2.2,0.4c0.7,0.3,1.3,0.7,1.8,1.2c0.5,0.5,0.9,1.1,1.2,1.8C114.2,129.5,114.4,130.2,114.4,131z M104.3,167.6
				c0-6,0.4-12,1.1-17.9c0.1-0.6,0.3-1.1,0.8-1.5s1-0.7,1.7-0.7c0.6,0,1.1,0.2,1.6,0.7c0.4,0.5,0.6,1,0.6,1.7c0,0.3-0.1,1-0.2,2.3
				c-0.1,1.3-0.2,2.7-0.4,4.5c-0.1,1.7-0.3,3.6-0.4,5.5c-0.1,1.9-0.2,3.7-0.2,5.3c0,2.2,0.2,4,0.7,5.3c0.4,1.4,1,2.4,1.7,3.2
				s1.4,1.3,2.2,1.5c0.8,0.3,1.5,0.4,2.2,0.4c1.2,0,2.4-0.4,3.6-1.3c1.3-0.8,2.5-2,3.8-3.5s2.6-3.3,4-5.4c1.3-2.1,2.6-4.4,3.9-7
				c0.2-0.4,0.5-0.7,0.9-1c0.4-0.2,0.8-0.3,1.3-0.3c0.7,0,1.2,0.3,1.7,0.8s0.7,1,0.7,1.6c0,0.4-0.1,0.8-0.3,1.1
				c-0.5,1-1.1,2.1-1.9,3.5s-1.6,2.8-2.6,4.3c-1,1.5-2,2.9-3.2,4.3c-1.1,1.4-2.4,2.7-3.7,3.9c-1.3,1.1-2.6,2.1-4.1,2.8
				c-1.4,0.7-2.9,1.1-4.3,1.1c-1.9,0-3.5-0.4-4.9-1.2c-1.4-0.8-2.6-1.9-3.6-3.2c-1-1.3-1.7-2.9-2.2-4.7
				C104.5,171.6,104.3,169.7,104.3,167.6z M110.9,131c0-0.6-0.2-1.1-0.7-1.5s-0.9-0.7-1.5-0.7c-0.6,0-1.1,0.2-1.5,0.7
				c-0.4,0.4-0.6,0.9-0.6,1.5c0,0.6,0.2,1.1,0.6,1.5c0.4,0.4,0.9,0.6,1.5,0.6c0.6,0,1.1-0.2,1.5-0.6
				C110.7,132.1,110.9,131.6,110.9,131z"/>
			<g id="XMLID_159_" class="st2">
				<path id="XMLID_160_" class="st1" d="M108.7,125.3c0.8,0,1.5,0.1,2.2,0.4c0.7,0.3,1.3,0.7,1.8,1.2c0.5,0.5,0.9,1.1,1.2,1.8
					c0.3,0.7,0.4,1.4,0.4,2.2c0,1.6-0.6,2.9-1.7,4c-1.1,1.1-2.4,1.7-4,1.7c-1.6,0-2.9-0.6-4-1.7c-1.1-1.1-1.7-2.4-1.7-4
					c0-0.8,0.1-1.5,0.4-2.2c0.3-0.7,0.7-1.3,1.2-1.8c0.5-0.5,1.1-0.9,1.8-1.2C107.2,125.4,107.9,125.3,108.7,125.3 M108.7,133.1
					c0.6,0,1.1-0.2,1.5-0.6c0.4-0.4,0.7-0.9,0.7-1.5c0-0.6-0.2-1.1-0.7-1.5s-0.9-0.7-1.5-0.7c-0.6,0-1.1,0.2-1.5,0.7
					c-0.4,0.4-0.6,0.9-0.6,1.5c0,0.6,0.2,1.1,0.6,1.5C107.6,132.9,108.1,133.1,108.7,133.1 M107.9,147.5c0.6,0,1.1,0.2,1.6,0.7
					c0.4,0.5,0.6,1,0.6,1.7c0,0.3-0.1,1-0.2,2.3c-0.1,1.3-0.2,2.7-0.4,4.5c-0.1,1.7-0.3,3.6-0.4,5.5c-0.1,1.9-0.2,3.7-0.2,5.3
					c0,2.2,0.2,4,0.7,5.3c0.4,1.4,1,2.4,1.7,3.2s1.4,1.3,2.2,1.5c0.8,0.3,1.5,0.4,2.2,0.4c1.2,0,2.4-0.4,3.6-1.3
					c1.3-0.8,2.5-2,3.8-3.5s2.6-3.3,4-5.4c1.3-2.1,2.6-4.4,3.9-7c0.2-0.4,0.5-0.7,0.9-1c0.4-0.2,0.8-0.3,1.3-0.3
					c0.7,0,1.2,0.3,1.7,0.8s0.7,1,0.7,1.6c0,0.4-0.1,0.8-0.3,1.1c-0.5,1-1.1,2.1-1.9,3.5s-1.6,2.8-2.6,4.3c-1,1.5-2,2.9-3.2,4.3
					c-1.1,1.4-2.4,2.7-3.7,3.9c-1.3,1.1-2.6,2.1-4.1,2.8c-1.4,0.7-2.9,1.1-4.3,1.1c-1.9,0-3.5-0.4-4.9-1.2c-1.4-0.8-2.6-1.9-3.6-3.2
					c-1-1.3-1.7-2.9-2.2-4.7c-0.5-1.8-0.7-3.8-0.7-5.8c0-6,0.4-12,1.1-17.9c0.1-0.6,0.3-1.1,0.8-1.5S107.2,147.5,107.9,147.5
					 M108.7,122.3c-1.2,0-2.3,0.2-3.4,0.7c-1,0.4-2,1.1-2.8,1.9c-0.8,0.8-1.4,1.7-1.9,2.8c-0.4,1.1-0.7,2.2-0.7,3.4
					c0,2.4,0.9,4.5,2.5,6.2c1.7,1.7,3.8,2.5,6.2,2.5c2.4,0,4.5-0.9,6.2-2.5c1.7-1.7,2.5-3.8,2.5-6.2c0-1.2-0.2-2.3-0.7-3.4
					c-0.4-1-1.1-2-1.9-2.8c-0.8-0.8-1.7-1.4-2.8-1.9C111,122.5,109.9,122.3,108.7,122.3L108.7,122.3z M107.9,144.5
					c-1.5,0-2.8,0.5-3.8,1.5c-0.9,0.9-1.5,2-1.6,3.2c-0.8,6.1-1.2,12.3-1.2,18.4c0,2.3,0.3,4.6,0.8,6.6c0.6,2.2,1.5,4.1,2.7,5.7
					c1.2,1.7,2.8,3,4.5,4c1.9,1,4,1.6,6.4,1.6c1.9,0,3.8-0.5,5.7-1.4c1.6-0.8,3.2-1.9,4.7-3.2c1.4-1.3,2.8-2.7,4-4.2
					c1.2-1.5,2.3-3,3.3-4.6c1-1.5,1.9-3,2.7-4.5c0.8-1.4,1.4-2.5,1.9-3.5c0.4-0.7,0.6-1.6,0.6-2.5c0-1.3-0.5-2.6-1.4-3.6
					c-1-1.1-2.4-1.8-3.9-1.8c-1,0-2,0.3-2.8,0.8c-0.9,0.5-1.5,1.3-2,2.2c-1.2,2.5-2.5,4.8-3.8,6.8c-1.2,2-2.5,3.7-3.7,5
					c-1.1,1.3-2.2,2.3-3.2,3c-0.7,0.5-1.4,0.7-2,0.7c-0.4,0-0.8-0.1-1.3-0.2c-0.3-0.1-0.6-0.3-0.9-0.7c-0.3-0.3-0.7-0.9-1-2.1
					c-0.3-1-0.5-2.5-0.5-4.4c0-1.6,0.1-3.3,0.2-5.2c0.1-1.9,0.2-3.7,0.4-5.4l0.4-4.5c0.2-1.9,0.2-2.3,0.2-2.5c0-1.3-0.5-2.6-1.4-3.6
					C110.7,145.1,109.4,144.5,107.9,144.5L107.9,144.5z"/>
			</g>
		</g>
		<g id="XMLID_147_">
			<path id="XMLID_155_" class="st1" d="M153.7,186.2c7.8-10.2,13.3-18.7,16.3-25.4c0.2-0.5,0.5-0.8,0.8-1c0.4-0.2,0.8-0.3,1.2-0.3
				c0.7,0,1.3,0.2,1.8,0.7c0.5,0.5,0.7,1,0.7,1.7c0,0.3-0.1,0.6-0.2,0.9c-1.8,4.2-4.4,8.8-7.8,13.9s-7.6,10.9-12.8,17.4
				c0,2.6,0,5.3,0.1,7.9c0,2.6,0.1,5.5,0.1,8.6s-0.1,6.2-0.2,9.3c-0.1,3.1-0.4,6-0.8,8.8c-0.4,2.8-0.9,5.3-1.5,7.7
				c-0.6,2.4-1.5,4.4-2.5,6.1c-1,1.7-2.3,3.1-3.7,4.1c-1.4,1-3.1,1.5-5.1,1.5c-2.8,0-4.9-1.1-6.4-3.2s-2.3-5.1-2.3-9.1
				c0-2.1,0.2-4.3,0.6-6.8c0.4-2.4,1-4.9,1.7-7.5c0.8-2.6,1.7-5.2,2.7-7.8c1.1-2.6,2.2-5.2,3.5-7.7c1.3-2.5,2.7-4.9,4.2-7.2
				c1.5-2.3,3.1-4.4,4.8-6.3c0-2.9,0.1-5.8,0.1-8.7c0-2.9,0.1-5.5,0.2-7.9c-1.3,1.6-2.7,2.8-4.5,3.8c-1.7,0.9-3.4,1.4-5.2,1.4
				c-1.5,0-2.8-0.3-4-0.8s-2.2-1.4-3-2.4c-0.8-1-1.5-2.2-1.9-3.6c-0.5-1.4-0.7-2.9-0.7-4.5c0-3.3,0.6-6.1,1.7-8.6
				c1.1-2.5,2.5-4.6,4.2-6.2c1.7-1.7,3.6-2.9,5.7-3.8c2.1-0.8,4.1-1.3,6-1.3c1.3,0,2.5,0.2,3.6,0.5c1.1,0.3,2,0.7,2.8,1.1
				c0.8,0.4,1.4,0.8,1.8,1.2c0.4,0.4,0.6,0.6,0.7,0.6c0.5,0.5,0.7,1.1,0.7,1.7s-0.2,1.2-0.7,1.7c-0.5,0.5-1,0.7-1.6,0.7
				c-0.6,0-1.1-0.2-1.7-0.7c-0.2-0.1-0.4-0.3-0.7-0.5c-0.3-0.2-0.6-0.5-1.1-0.7s-1-0.5-1.6-0.6c-0.6-0.2-1.3-0.3-2.2-0.3
				c-1.3,0-2.6,0.3-4.1,0.8s-2.9,1.4-4.2,2.7c-1.3,1.2-2.4,2.8-3.3,4.7c-0.9,1.9-1.3,4.2-1.3,6.8c0,2,0.4,3.6,1.3,4.8
				c0.9,1.2,2.2,1.8,4.1,1.8c0.9,0,1.8-0.3,2.8-0.8c1-0.5,1.9-1.3,2.8-2.3c0.9-1,1.7-2.4,2.4-3.9c0.7-1.6,1.2-3.5,1.5-5.6
				c0.1-0.6,0.4-1.1,0.8-1.5c0.5-0.4,1-0.6,1.6-0.6c0.7,0,1.3,0.3,1.7,0.8c0.4,0.5,0.6,1.1,0.6,1.7c0,0,0,0.7-0.1,1.9
				c0,1.2-0.1,2.9-0.1,4.9c0,2-0.1,4.4-0.2,7.1S153.7,183.2,153.7,186.2z M148.9,199.9c-2,2.7-3.7,5.7-5.3,8.8
				c-1.6,3.2-2.9,6.4-4.1,9.7s-2,6.4-2.6,9.5c-0.6,3.1-0.9,5.8-0.9,8.2c0,1.5,0.1,2.8,0.4,3.7c0.3,0.9,0.6,1.6,1,2.1
				c0.4,0.5,0.8,0.8,1.3,1c0.5,0.2,0.9,0.3,1.3,0.3c1.3,0,2.4-0.5,3.4-1.6c1-1,1.8-2.4,2.4-4.2c0.7-1.7,1.2-3.7,1.6-6
				c0.4-2.3,0.7-4.6,0.9-7c0.2-2.4,0.4-4.8,0.4-7.2c0.1-2.4,0.1-4.6,0.1-6.6c0-1.8,0-3.6,0-5.4C149.1,203.6,149,201.7,148.9,199.9z"
				/>
			<g id="XMLID_148_" class="st2">
				<path id="XMLID_149_" class="st1" d="M147.4,149.6c1.3,0,2.5,0.2,3.6,0.5c1.1,0.3,2,0.7,2.8,1.1c0.8,0.4,1.4,0.8,1.8,1.2
					c0.4,0.4,0.6,0.6,0.7,0.6c0.5,0.5,0.7,1.1,0.7,1.7s-0.2,1.2-0.7,1.7c-0.5,0.5-1,0.7-1.6,0.7c-0.6,0-1.1-0.2-1.7-0.7
					c-0.2-0.1-0.4-0.3-0.7-0.5c-0.3-0.2-0.6-0.5-1.1-0.7s-1-0.5-1.6-0.6c-0.6-0.2-1.3-0.3-2.2-0.3c-1.3,0-2.6,0.3-4.1,0.8
					s-2.9,1.4-4.2,2.7c-1.3,1.2-2.4,2.8-3.3,4.7c-0.9,1.9-1.3,4.2-1.3,6.8c0,2,0.4,3.6,1.3,4.8c0.9,1.2,2.2,1.8,4.1,1.8
					c0.9,0,1.8-0.3,2.8-0.8c1-0.5,1.9-1.3,2.8-2.3c0.9-1,1.7-2.4,2.4-3.9c0.7-1.6,1.2-3.5,1.5-5.6c0.1-0.6,0.4-1.1,0.8-1.5
					c0.5-0.4,1-0.6,1.6-0.6c0.7,0,1.3,0.3,1.7,0.8c0.4,0.5,0.6,1.1,0.6,1.7c0,0,0,0.7-0.1,1.9c0,1.2-0.1,2.9-0.1,4.9
					c0,2-0.1,4.4-0.2,7.1s-0.1,5.5-0.2,8.5c7.8-10.2,13.3-18.7,16.3-25.4c0.2-0.5,0.5-0.8,0.8-1c0.4-0.2,0.8-0.3,1.2-0.3
					c0.7,0,1.3,0.2,1.8,0.7c0.5,0.5,0.7,1,0.7,1.7c0,0.3-0.1,0.6-0.2,0.9c-1.8,4.2-4.4,8.8-7.8,13.9s-7.6,10.9-12.8,17.4
					c0,2.6,0,5.3,0.1,7.9c0,2.6,0.1,5.5,0.1,8.6s-0.1,6.2-0.2,9.3c-0.1,3.1-0.4,6-0.8,8.8c-0.4,2.8-0.9,5.3-1.5,7.7
					c-0.6,2.4-1.5,4.4-2.5,6.1c-1,1.7-2.3,3.1-3.7,4.1c-1.4,1-3.1,1.5-5.1,1.5c-2.8,0-4.9-1.1-6.4-3.2s-2.3-5.1-2.3-9.1
					c0-2.1,0.2-4.3,0.6-6.8c0.4-2.4,1-4.9,1.7-7.5c0.8-2.6,1.7-5.2,2.7-7.8c1.1-2.6,2.2-5.2,3.5-7.7c1.3-2.5,2.7-4.9,4.2-7.2
					c1.5-2.3,3.1-4.4,4.8-6.3c0-2.9,0.1-5.8,0.1-8.7c0-2.9,0.1-5.5,0.2-7.9c-1.3,1.6-2.7,2.8-4.5,3.8c-1.7,0.9-3.4,1.4-5.2,1.4
					c-1.5,0-2.8-0.3-4-0.8s-2.2-1.4-3-2.4c-0.8-1-1.5-2.2-1.9-3.6c-0.5-1.4-0.7-2.9-0.7-4.5c0-3.3,0.6-6.1,1.7-8.6
					c1.1-2.5,2.5-4.6,4.2-6.2c1.7-1.7,3.6-2.9,5.7-3.8C143.5,150,145.5,149.6,147.4,149.6 M140.1,243.1c1.3,0,2.4-0.5,3.4-1.6
					c1-1,1.8-2.4,2.4-4.2c0.7-1.7,1.2-3.7,1.6-6c0.4-2.3,0.7-4.6,0.9-7c0.2-2.4,0.4-4.8,0.4-7.2c0.1-2.4,0.1-4.6,0.1-6.6
					c0-1.8,0-3.6,0-5.4c0-1.8,0-3.6-0.1-5.5c-2,2.7-3.7,5.7-5.3,8.8c-1.6,3.2-2.9,6.4-4.1,9.7s-2,6.4-2.6,9.5
					c-0.6,3.1-0.9,5.8-0.9,8.2c0,1.5,0.1,2.8,0.4,3.7c0.3,0.9,0.6,1.6,1,2.1c0.4,0.5,0.8,0.8,1.3,1
					C139.3,243,139.7,243.1,140.1,243.1 M147.4,146.6c-2.3,0-4.7,0.5-7.1,1.5c-2.4,1-4.6,2.5-6.6,4.4c-2,1.9-3.6,4.3-4.9,7.1
					c-1.3,2.9-1.9,6.2-1.9,9.8c0,1.9,0.3,3.8,0.8,5.4c0.6,1.7,1.4,3.2,2.5,4.5c1.1,1.4,2.5,2.4,4.1,3.2c1.6,0.8,3.4,1.1,5.3,1.1
					c2.2,0,4.3-0.6,6.5-1.7c0,0.5,0,1,0,1.5c0,2.5,0,5-0.1,7.6c-1.5,1.8-3,3.7-4.4,5.8c-1.6,2.4-3,4.9-4.4,7.5
					c-1.3,2.6-2.6,5.3-3.6,8c-1.1,2.7-2,5.5-2.8,8.1c-0.8,2.7-1.4,5.3-1.8,7.9c-0.4,2.6-0.6,5-0.6,7.3c0,4.5,0.9,8.2,2.8,10.8
					c2.1,2.9,5.1,4.5,8.9,4.5c2.6,0,4.8-0.7,6.8-2c1.8-1.2,3.3-2.9,4.6-5c1.2-2,2.1-4.3,2.8-6.9c0.7-2.5,1.2-5.2,1.6-8.1
					c0.4-2.8,0.7-5.9,0.8-9c0.1-3.1,0.2-6.3,0.2-9.4c0-3.1,0-6-0.1-8.7c0-2.2-0.1-4.5-0.1-6.8c4.9-6.2,9.1-11.8,12.3-16.8
					c3.4-5.2,6.2-10.1,8.1-14.4c0.3-0.7,0.4-1.4,0.4-2.1c0-1.4-0.5-2.7-1.5-3.7c-1-1.1-2.4-1.6-3.9-1.6c-1,0-2,0.3-2.8,0.8
					c-0.8,0.5-1.5,1.3-1.9,2.3c-2.2,4.8-5.7,10.6-10.4,17.3c0.1-2.3,0.1-4.4,0.1-6.2c0-2,0.1-3.6,0.1-4.9l0-0.5c0-0.9,0-1.4,0-1.5
					c0-1.3-0.4-2.5-1.2-3.5c-0.1-0.1-0.1-0.1-0.2-0.2c1-0.2,1.9-0.7,2.6-1.5c1-1,1.5-2.3,1.5-3.7c0-1.4-0.5-2.7-1.5-3.7l-0.1-0.1
					l-0.1-0.1c0,0-0.3-0.3-0.8-0.7c-0.6-0.5-1.4-1.1-2.4-1.6c-0.9-0.5-2.1-1-3.3-1.4C150.5,146.8,149,146.6,147.4,146.6L147.4,146.6
					z M140,173c-1.2,0-1.5-0.4-1.6-0.6c-0.5-0.7-0.8-1.7-0.8-3.1c0-2.2,0.3-4.1,1-5.6c0.7-1.5,1.6-2.8,2.6-3.7c1-0.9,2.1-1.6,3.2-2
					c1.2-0.4,2.2-0.7,3.1-0.7c0.7,0,1.1,0.1,1.4,0.1c0.4,0.1,0.7,0.3,0.9,0.3c0.4,0.2,0.5,0.3,0.6,0.4c0.1,0.1,0.2,0.2,0.3,0.3
					c-0.8,0.2-1.6,0.6-2.3,1.2c-1,0.9-1.6,2-1.8,3.3c-0.3,1.9-0.7,3.5-1.3,4.9c-0.6,1.3-1.2,2.3-1.9,3.2c-0.7,0.8-1.3,1.3-2,1.6
					C140.9,172.8,140.4,173,140,173L140,173z M139.9,240.1C139.9,240,139.8,240,139.9,240.1c-0.1-0.1-0.3-0.4-0.5-1.2
					c-0.1-0.4-0.3-1.3-0.3-2.8c0-2.2,0.3-4.8,0.8-7.6c0.6-2.9,1.4-6,2.5-9.1c1-2.9,2.3-5.9,3.7-8.8v0.2c0,1.9,0,4.1-0.1,6.5
					c-0.1,2.3-0.2,4.7-0.4,7c-0.2,2.3-0.5,4.5-0.9,6.7c-0.4,2.1-0.9,3.9-1.5,5.4c-0.5,1.4-1.1,2.4-1.8,3.2c-0.5,0.5-0.8,0.6-1.2,0.6
					C140.1,240.1,140,240.1,139.9,240.1L139.9,240.1z"/>
			</g>
		</g>
		<g id="XMLID_140_">
			<path id="XMLID_145_" class="st1" d="M183.9,174.4c0.7-1.4,1.4-2.9,2.3-4.5c0.9-1.6,1.8-3.3,2.8-5s2.1-3.4,3.2-5
				c1.1-1.7,2.3-3.3,3.5-4.8c1.2-1.5,2.4-2.5,3.7-3.2c1.2-0.6,2.4-1,3.5-1c2.2,0,3.8,0.8,4.8,2.4c1,1.6,1.6,3.5,1.6,5.9
				c0,0.5,0,1.2-0.1,2c-0.1,0.8-0.1,1.6-0.2,2.5s-0.1,1.8-0.2,2.7c-0.1,0.9-0.1,1.7-0.1,2.5c0,1,0.1,2,0.2,2.9
				c0.1,0.9,0.3,1.7,0.6,2.4c0.3,0.7,0.7,1.2,1.3,1.6c0.5,0.4,1.3,0.6,2.1,0.6c1.6,0,3.1-0.6,4.6-1.8c1.5-1.2,2.9-2.7,4.2-4.4
				c1.3-1.7,2.4-3.4,3.3-5.2s1.6-3.2,2.1-4.3c0.2-0.5,0.5-0.8,0.9-1.1c0.4-0.3,0.8-0.4,1.3-0.4c0.7,0,1.3,0.3,1.7,0.8
				c0.4,0.5,0.7,1.1,0.7,1.7c0,0.3-0.1,0.6-0.2,0.9c-0.2,0.3-0.5,1-1,2.1c-0.5,1-1.2,2.2-2,3.6c-0.8,1.4-1.8,2.8-2.8,4.3
				c-1.1,1.5-2.3,2.9-3.6,4.2s-2.7,2.3-4.3,3.1c-1.5,0.8-3.1,1.3-4.8,1.3c-1.9,0-3.4-0.4-4.6-1.1c-1.2-0.7-2.1-1.7-2.8-2.9
				c-0.7-1.2-1.1-2.5-1.3-3.9c-0.2-1.4-0.3-2.9-0.3-4.3c0-0.6,0-1.3,0.1-2.1c0.1-0.8,0.1-1.6,0.3-2.5c0.1-0.9,0.2-1.8,0.3-2.6
				s0.1-1.7,0.1-2.5c0-1.3-0.2-2.2-0.6-2.7c-0.4-0.5-0.8-0.7-1.1-0.7c-0.7,0-1.4,0.4-2.3,1.2c-0.9,0.8-1.8,1.8-2.7,3
				s-1.9,2.7-2.9,4.2c-1,1.6-1.9,3.1-2.8,4.7c-0.9,1.5-1.6,3-2.4,4.4c-0.7,1.4-1.3,2.6-1.7,3.5c-0.8,1.8-1.7,2.9-2.5,3.5
				c-0.8,0.6-1.7,0.9-2.6,0.9c-1.2,0-2.2-0.4-2.9-1.1c-0.7-0.7-1.1-1.8-1.1-3.1c0-0.3,0-0.9,0.1-1.7c0.1-0.9,0.2-1.9,0.3-3.1
				s0.3-2.5,0.4-3.8s0.3-2.7,0.4-4.1c0.1-1.4,0.2-2.6,0.3-3.8c0.1-1.2,0.1-2.1,0.1-2.9c0-1,0-2-0.1-3c-0.1-1-0.3-1.5-0.5-1.8
				c-0.4,0.1-1,0.9-2,2.3c-1,1.4-2.2,4-3.7,7.6c-0.2,0.5-0.5,0.8-0.9,1.1c-0.4,0.3-0.9,0.4-1.3,0.4c-0.7,0-1.3-0.2-1.7-0.7
				c-0.4-0.5-0.6-1-0.6-1.7c0-0.3,0.1-0.6,0.2-0.9c1.9-4.5,3.6-7.7,5.3-9.8c1.6-2.1,3.3-3.2,4.9-3.2c1,0,1.8,0.2,2.4,0.7
				c0.7,0.5,1.2,1.1,1.6,1.9c0.4,0.8,0.7,1.7,0.9,2.6c0.2,1,0.3,1.9,0.3,2.9c0,0.8-0.1,1.9-0.2,3.5c-0.1,1.6-0.2,3.3-0.4,5.1
				c-0.2,1.8-0.3,3.6-0.5,5.4C184.1,171.7,184,173.2,183.9,174.4z"/>
			<g id="XMLID_141_" class="st2">
				<path id="XMLID_142_" class="st1" d="M180.1,147.7c1,0,1.8,0.2,2.4,0.7c0.7,0.5,1.2,1.1,1.6,1.9c0.4,0.8,0.7,1.7,0.9,2.6
					c0.2,1,0.3,1.9,0.3,2.9c0,0.8-0.1,1.9-0.2,3.5c-0.1,1.6-0.2,3.3-0.4,5.1c-0.2,1.8-0.3,3.6-0.5,5.4c-0.1,1.8-0.3,3.3-0.4,4.5
					c0.7-1.4,1.4-2.9,2.3-4.5c0.9-1.6,1.8-3.3,2.8-5s2.1-3.4,3.2-5c1.1-1.7,2.3-3.3,3.5-4.8c1.2-1.5,2.4-2.5,3.7-3.2
					c1.2-0.6,2.4-1,3.5-1c2.2,0,3.8,0.8,4.8,2.4c1,1.6,1.6,3.5,1.6,5.9c0,0.5,0,1.2-0.1,2c-0.1,0.8-0.1,1.6-0.2,2.5
					s-0.1,1.8-0.2,2.7c-0.1,0.9-0.1,1.7-0.1,2.5c0,1,0.1,2,0.2,2.9c0.1,0.9,0.3,1.7,0.6,2.4c0.3,0.7,0.7,1.2,1.3,1.6
					c0.5,0.4,1.3,0.6,2.1,0.6c1.6,0,3.1-0.6,4.6-1.8c1.5-1.2,2.9-2.7,4.2-4.4c1.3-1.7,2.4-3.4,3.3-5.2s1.6-3.2,2.1-4.3
					c0.2-0.5,0.5-0.8,0.9-1.1c0.4-0.3,0.8-0.4,1.3-0.4c0.7,0,1.3,0.3,1.7,0.8c0.4,0.5,0.7,1.1,0.7,1.7c0,0.3-0.1,0.6-0.2,0.9
					c-0.2,0.3-0.5,1-1,2.1c-0.5,1-1.2,2.2-2,3.6c-0.8,1.4-1.8,2.8-2.8,4.3c-1.1,1.5-2.3,2.9-3.6,4.2s-2.7,2.3-4.3,3.1
					c-1.5,0.8-3.1,1.3-4.8,1.3c-1.9,0-3.4-0.4-4.6-1.1c-1.2-0.7-2.1-1.7-2.8-2.9c-0.7-1.2-1.1-2.5-1.3-3.9c-0.2-1.4-0.3-2.9-0.3-4.3
					c0-0.6,0-1.3,0.1-2.1c0.1-0.8,0.1-1.6,0.3-2.5c0.1-0.9,0.2-1.8,0.3-2.6s0.1-1.7,0.1-2.5c0-1.3-0.2-2.2-0.6-2.7
					c-0.4-0.5-0.8-0.7-1.1-0.7c-0.7,0-1.4,0.4-2.3,1.2c-0.9,0.8-1.8,1.8-2.7,3s-1.9,2.7-2.9,4.2c-1,1.6-1.9,3.1-2.8,4.7
					c-0.9,1.5-1.6,3-2.4,4.4c-0.7,1.4-1.3,2.6-1.7,3.5c-0.8,1.8-1.7,2.9-2.5,3.5c-0.8,0.6-1.7,0.9-2.6,0.9c-1.2,0-2.2-0.4-2.9-1.1
					c-0.7-0.7-1.1-1.8-1.1-3.1c0-0.3,0-0.9,0.1-1.7c0.1-0.9,0.2-1.9,0.3-3.1s0.3-2.5,0.4-3.8s0.3-2.7,0.4-4.1
					c0.1-1.4,0.2-2.6,0.3-3.8c0.1-1.2,0.1-2.1,0.1-2.9c0-1,0-2-0.1-3c-0.1-1-0.3-1.5-0.5-1.8c-0.4,0.1-1,0.9-2,2.3
					c-1,1.4-2.2,4-3.7,7.6c-0.2,0.5-0.5,0.8-0.9,1.1c-0.4,0.3-0.9,0.4-1.3,0.4c-0.7,0-1.3-0.2-1.7-0.7c-0.4-0.5-0.6-1-0.6-1.7
					c0-0.3,0.1-0.6,0.2-0.9c1.9-4.5,3.6-7.7,5.3-9.8C176.9,148.8,178.5,147.7,180.1,147.7 M180.1,144.7c-2.6,0-5,1.4-7.3,4.3
					c-1.8,2.3-3.7,5.8-5.7,10.5l0,0.1l0,0.1c-0.3,0.7-0.4,1.3-0.4,2c0,1.3,0.5,2.6,1.4,3.6c1,1.1,2.4,1.7,3.9,1.7c1,0,2-0.3,2.9-0.8
					c0.9-0.6,1.7-1.4,2.1-2.4l0,0l0,0c0.1-0.1,0.1-0.3,0.2-0.4c0,0.2,0,0.3,0,0.5c-0.1,1.4-0.3,2.7-0.4,4.1
					c-0.1,1.4-0.2,2.6-0.4,3.8c-0.1,1.2-0.2,2.2-0.3,3.1c-0.1,1.3-0.1,1.8-0.1,2c0,2.7,1.1,4.3,2,5.2c1.3,1.3,3,2,5,2
					c1.5,0,3-0.5,4.3-1.5c1.3-0.9,2.4-2.4,3.4-4.7l0,0l0,0c0.4-0.9,0.9-2,1.6-3.3c0.7-1.4,1.5-2.8,2.3-4.3c0.8-1.5,1.7-3,2.7-4.5
					c0.9-1.5,1.8-2.8,2.7-4c0.4-0.6,0.9-1.1,1.3-1.6c0,0.4,0,0.9-0.1,1.3c-0.1,0.8-0.1,1.6-0.2,2.5c-0.1,0.9-0.2,1.8-0.3,2.6
					c-0.1,0.9-0.1,1.7-0.1,2.4c0,1.6,0.1,3.2,0.4,4.8c0.3,1.8,0.9,3.4,1.7,4.9c0.9,1.6,2.2,3,3.8,4c1.6,1,3.7,1.5,6.2,1.5
					c2.2,0,4.3-0.5,6.2-1.6c1.7-1,3.4-2.2,4.9-3.6c1.4-1.4,2.8-2.9,4-4.6c1.1-1.6,2.1-3.1,3-4.5c0.9-1.4,1.6-2.7,2.1-3.8
					c0.5-1,0.8-1.7,1-2l0-0.1l0-0.1c0.3-0.7,0.4-1.4,0.4-2.1c0-1.3-0.5-2.5-1.4-3.6c-1-1.2-2.4-1.9-4-1.9c-1,0-2,0.3-2.9,0.8
					c-0.9,0.6-1.6,1.4-2,2.4l0,0l0,0c-0.4,1-1.1,2.3-2,4c-0.9,1.6-1.9,3.2-3.1,4.8c-1.1,1.5-2.4,2.8-3.7,3.9c-1,0.8-1.8,1.2-2.7,1.2
					c-0.2,0-0.3,0-0.4,0c-0.1,0-0.1-0.1-0.2-0.3c-0.2-0.4-0.3-1-0.4-1.6c-0.1-0.8-0.1-1.7-0.1-2.5c0-0.7,0-1.5,0.1-2.3l0.2-2.7
					c0.1-0.9,0.1-1.7,0.2-2.4c0.1-0.9,0.1-1.6,0.1-2.2c0-2.9-0.7-5.4-2.1-7.5c-1.1-1.7-3.3-3.7-7.3-3.7c-1.6,0-3.2,0.4-4.9,1.3
					c-1.6,0.8-3.1,2.1-4.6,3.9c-1.3,1.6-2.5,3.3-3.7,5c-0.5,0.8-1.1,1.6-1.6,2.4c0-0.3,0-0.7,0.1-1c0.1-1.7,0.2-2.9,0.2-3.7
					c0-1.2-0.1-2.4-0.3-3.5c-0.2-1.2-0.6-2.4-1.1-3.4c-0.6-1.2-1.5-2.2-2.5-3C183.1,145.2,181.7,144.7,180.1,144.7L180.1,144.7z"/>
			</g>
		</g>
		<g id="XMLID_132_">
			<path id="XMLID_138_" class="st1" d="M275.3,162.6c-0.2,0.3-0.5,1-1,2.1c-0.5,1.1-1.2,2.3-2,3.7s-1.8,2.8-2.8,4.3
				c-1.1,1.5-2.3,2.9-3.6,4.1c-1.3,1.3-2.8,2.3-4.3,3.1c-1.5,0.8-3.2,1.2-4.9,1.2c-2.4,0-4.4-0.8-6.1-2.3c-1.6-1.5-2.8-3.5-3.6-5.8
				c-1.4,2.4-3.1,4.3-5.1,5.7c-2,1.4-3.9,2.1-5.9,2.1c-1.5,0-2.9-0.3-4.2-0.8s-2.3-1.4-3.2-2.4c-0.9-1-1.6-2.2-2-3.6
				c-0.5-1.4-0.7-2.9-0.7-4.5c0-3.3,0.6-6.1,1.7-8.6c1.1-2.5,2.5-4.6,4.2-6.2c1.7-1.7,3.6-2.9,5.7-3.8c2.1-0.8,4.1-1.3,6-1.3
				c1.3,0,2.5,0.2,3.6,0.5c1.1,0.4,2,0.7,2.8,1.2c0.8,0.4,1.4,0.8,1.8,1.2c0.4,0.4,0.6,0.6,0.7,0.6c0.5,0.5,0.7,1.1,0.7,1.7
				c0,0.6-0.2,1.2-0.7,1.7c-0.5,0.5-1,0.7-1.6,0.7c-0.7,0-1.2-0.2-1.7-0.7c-0.1-0.1-0.3-0.2-0.6-0.5c-0.3-0.2-0.7-0.5-1.2-0.7
				s-1.1-0.5-1.8-0.7s-1.5-0.3-2.3-0.3c-1.3,0-2.7,0.3-4.1,0.9c-1.5,0.6-2.8,1.5-4,2.7c-1.2,1.2-2.2,2.8-3,4.6
				c-0.8,1.9-1.2,4.1-1.2,6.6c0,0.8,0.1,1.6,0.3,2.4c0.2,0.8,0.5,1.6,0.9,2.2c0.4,0.7,1,1.2,1.7,1.6c0.7,0.4,1.6,0.6,2.6,0.6
				c0.8,0,1.6-0.3,2.6-0.8c1-0.5,1.9-1.3,2.8-2.3c0.9-1,1.7-2.4,2.4-3.9c0.7-1.6,1.2-3.5,1.5-5.6c0.1-0.6,0.4-1.1,0.8-1.5
				c0.5-0.4,1-0.6,1.6-0.6c0.6,0,1.1,0.2,1.5,0.7c0.4,0.5,0.7,1,0.7,1.6c0,0.8,0.1,1.9,0.3,3.3s0.4,2.9,0.8,4.3
				c0.4,1.4,1.1,2.6,2,3.7c0.9,1,2.1,1.6,3.6,1.6c1,0,2-0.3,3-0.8c1-0.5,1.9-1.3,2.9-2.2c0.9-0.9,1.8-1.9,2.7-3.1
				c0.9-1.1,1.6-2.3,2.3-3.5c0.7-1.2,1.3-2.3,1.9-3.4c0.5-1.1,1-2,1.4-2.8c0.2-0.5,0.5-0.8,0.9-1.1c0.4-0.3,0.8-0.4,1.3-0.4
				c0.7,0,1.3,0.3,1.7,0.8c0.4,0.5,0.7,1.1,0.7,1.7C275.4,162,275.4,162.3,275.3,162.6z"/>
			<g id="XMLID_133_" class="st2">
				<path id="XMLID_134_" class="st1" d="M243.3,149.6c1.3,0,2.5,0.2,3.6,0.5c1.1,0.4,2,0.7,2.8,1.2c0.8,0.4,1.4,0.8,1.8,1.2
					c0.4,0.4,0.6,0.6,0.7,0.6c0.5,0.5,0.7,1.1,0.7,1.7c0,0.6-0.2,1.2-0.7,1.7c-0.5,0.5-1,0.7-1.6,0.7c-0.7,0-1.2-0.2-1.7-0.7
					c-0.1-0.1-0.3-0.2-0.6-0.5c-0.3-0.2-0.7-0.5-1.2-0.7s-1.1-0.5-1.8-0.7s-1.5-0.3-2.3-0.3c-1.3,0-2.7,0.3-4.1,0.9
					c-1.5,0.6-2.8,1.5-4,2.7c-1.2,1.2-2.2,2.8-3,4.6c-0.8,1.9-1.2,4.1-1.2,6.6c0,0.8,0.1,1.6,0.3,2.4c0.2,0.8,0.5,1.6,0.9,2.2
					c0.4,0.7,1,1.2,1.7,1.6c0.7,0.4,1.6,0.6,2.6,0.6c0.8,0,1.6-0.3,2.6-0.8c1-0.5,1.9-1.3,2.8-2.3c0.9-1,1.7-2.4,2.4-3.9
					c0.7-1.6,1.2-3.5,1.5-5.6c0.1-0.6,0.4-1.1,0.8-1.5c0.5-0.4,1-0.6,1.6-0.6c0.6,0,1.1,0.2,1.5,0.7c0.4,0.5,0.7,1,0.7,1.6
					c0,0.8,0.1,1.9,0.3,3.3s0.4,2.9,0.8,4.3c0.4,1.4,1.1,2.6,2,3.7c0.9,1,2.1,1.6,3.6,1.6c1,0,2-0.3,3-0.8c1-0.5,1.9-1.3,2.9-2.2
					c0.9-0.9,1.8-1.9,2.7-3.1c0.9-1.1,1.6-2.3,2.3-3.5c0.7-1.2,1.3-2.3,1.9-3.4c0.5-1.1,1-2,1.4-2.8c0.2-0.5,0.5-0.8,0.9-1.1
					c0.4-0.3,0.8-0.4,1.3-0.4c0.7,0,1.3,0.3,1.7,0.8c0.4,0.5,0.7,1.1,0.7,1.7c0,0.3-0.1,0.6-0.2,0.9c-0.2,0.3-0.5,1-1,2.1
					c-0.5,1.1-1.2,2.3-2,3.7s-1.8,2.8-2.8,4.3c-1.1,1.5-2.3,2.9-3.6,4.1c-1.3,1.3-2.8,2.3-4.3,3.1c-1.5,0.8-3.2,1.2-4.9,1.2
					c-2.4,0-4.4-0.8-6.1-2.3c-1.6-1.5-2.8-3.5-3.6-5.8c-1.4,2.4-3.1,4.3-5.1,5.7c-2,1.4-3.9,2.1-5.9,2.1c-1.5,0-2.9-0.3-4.2-0.8
					s-2.3-1.4-3.2-2.4c-0.9-1-1.6-2.2-2-3.6c-0.5-1.4-0.7-2.9-0.7-4.5c0-3.3,0.6-6.1,1.7-8.6c1.1-2.5,2.5-4.6,4.2-6.2
					c1.7-1.7,3.6-2.9,5.7-3.8C239.4,150,241.4,149.6,243.3,149.6 M243.3,146.6c-2.3,0-4.7,0.5-7.1,1.5c-2.4,1-4.6,2.5-6.6,4.4
					c-2,1.9-3.6,4.3-4.9,7.1c-1.3,2.9-1.9,6.2-1.9,9.8c0,2,0.3,3.8,0.9,5.5c0.6,1.7,1.5,3.3,2.6,4.6c1.2,1.4,2.6,2.4,4.2,3.2
					c1.6,0.7,3.5,1.1,5.4,1.1c2.6,0,5.1-0.9,7.6-2.7c1-0.7,1.9-1.5,2.8-2.4c0.6,0.9,1.3,1.6,2.1,2.4c2.2,2.1,5,3.1,8.1,3.1
					c2.2,0,4.3-0.5,6.3-1.6c1.8-0.9,3.4-2.1,5-3.6c1.5-1.4,2.8-2.9,4-4.6c1.1-1.6,2.1-3.1,3-4.5c0.8-1.4,1.6-2.7,2.1-3.9
					c0.5-1.1,0.9-1.7,1-2.1l0-0.1l0-0.1c0.3-0.7,0.4-1.4,0.4-2.1c0-1.3-0.5-2.5-1.4-3.6c-1-1.2-2.4-1.9-4-1.9c-1,0-2,0.3-2.9,0.8
					c-0.9,0.6-1.6,1.4-2,2.4c-0.3,0.7-0.8,1.7-1.3,2.7c-0.5,1-1.1,2.1-1.8,3.2c-0.7,1.1-1.4,2.2-2.2,3.2c-0.8,1-1.5,1.9-2.4,2.7
					c-0.7,0.7-1.5,1.3-2.3,1.7c-0.5,0.3-1,0.4-1.5,0.4c-0.9,0-1.2-0.3-1.3-0.5c-0.6-0.7-1.1-1.6-1.4-2.6c-0.4-1.2-0.6-2.4-0.7-3.7
					c-0.1-1.4-0.2-2.5-0.2-3.2l0,0l0,0c-0.1-1.2-0.6-2.4-1.5-3.3c1-0.2,1.9-0.7,2.7-1.5c1-1,1.5-2.3,1.5-3.7c0-1.3-0.5-2.5-1.4-3.6
					l-0.1-0.1l-0.1-0.1c-0.1-0.1-0.2-0.2-0.8-0.7c-0.6-0.5-1.3-1-2.3-1.5c-0.9-0.5-2-1-3.3-1.4C246.4,146.8,244.9,146.6,243.3,146.6
					L243.3,146.6z M236,173c-0.5,0-0.9-0.1-1.1-0.2c-0.3-0.2-0.5-0.4-0.7-0.6c-0.2-0.4-0.4-0.8-0.5-1.2c-0.1-0.6-0.2-1.2-0.2-1.8
					c0-2.1,0.3-3.9,1-5.4c0.7-1.5,1.5-2.8,2.4-3.7c0.9-0.9,1.9-1.6,3-2c1.1-0.4,2.1-0.7,3-0.7c0.6,0,1.1,0.1,1.6,0.2
					c0.5,0.1,0.9,0.3,1.2,0.4c0.4,0.2,0.6,0.4,0.7,0.4c0.1,0,0.1,0.1,0.2,0.1c-0.9,0.2-1.6,0.6-2.3,1.2c-1,0.9-1.6,2-1.8,3.3
					c-0.3,1.9-0.7,3.5-1.3,4.8c-0.6,1.3-1.3,2.4-2,3.2c-0.6,0.7-1.3,1.3-1.9,1.6C236.4,173,236.1,173,236,173L236,173z"/>
			</g>
		</g>
		<g id="XMLID_120_">
			<path id="XMLID_128_" class="st1" d="M321.6,117.5c0,0.7-0.2,1.2-0.7,1.6c-0.5,0.4-1,0.6-1.7,0.6h-31.7v0.7
				c0,2.5-0.2,5.3-0.6,8.1c-0.4,2.9-0.9,5.7-1.5,8.6c-0.6,2.9-1.4,5.6-2.2,8.3c-0.8,2.7-1.6,5.2-2.5,7.5c-0.9,2.3-1.7,4.3-2.5,6
				c-0.8,1.7-1.6,2.9-2.3,3.8c0.5,1.9,1.2,3.7,1.9,5.3c0.8,1.6,1.6,3.1,2.5,4.3c0.9,1.2,1.9,2.2,3,2.9c1.1,0.7,2.3,1.1,3.5,1.1
				c1.5,0,2.9-0.6,4.3-1.8c1.4-1.2,2.8-2.7,4-4.4c1.2-1.7,2.3-3.4,3.3-5.1c0.9-1.7,1.6-3.1,2-4.2c0.4-1,1.1-1.5,2.2-1.5
				c0.7,0,1.3,0.3,1.7,0.8s0.7,1,0.7,1.6c0,0.3-0.1,0.6-0.2,0.9c-0.1,0.3-0.4,1-0.9,2c-0.5,1-1.1,2.3-1.9,3.6
				c-0.8,1.4-1.7,2.8-2.7,4.3c-1,1.5-2.2,2.9-3.4,4.2c-1.3,1.3-2.6,2.3-4.1,3.1c-1.5,0.8-3,1.3-4.6,1.3c-2.9,0-5.5-0.9-7.8-2.8
				c-2.3-1.9-4.2-4.5-5.8-7.9c-1.6-3.4-2.8-7.4-3.7-12c-0.8-4.6-1.3-9.7-1.3-15.2c0-1.4,0-3,0.1-4.8c0-1.9,0.1-3.8,0.3-5.9
				s0.3-4.2,0.6-6.4c0.3-2.2,0.6-4.3,1-6.4h-22.4c-0.7,0-1.2-0.2-1.7-0.6c-0.5-0.4-0.7-0.9-0.7-1.6c0-0.7,0.2-1.2,0.7-1.6
				c0.5-0.4,1-0.6,1.7-0.6h23.5c0.4-1.5,0.9-2.9,1.5-4.1s1.2-2.3,1.9-3.3c0.7-0.9,1.5-1.6,2.4-2.2c0.9-0.5,1.9-0.8,3-0.8
				c1,0,1.9,0.3,2.7,0.8c0.8,0.5,1.4,1.2,2,2.2c0.5,0.9,1,2,1.3,3.3s0.6,2.6,0.7,4.1h31.9c0.7,0,1.2,0.2,1.7,0.6
				C321.3,116.3,321.6,116.8,321.6,117.5z M274.5,156.4c1.3-2.8,2.4-5.7,3.4-8.9c1-3.2,1.9-6.4,2.6-9.7c0.7-3.3,1.3-6.4,1.7-9.6
				c0.4-3.1,0.6-6,0.6-8.6h-7.4c-0.6,2.6-1.1,5.8-1.4,9.6c-0.4,3.8-0.5,8.4-0.5,13.9c0,3,0.1,5.6,0.3,7.7
				C273.9,152.9,274.2,154.8,274.5,156.4z M280.3,109.7c-0.4,0-0.9,0.4-1.6,1.2c-0.7,0.8-1.4,2.3-2.1,4.4h6
				c-0.2-1.8-0.5-3.1-0.9-4.1C281.3,110.2,280.8,109.7,280.3,109.7z"/>
			<g id="XMLID_121_" class="st2">
				<path id="XMLID_122_" class="st1" d="M280.6,105c1,0,1.9,0.3,2.7,0.8c0.8,0.5,1.4,1.2,2,2.2c0.5,0.9,1,2,1.3,3.3
					s0.6,2.6,0.7,4.1h31.9c0.7,0,1.2,0.2,1.7,0.6c0.5,0.4,0.7,0.9,0.7,1.6c0,0.7-0.2,1.2-0.7,1.6c-0.5,0.4-1,0.6-1.7,0.6h-31.7v0.7
					c0,2.5-0.2,5.3-0.6,8.1c-0.4,2.9-0.9,5.7-1.5,8.6c-0.6,2.9-1.4,5.6-2.2,8.3c-0.8,2.7-1.6,5.2-2.5,7.5c-0.9,2.3-1.7,4.3-2.5,6
					c-0.8,1.7-1.6,2.9-2.3,3.8c0.5,1.9,1.2,3.7,1.9,5.3c0.8,1.6,1.6,3.1,2.5,4.3c0.9,1.2,1.9,2.2,3,2.9c1.1,0.7,2.3,1.1,3.5,1.1
					c1.5,0,2.9-0.6,4.3-1.8c1.4-1.2,2.8-2.7,4-4.4c1.2-1.7,2.3-3.4,3.3-5.1c0.9-1.7,1.6-3.1,2-4.2c0.4-1,1.1-1.5,2.2-1.5
					c0.7,0,1.3,0.3,1.7,0.8s0.7,1,0.7,1.6c0,0.3-0.1,0.6-0.2,0.9c-0.1,0.3-0.4,1-0.9,2c-0.5,1-1.1,2.3-1.9,3.6
					c-0.8,1.4-1.7,2.8-2.7,4.3c-1,1.5-2.2,2.9-3.4,4.2c-1.3,1.3-2.6,2.3-4.1,3.1c-1.5,0.8-3,1.3-4.6,1.3c-2.9,0-5.5-0.9-7.8-2.8
					c-2.3-1.9-4.2-4.5-5.8-7.9c-1.6-3.4-2.8-7.4-3.7-12c-0.8-4.6-1.3-9.7-1.3-15.2c0-1.4,0-3,0.1-4.8c0-1.9,0.1-3.8,0.3-5.9
					s0.3-4.2,0.6-6.4c0.3-2.2,0.6-4.3,1-6.4h-22.4c-0.7,0-1.2-0.2-1.7-0.6c-0.5-0.4-0.7-0.9-0.7-1.6c0-0.7,0.2-1.2,0.7-1.6
					c0.5-0.4,1-0.6,1.7-0.6h23.5c0.4-1.5,0.9-2.9,1.5-4.1s1.2-2.3,1.9-3.3c0.7-0.9,1.5-1.6,2.4-2.2C278.5,105.2,279.5,105,280.6,105
					 M276.6,115.3h6c-0.2-1.8-0.5-3.1-0.9-4.1c-0.4-1-0.8-1.5-1.3-1.5c-0.4,0-0.9,0.4-1.6,1.2C278,111.7,277.3,113.2,276.6,115.3
					 M282.8,119.7h-7.4c-0.6,2.6-1.1,5.8-1.4,9.6c-0.4,3.8-0.5,8.4-0.5,13.9c0,3,0.1,5.6,0.3,7.7c0.2,2.1,0.4,3.9,0.8,5.6
					c1.3-2.8,2.4-5.7,3.4-8.9c1-3.2,1.9-6.4,2.6-9.7c0.7-3.3,1.3-6.4,1.7-9.6C282.6,125.2,282.8,122.3,282.8,119.7 M280.6,102
					c-1.6,0-3.1,0.4-4.5,1.2c-1.2,0.7-2.3,1.7-3.3,2.9c-0.9,1.1-1.7,2.4-2.3,3.9c-0.3,0.7-0.6,1.5-0.9,2.4h-21.3
					c-1.4,0-2.6,0.5-3.6,1.3c-1.1,1-1.7,2.3-1.7,3.9c0,1.5,0.6,2.9,1.7,3.9c1,0.9,2.3,1.3,3.6,1.3h18.9c-0.2,1-0.3,2-0.4,3.1
					c-0.3,2.2-0.4,4.4-0.6,6.5c-0.1,2.1-0.2,4.1-0.3,6c0,1.9-0.1,3.5-0.1,4.9c0,5.7,0.4,10.9,1.3,15.7c0.9,4.9,2.2,9.2,3.9,12.8
					c1.8,3.8,4,6.8,6.7,8.9c2.8,2.3,6.1,3.5,9.6,3.5c2.1,0,4.2-0.6,6.1-1.6c1.7-1,3.3-2.2,4.7-3.6c1.4-1.4,2.7-2.9,3.8-4.6
					c1.1-1.6,2-3.1,2.8-4.5c0.8-1.4,1.5-2.7,2-3.8c0.5-1.1,0.8-1.8,0.9-2.1c0.3-0.7,0.4-1.4,0.4-2.1c0-1.3-0.5-2.6-1.4-3.6
					c-1-1.1-2.4-1.8-4-1.8c-2.3,0-4.1,1.2-5,3.3c-0.4,1-1,2.3-1.9,3.9c-0.9,1.6-1.9,3.2-3,4.8c-1.1,1.5-2.3,2.8-3.5,3.9
					c-0.9,0.7-1.7,1.1-2.4,1.1c-0.7,0-1.3-0.2-1.9-0.6c-0.8-0.5-1.6-1.3-2.3-2.2c-0.8-1-1.5-2.3-2.2-3.7c-0.5-1.1-1-2.3-1.4-3.6
					c0.5-0.8,1.1-1.8,1.6-3c0.9-1.8,1.8-3.9,2.7-6.2c0.9-2.4,1.7-4.9,2.6-7.7c0.8-2.8,1.6-5.6,2.2-8.5c0.7-2.9,1.2-5.9,1.6-8.9
					c0.3-2.1,0.5-4.2,0.5-6.2h28.7c1.4,0,2.6-0.5,3.6-1.3c1.1-1,1.7-2.3,1.7-3.9c0-1.5-0.6-2.9-1.7-3.9c-1-0.9-2.3-1.3-3.7-1.3
					h-29.3c-0.1-0.6-0.3-1.3-0.4-1.9c-0.4-1.5-0.9-2.9-1.6-4c-0.8-1.3-1.7-2.3-2.9-3.1C283.7,102.4,282.2,102,280.6,102L280.6,102z
					 M277.9,122.7h1.8c-0.1,1.7-0.3,3.4-0.5,5.2c-0.4,3-0.9,6.1-1.6,9.3c-0.3,1.5-0.7,3-1.1,4.5c0-4.7,0.2-8.8,0.5-12.1
					C277.3,127,277.6,124.7,277.9,122.7L277.9,122.7z"/>
			</g>
		</g>
		<g id="XMLID_113_">
			<path id="XMLID_118_" class="st1" d="M321.6,173c-1.5,2.4-3.2,4.3-5.1,5.6s-3.9,2.1-5.8,2.1c-1.6,0-3-0.3-4.3-0.9
				s-2.3-1.4-3.3-2.5c-0.9-1.1-1.6-2.3-2.1-3.8c-0.5-1.5-0.7-3.2-0.7-5.1c0-2.9,0.3-5.5,0.8-7.8s1.2-4.1,1.8-5.7
				c0.7-1.5,1.6-3.1,2.8-4.7c0.2-0.3,0.5-0.4,0.8-0.6s0.6-0.2,1-0.2c0.7,0,1.2,0.2,1.7,0.7c0.4,0.5,0.7,1,0.7,1.7
				c0,0.3-0.1,0.5-0.2,0.8c-0.1,0.3-0.2,0.5-0.3,0.8c-0.2,0.4-0.5,0.9-1,1.7c-0.5,0.8-0.9,1.8-1.4,3s-0.9,2.7-1.3,4.4
				s-0.6,3.6-0.6,5.8c0,2.5,0.5,4.3,1.5,5.6c1,1.3,2.4,1.9,4.2,1.9c0.8,0,1.6-0.2,2.6-0.7c1-0.5,1.9-1.2,2.9-2.2s1.8-2.3,2.5-3.8
				c0.7-1.5,1.2-3.4,1.4-5.4l0.9-10.8c0.1-0.6,0.4-1.1,0.8-1.6c0.5-0.4,1-0.6,1.6-0.6c0.7,0,1.3,0.3,1.7,0.8
				c0.4,0.5,0.6,1.1,0.6,1.8l-0.8,10.4c-0.1,0.9-0.1,2,0.1,3.4c0.1,1.4,0.4,2.8,0.9,4.2c0.5,1.4,1.1,2.6,2.1,3.5
				c0.9,1,2.1,1.5,3.6,1.5c1.1,0,2.1-0.3,3.2-0.8c1-0.6,2-1.3,3-2.2c1-0.9,1.8-1.9,2.7-3.1c0.8-1.1,1.6-2.3,2.3-3.5
				c0.7-1.2,1.3-2.3,1.8-3.3s0.9-2,1.3-2.7c0.2-0.5,0.5-0.8,0.9-1.1s0.8-0.4,1.3-0.4c0.8,0,1.3,0.3,1.8,0.8c0.4,0.5,0.6,1,0.6,1.6
				c0,0.3-0.1,0.6-0.2,0.9c-0.2,0.3-0.5,1-1,2.1c-0.5,1.1-1.1,2.3-1.9,3.6c-0.8,1.4-1.7,2.8-2.8,4.3c-1.1,1.5-2.3,2.9-3.6,4.2
				c-1.3,1.3-2.8,2.3-4.3,3.1s-3.2,1.2-5,1.2c-2.5,0-4.5-0.7-6.1-2.1S322.4,175.6,321.6,173z"/>
			<g id="XMLID_114_" class="st2">
				<path id="XMLID_115_" class="st1" d="M307.5,149.7c0.7,0,1.2,0.2,1.7,0.7c0.4,0.5,0.7,1,0.7,1.7c0,0.3-0.1,0.5-0.2,0.8
					c-0.1,0.3-0.2,0.5-0.3,0.8c-0.2,0.4-0.5,0.9-1,1.7c-0.5,0.8-0.9,1.8-1.4,3s-0.9,2.7-1.3,4.4s-0.6,3.6-0.6,5.8
					c0,2.5,0.5,4.3,1.5,5.6c1,1.3,2.4,1.9,4.2,1.9c0.8,0,1.6-0.2,2.6-0.7c1-0.5,1.9-1.2,2.9-2.2s1.8-2.3,2.5-3.8
					c0.7-1.5,1.2-3.4,1.4-5.4l0.9-10.8c0.1-0.6,0.4-1.1,0.8-1.6c0.5-0.4,1-0.6,1.6-0.6c0.7,0,1.3,0.3,1.7,0.8
					c0.4,0.5,0.6,1.1,0.6,1.8l-0.8,10.4c-0.1,0.9-0.1,2,0.1,3.4c0.1,1.4,0.4,2.8,0.9,4.2c0.5,1.4,1.1,2.6,2.1,3.5
					c0.9,1,2.1,1.5,3.6,1.5c1.1,0,2.1-0.3,3.2-0.8c1-0.6,2-1.3,3-2.2c1-0.9,1.8-1.9,2.7-3.1c0.8-1.1,1.6-2.3,2.3-3.5
					c0.7-1.2,1.3-2.3,1.8-3.3s0.9-2,1.3-2.7c0.2-0.5,0.5-0.8,0.9-1.1s0.8-0.4,1.3-0.4c0.8,0,1.3,0.3,1.8,0.8c0.4,0.5,0.6,1,0.6,1.6
					c0,0.3-0.1,0.6-0.2,0.9c-0.2,0.3-0.5,1-1,2.1c-0.5,1.1-1.1,2.3-1.9,3.6c-0.8,1.4-1.7,2.8-2.8,4.3c-1.1,1.5-2.3,2.9-3.6,4.2
					c-1.3,1.3-2.8,2.3-4.3,3.1s-3.2,1.2-5,1.2c-2.5,0-4.5-0.7-6.1-2.1s-2.8-3.4-3.6-6c-1.5,2.4-3.2,4.3-5.1,5.6s-3.9,2.1-5.8,2.1
					c-1.6,0-3-0.3-4.3-0.9s-2.3-1.4-3.3-2.5c-0.9-1.1-1.6-2.3-2.1-3.8c-0.5-1.5-0.7-3.2-0.7-5.1c0-2.9,0.3-5.5,0.8-7.8
					s1.2-4.1,1.8-5.7c0.7-1.5,1.6-3.1,2.8-4.7c0.2-0.3,0.5-0.4,0.8-0.6S307.2,149.7,307.5,149.7 M307.5,146.7
					c-0.7,0-1.4,0.1-2.1,0.4c-0.8,0.3-1.4,0.8-2,1.4l-0.1,0.1l-0.1,0.1c-1.3,1.8-2.3,3.5-3.1,5.2c-0.7,1.7-1.4,3.7-2,6.1
					c-0.6,2.5-0.9,5.3-0.9,8.5c0,2.2,0.3,4.2,0.9,6c0.6,1.9,1.5,3.5,2.7,4.9c1.2,1.4,2.6,2.5,4.3,3.2c1.6,0.8,3.5,1.2,5.5,1.2
					c2.6,0,5.1-0.9,7.6-2.6c1-0.7,1.9-1.5,2.8-2.4c0.7,1,1.4,1.8,2.3,2.6c2.2,1.9,4.9,2.8,8.1,2.8c2.3,0,4.4-0.5,6.4-1.6
					c1.8-0.9,3.5-2.2,5-3.6c1.5-1.4,2.8-2.9,4-4.6c1.1-1.6,2.1-3.1,3-4.6c0.8-1.4,1.5-2.7,2-3.9c0.6-1.3,0.8-1.8,0.9-2l0-0.1l0-0.1
					c0.3-0.7,0.4-1.4,0.4-2.1c0-1.3-0.5-2.5-1.3-3.5c-1-1.2-2.4-1.8-4.1-1.8c-1,0-2.1,0.3-2.9,0.9c-0.8,0.6-1.5,1.3-1.9,2.3
					c-0.3,0.8-0.7,1.6-1.2,2.7c-0.5,1-1,2-1.7,3.1c-0.6,1.1-1.4,2.2-2.1,3.3c-0.7,1-1.5,1.9-2.3,2.7c-0.8,0.7-1.6,1.3-2.4,1.7
					c-0.6,0.3-1.2,0.5-1.8,0.5c-0.8,0-1.2-0.3-1.4-0.5c-0.6-0.7-1.1-1.5-1.4-2.4c-0.4-1.2-0.6-2.4-0.8-3.5c-0.2-1.5-0.1-2.4-0.1-2.8
					l0,0l0,0l0.8-10.4l0-0.1v-0.1c0-1.3-0.4-2.6-1.3-3.7c-1-1.2-2.4-1.9-4-1.9c-1.4,0-2.6,0.5-3.6,1.4c-1,0.9-1.6,2.1-1.8,3.4l0,0.1
					l0,0.1l-0.9,10.8c-0.2,1.7-0.5,3.2-1.1,4.4c-0.6,1.2-1.2,2.3-1.9,3c-0.7,0.7-1.4,1.3-2,1.6c-0.8,0.4-1.2,0.4-1.3,0.4
					c-1.1,0-1.5-0.4-1.8-0.7c-0.4-0.5-0.8-1.6-0.8-3.8c0-1.9,0.2-3.7,0.5-5.1c0.3-1.5,0.7-2.8,1.2-3.9c0.4-1.1,0.9-2,1.2-2.6
					c0.5-0.8,0.8-1.4,1-1.8l0-0.1l0-0.1c0.2-0.3,0.3-0.6,0.4-0.9c0.3-0.6,0.4-1.3,0.4-1.9c0-1.4-0.5-2.6-1.4-3.7
					C310.4,147.3,309,146.7,307.5,146.7L307.5,146.7z"/>
			</g>
		</g>
		<g id="XMLID_104_">
			<path id="XMLID_110_" class="st1" d="M352.2,154.4c-0.2,1.1-0.4,2.2-0.6,3.2c-0.3,1-0.5,1.8-0.7,2.6c-0.2,0.7-0.4,1.3-0.6,1.8
				c-0.2,0.5-0.3,0.7-0.3,0.8c-0.4,1-1.1,1.4-2.2,1.4c-0.6,0-1.1-0.2-1.6-0.7s-0.8-1-0.8-1.7c0-0.3,0-0.4,0.1-0.6
				c0.1-0.1,0.2-0.4,0.4-0.8c0.2-0.4,0.4-1,0.6-1.9s0.6-2.2,0.9-4.1c-0.7,0-1.4,0-2.2-0.1c-0.8,0-1.4-0.2-2.1-0.4s-1.2-0.6-1.6-1.2
				c-0.4-0.5-0.6-1.3-0.6-2.3c0-0.7,0.2-1.7,0.6-2.9c0.4-1.2,0.9-2.4,1.6-3.6c0.7-1.2,1.4-2.2,2.3-3c0.8-0.9,1.7-1.3,2.5-1.3
				c1,0,1.7,0.4,2.3,1.1c0.6,0.7,1.1,1.6,1.4,2.6c0.3,1,0.6,2.1,0.7,3.2c0.1,1.1,0.2,2.1,0.2,2.9c0.7,0,1.4,0,2.1,0c0.7,0,1.3,0,2,0
				c2.4,0,4.2,0.5,5.4,1.6c1.3,1,1.9,2.8,1.9,5.1c0,1-0.1,2-0.2,3c-0.1,1-0.3,2.1-0.4,3.2c-0.2,1.1-0.3,2.2-0.4,3.3
				c-0.1,1.1-0.2,2.1-0.2,3.2c0,1.5,0.2,2.7,0.6,3.7c0.4,1,0.9,1.8,1.6,2.3c0.6,0.6,1.3,1,2,1.2c0.7,0.2,1.4,0.3,1.9,0.3
				c1.8,0,3.5-0.6,5.1-1.8c1.6-1.2,3-2.6,4.4-4.2c1.3-1.6,2.5-3.4,3.6-5.2c1.1-1.8,1.9-3.4,2.7-4.8c0.2-0.4,0.5-0.7,0.9-0.9
				c0.4-0.2,0.8-0.3,1.2-0.3c0.8,0,1.3,0.2,1.8,0.7c0.4,0.5,0.6,1,0.6,1.6c0,0.4-0.1,0.8-0.3,1.1c-1,1.7-2.1,3.6-3.3,5.8
				c-1.3,2.1-2.7,4.2-4.3,6s-3.4,3.5-5.5,4.8c-2,1.3-4.2,1.9-6.7,1.9c-1.5,0-2.9-0.3-4.3-0.8c-1.3-0.6-2.5-1.4-3.5-2.4
				c-1-1.1-1.8-2.4-2.3-3.9c-0.6-1.6-0.9-3.3-0.9-5.3c0-2.1,0.2-4.2,0.6-6.2c0.4-2.1,0.6-4,0.6-5.9c0-0.8-0.2-1.4-0.5-1.8
				c-0.4-0.4-1.1-0.6-2.3-0.6c-0.6,0-1.2,0-1.9,0S353,154.3,352.2,154.4z M348,149.7c0-0.3,0-0.7,0-1.2c0-0.5-0.1-0.9-0.1-1.4
				c-0.1-0.5-0.1-0.9-0.3-1.2c-0.1-0.3-0.2-0.5-0.3-0.5s-0.3,0.2-0.5,0.5s-0.4,0.7-0.6,1.1c-0.2,0.4-0.4,0.9-0.6,1.4
				c-0.2,0.5-0.3,0.9-0.4,1.3H348z"/>
			<g id="XMLID_105_" class="st2">
				<path id="XMLID_106_" class="st1" d="M347.9,139.8c1,0,1.7,0.4,2.3,1.1c0.6,0.7,1.1,1.6,1.4,2.6c0.3,1,0.6,2.1,0.7,3.2
					c0.1,1.1,0.2,2.1,0.2,2.9c0.7,0,1.4,0,2.1,0c0.7,0,1.3,0,2,0c2.4,0,4.2,0.5,5.4,1.6c1.3,1,1.9,2.8,1.9,5.1c0,1-0.1,2-0.2,3
					c-0.1,1-0.3,2.1-0.4,3.2c-0.2,1.1-0.3,2.2-0.4,3.3c-0.1,1.1-0.2,2.1-0.2,3.2c0,1.5,0.2,2.7,0.6,3.7c0.4,1,0.9,1.8,1.6,2.3
					c0.6,0.6,1.3,1,2,1.2c0.7,0.2,1.4,0.3,1.9,0.3c1.8,0,3.5-0.6,5.1-1.8c1.6-1.2,3-2.6,4.4-4.2c1.3-1.6,2.5-3.4,3.6-5.2
					c1.1-1.8,1.9-3.4,2.7-4.8c0.2-0.4,0.5-0.7,0.9-0.9c0.4-0.2,0.8-0.3,1.2-0.3c0.8,0,1.3,0.2,1.8,0.7c0.4,0.5,0.6,1,0.6,1.6
					c0,0.4-0.1,0.8-0.3,1.1c-1,1.7-2.1,3.6-3.3,5.8c-1.3,2.1-2.7,4.2-4.3,6s-3.4,3.5-5.5,4.8c-2,1.3-4.2,1.9-6.7,1.9
					c-1.5,0-2.9-0.3-4.3-0.8c-1.3-0.6-2.5-1.4-3.5-2.4c-1-1.1-1.8-2.4-2.3-3.9c-0.6-1.6-0.9-3.3-0.9-5.3c0-2.1,0.2-4.2,0.6-6.2
					c0.4-2.1,0.6-4,0.6-5.9c0-0.8-0.2-1.4-0.5-1.8c-0.4-0.4-1.1-0.6-2.3-0.6c-0.6,0-1.2,0-1.9,0s-1.4,0-2.2,0.1
					c-0.2,1.1-0.4,2.2-0.6,3.2c-0.3,1-0.5,1.8-0.7,2.6c-0.2,0.7-0.4,1.3-0.6,1.8c-0.2,0.5-0.3,0.7-0.3,0.8c-0.4,1-1.1,1.4-2.2,1.4
					c-0.6,0-1.1-0.2-1.6-0.7s-0.8-1-0.8-1.7c0-0.3,0-0.4,0.1-0.6c0.1-0.1,0.2-0.4,0.4-0.8c0.2-0.4,0.4-1,0.6-1.9s0.6-2.2,0.9-4.1
					c-0.7,0-1.4,0-2.2-0.1c-0.8,0-1.4-0.2-2.1-0.4s-1.2-0.6-1.6-1.2c-0.4-0.5-0.6-1.3-0.6-2.3c0-0.7,0.2-1.7,0.6-2.9
					c0.4-1.2,0.9-2.4,1.6-3.6c0.7-1.2,1.4-2.2,2.3-3C346.2,140.2,347,139.8,347.9,139.8 M345.3,149.7h2.8c0-0.3,0-0.7,0-1.2
					c0-0.5-0.1-0.9-0.1-1.4c-0.1-0.5-0.1-0.9-0.3-1.2c-0.1-0.3-0.2-0.5-0.3-0.5s-0.3,0.2-0.5,0.5s-0.4,0.7-0.6,1.1
					c-0.2,0.4-0.4,0.9-0.6,1.4C345.5,149,345.3,149.4,345.3,149.7 M347.9,136.8c-1.7,0-3.2,0.7-4.6,2.2c-1,1-1.9,2.3-2.7,3.6
					c-0.8,1.3-1.4,2.7-1.8,4.1c-0.5,1.5-0.7,2.8-0.7,3.8c0,1.6,0.4,3,1.2,4.1c0.8,1,1.7,1.7,2.9,2.2c0.5,0.2,1.1,0.4,1.7,0.5
					c0,0.2-0.1,0.3-0.1,0.5c-0.3,1-0.4,1.4-0.5,1.5c-0.1,0.2-0.1,0.3-0.2,0.4c-0.4,0.6-0.6,1.3-0.6,2.2c0,1.5,0.6,2.9,1.8,3.9
					c1,0.9,2.3,1.4,3.6,1.4c2.2,0,3.9-1.1,4.8-3c0.2-0.3,0.3-0.7,0.5-1.1c0.2-0.5,0.4-1.1,0.6-1.9c0.2-0.8,0.5-1.7,0.8-2.7
					c0.1-0.3,0.2-0.6,0.2-1h1.5c0,1.5-0.2,3.1-0.6,4.7c-0.5,2.2-0.7,4.5-0.7,6.8c0,2.3,0.4,4.4,1.1,6.3c0.7,1.9,1.7,3.6,2.9,4.9
					c1.3,1.4,2.8,2.4,4.5,3.2c1.7,0.7,3.5,1.1,5.4,1.1c3,0,5.8-0.8,8.3-2.4c2.3-1.4,4.3-3.2,6.1-5.3c1.7-2,3.3-4.2,4.7-6.5
					c1.3-2.2,2.4-4.1,3.4-5.8l0-0.1l0-0.1c0.4-0.8,0.6-1.6,0.6-2.5c0-1.3-0.5-2.5-1.4-3.6c-0.7-0.8-2-1.8-4-1.8
					c-0.9,0-1.8,0.2-2.6,0.7c-0.9,0.5-1.6,1.2-2,2l0,0l0,0c-0.7,1.3-1.6,2.9-2.6,4.7c-1,1.7-2.1,3.3-3.3,4.8
					c-1.2,1.4-2.5,2.7-3.8,3.7c-1.1,0.8-2.1,1.2-3.3,1.2c-0.2,0-0.5,0-1-0.2c-0.3-0.1-0.6-0.3-0.9-0.6c-0.3-0.3-0.6-0.7-0.8-1.3
					c-0.2-0.4-0.4-1.2-0.4-2.5c0-0.9,0.1-1.9,0.2-2.8c0.1-1.1,0.3-2.1,0.4-3.2c0.2-1.2,0.3-2.3,0.4-3.3c0.1-1.2,0.2-2.3,0.2-3.4
					c0-3.3-1-5.8-3-7.4c-1.8-1.5-4.3-2.3-7.4-2.3c-0.4,0-0.8,0-1.3,0c0-0.1,0-0.2,0-0.3c-0.2-1.3-0.5-2.6-0.8-3.8
					c-0.5-1.4-1.1-2.6-2-3.6C351.3,137.5,349.7,136.8,347.9,136.8L347.9,136.8z"/>
			</g>
		</g>
	</g>
</g>
</svg>
